<svg width="136" height="31" viewBox="0 0 136 31" fill="none" xmlns="http://www.w3.org/2000/svg">
<path d="M19.3183 25.8592H13.4381L6.68184 16.2349L4.49909 18.4915V25.8592H0V3.83105H4.49909V12.9023L12.948 3.83105H18.8579L9.88919 12.9023L19.3183 25.8592ZM37.1368 16.2349H26.5049V21.899H38.6215V25.8592H22.0355V3.83105H38.087V7.73149H26.5049V12.4091H37.1368V16.2349ZM59.8554 3.83105L52.535 17.5799V25.8592H47.9615V17.5799L40.3886 3.83105H45.7787L50.3225 13.4255L54.673 3.83105H59.8554ZM78.3718 3.83105V7.73149H71.8235V25.8592H67.2203V7.73149H60.6423V3.83105H78.3718ZM119.102 25.8592H114.84V3.83105H121.493L125.472 21.1517L129.422 3.83105H136V25.8592H131.738V10.9595C131.738 10.531 131.743 9.93327 131.753 9.16623C131.763 8.38906 131.768 7.79129 131.768 7.37269L127.625 25.8592H123.185L119.072 7.37269C119.072 7.79129 119.077 8.38906 119.087 9.16623C119.097 9.93327 119.102 10.531 119.102 10.9595V25.8592Z" fill="#4C4EC1"/>
<path fill-rule="evenodd" clip-rule="evenodd" d="M95.7747 2.50192C88.2506 2.50192 82.1513 8.24245 82.1513 15.3239C82.1513 22.4054 88.2506 28.146 95.7747 28.146C103.299 28.146 109.398 22.4054 109.398 15.3239C109.398 8.24245 103.299 2.50192 95.7747 2.50192ZM79.493 15.3239C79.493 6.86078 86.7826 0 95.7747 0C104.767 0 112.056 6.86078 112.056 15.3239C112.056 23.7871 104.767 30.6479 95.7747 30.6479C86.7826 30.6479 79.493 23.7871 79.493 15.3239Z" fill="#4C4EC1"/>
<path fill-rule="evenodd" clip-rule="evenodd" d="M96.9883 14.8171C96.7864 14.8924 96.6405 15.0661 96.6405 15.2669V19.5156C96.6405 19.8626 96.9452 20.1442 97.3212 20.1442H98.4842C98.7528 20.1442 98.9706 20.345 98.9706 20.5929V21.2513C98.9706 21.4493 98.7967 21.6098 98.5822 21.6098H97.1919C96.8874 21.6098 96.6405 21.8377 96.6405 22.1188C96.6405 22.3999 96.8874 22.6277 97.1919 22.6277H98.5822C98.7967 22.6277 98.9706 22.7882 98.9706 22.9862V23.6446C98.9706 23.8925 98.7528 24.0934 98.4842 24.0934H95.1516C94.6145 24.0934 94.1791 23.6915 94.1791 23.1956V15.2386C94.1791 15.0409 94.0374 14.8695 93.8404 14.7919C92.225 14.1566 91.0825 12.3579 91.0825 10.6562C91.0825 8.43017 93.0376 6.62549 95.4495 6.62549C97.8612 6.62549 99.8165 8.43017 99.8165 10.6562C99.8165 12.3825 98.6408 14.1984 96.9883 14.8171ZM94.3652 8.80892H93.2505V10.4021H92.6648V11.1346H93.2505V11.2393H92.6648V11.9718H93.2505V12.8959H94.1951V10.1294L95.4799 11.3152L96.7645 10.1294V12.8959H97.7091V11.9718H98.2946V11.2393H97.7091V11.1346H98.2946V10.4021H97.7091V8.80892H96.5944L95.4799 9.83789L94.3652 8.80892Z" fill="#4C4EC1"/>
</svg>
