<svg width="136" height="32" viewBox="0 0 136 32" fill="none" xmlns="http://www.w3.org/2000/svg">
<path d="M19.3183 25.6299H13.4381L6.68184 16.0673L4.49909 18.3095V25.6299H0V3.74292H4.49909V12.7561L12.948 3.74292H18.8579L9.88919 12.7561L19.3183 25.6299ZM37.1368 16.0673H26.5049V21.6951H38.6215V25.6299H22.0355V3.74292H38.087V7.61836H26.5049V12.266H37.1368V16.0673ZM59.8554 3.74292L52.535 17.4037V25.6299H47.9615V17.4037L40.3886 3.74292H45.7787L50.3225 13.2758L54.673 3.74292H59.8554ZM78.3718 3.74292V7.61836H71.8235V25.6299H67.2203V7.61836H60.6423V3.74292H78.3718ZM119.102 25.6299H114.84V3.74292H121.493L125.472 20.9526L129.422 3.74292H136V25.6299H131.738V10.8257C131.738 10.4 131.743 9.80603 131.753 9.0439C131.763 8.27171 131.768 7.67778 131.768 7.26186L127.625 25.6299H123.185L119.072 7.26186C119.072 7.67778 119.077 8.27171 119.087 9.0439C119.097 9.80603 119.102 10.4 119.102 10.8257V25.6299Z" fill="white"/>
<path fill-rule="evenodd" clip-rule="evenodd" d="M95.4416 2.55891C88.1988 2.55891 82.3275 8.4302 82.3275 15.673C82.3275 22.9158 88.1988 28.7871 95.4416 28.7871C102.684 28.7871 108.556 22.9158 108.556 15.673C108.556 8.4302 102.684 2.55891 95.4416 2.55891ZM79.7686 15.673C79.7686 7.01706 86.7856 0 95.4416 0C104.097 0 111.115 7.01706 111.115 15.673C111.115 24.3289 104.097 31.346 95.4416 31.346C86.7856 31.346 79.7686 24.3289 79.7686 15.673Z" fill="white"/>
<path fill-rule="evenodd" clip-rule="evenodd" d="M97.0644 15.0534C96.8515 15.1395 96.6976 15.3379 96.6976 15.5674V20.422C96.6976 20.8185 97.019 21.1402 97.4155 21.1402H98.6422C98.9255 21.1402 99.1552 21.3696 99.1552 21.6529V22.4052C99.1552 22.6314 98.9718 22.8148 98.7456 22.8148H97.2792C96.958 22.8148 96.6976 23.0752 96.6976 23.3964C96.6976 23.7176 96.958 23.9779 97.2792 23.9779H98.7456C98.9718 23.9779 99.1552 24.1613 99.1552 24.3875V25.1398C99.1552 25.4231 98.9255 25.6526 98.6422 25.6526H95.1273C94.5607 25.6526 94.1015 25.1934 94.1015 24.6268V15.5351C94.1015 15.3091 93.952 15.1133 93.7443 15.0247C92.0404 14.2988 90.8354 12.2435 90.8354 10.2991C90.8354 7.75565 92.8975 5.6936 95.4414 5.6936C97.9851 5.6936 100.047 7.75565 100.047 10.2991C100.047 12.2716 98.8074 14.3465 97.0644 15.0534ZM94.2978 8.18842H93.1221V10.0088H92.5043V10.8458H93.1221V10.9653H92.5043V11.8023H93.1221V12.8583H94.1184V9.69723L95.4735 11.0521L96.8284 9.69723V12.8583H97.8247V11.8023H98.4422V10.9653H97.8247V10.8458H98.4422V10.0088H97.8247V8.18842H96.649L95.4735 9.36413L94.2978 8.18842Z" fill="white"/>
</svg>
