<svg width="136" height="31" viewBox="0 0 136 31" fill="none" xmlns="http://www.w3.org/2000/svg">
<path d="M19.3183 25.8592H13.4381L6.68184 16.2348L4.49909 18.4915V25.8592H0V3.83099H4.49909V12.9023L12.948 3.83099H18.8579L9.88919 12.9023L19.3183 25.8592ZM37.1368 16.2348H26.5049V21.8989H38.6215V25.8592H22.0355V3.83099H38.087V7.73143H26.5049V12.409H37.1368V16.2348ZM59.8554 3.83099L52.535 17.5799V25.8592H47.9615V17.5799L40.3886 3.83099H45.7787L50.3225 13.4254L54.673 3.83099H59.8554ZM78.3718 3.83099V7.73143H71.8235V25.8592H67.2203V7.73143H60.6424V3.83099H78.3718ZM119.102 25.8592H114.84V3.83099H121.493L125.472 21.1517L129.422 3.83099H136V25.8592H131.738V10.9595C131.738 10.531 131.743 9.93321 131.753 9.16617C131.763 8.389 131.768 7.79123 131.768 7.37263L127.625 25.8592H123.185L119.072 7.37263C119.072 7.79123 119.077 8.389 119.087 9.16617C119.097 9.93321 119.102 10.531 119.102 10.9595V25.8592Z" fill="white"/>
<path fill-rule="evenodd" clip-rule="evenodd" d="M95.7747 2.50192C88.2506 2.50192 82.1513 8.24245 82.1513 15.3239C82.1513 22.4054 88.2506 28.146 95.7747 28.146C103.299 28.146 109.398 22.4054 109.398 15.3239C109.398 8.24245 103.299 2.50192 95.7747 2.50192ZM79.493 15.3239C79.493 6.86078 86.7826 0 95.7747 0C104.767 0 112.056 6.86078 112.056 15.3239C112.056 23.7871 104.767 30.6479 95.7747 30.6479C86.7826 30.6479 79.493 23.7871 79.493 15.3239Z" fill="white"/>
<path fill-rule="evenodd" clip-rule="evenodd" d="M96.9882 14.8169C96.7864 14.8922 96.6405 15.0658 96.6405 15.2667V19.5154C96.6405 19.8624 96.9452 20.1439 97.3212 20.1439H98.4842C98.7528 20.1439 98.9706 20.3447 98.9706 20.5927V21.2511C98.9706 21.4491 98.7967 21.6096 98.5822 21.6096H97.1918C96.8873 21.6096 96.6405 21.8374 96.6405 22.1185C96.6405 22.3996 96.8873 22.6275 97.1918 22.6275H98.5822C98.7967 22.6275 98.9706 22.788 98.9706 22.986V23.6444C98.9706 23.8923 98.7528 24.0931 98.4842 24.0931H95.1516C94.6145 24.0931 94.1791 23.6912 94.1791 23.1954V15.2384C94.1791 15.0406 94.0374 14.8693 93.8404 14.7917C92.2249 14.1564 91.0825 12.3577 91.0825 10.6559C91.0825 8.42993 93.0376 6.62524 95.4495 6.62524C97.8612 6.62524 99.8165 8.42993 99.8165 10.6559C99.8165 12.3822 98.6408 14.1982 96.9882 14.8169ZM94.3652 8.80868H93.2505V10.4019H92.6647V11.1344H93.2505V11.239H92.6647V11.9715H93.2505V12.8957H94.1951V10.1292L95.4799 11.315L96.7645 10.1292V12.8957H97.709V11.9715H98.2946V11.239H97.709V11.1344H98.2946V10.4019H97.709V8.80868H96.5943L95.4799 9.83765L94.3652 8.80868Z" fill="white"/>
</svg>
