<svg width="137" height="135" viewBox="0 0 137 135" fill="none" xmlns="http://www.w3.org/2000/svg">
<g clip-path="url(#clip0_15_62)">
<path d="M23.4641 0L48.442 3.90756L73.9245 35.7983L98.2717 11.5966L123.628 15.5042V57.9832L136.874 60V79.6639L123.628 77.6471V80.4202L136.874 82.437V102.101L123.628 100.084V124.916L102.309 121.639V47.521L73.5461 74.7479L44.6575 38.6975L44.7837 112.689L23.5903 109.412V84.7059L10.4706 82.563V63.0252L23.5903 65.042V62.2689L10.4706 60.2521V40.7143L23.5903 42.7311L23.4641 0Z" fill="#DAD9DE"/>
<path d="M10.4705 63.1513L0 73.2353L13.1197 75.2521L13.2459 63.4034L10.4705 63.1513Z" fill="#C5C5C7"/>
<path d="M113.284 90.6303L126.529 92.6471L137 82.563L127.791 80.9244L116.816 82.437L113.284 87.8571V90.6303Z" fill="#C5C5C7"/>
<path d="M12.9936 9.70588L37.7192 13.4874L63.0755 45.3781L88.3057 21.4286L113.284 25.3361V68.1933L126.529 70.2101V89.874L113.284 87.8571V90.6303L126.529 92.6471V112.311L113.284 110.294V135.126L92.0902 131.723V57.605L63.0755 84.958L34.1869 48.7815L34.3131 122.773L13.1197 119.496V94.7899L0.126151 92.7731L0 73.1092L13.1197 75.126V72.3529L0 70.3361V50.7983L13.1197 52.8151L12.9936 9.70588Z" fill="#F6F6F6"/>
<path d="M113.284 25.3361L123.754 15.6303L98.2716 11.5966L88.3057 21.4286L113.284 25.3361Z" fill="white"/>
<path d="M37.7191 13.4874L48.442 3.90756L23.4641 0L12.9935 9.70588" fill="white"/>
<path d="M10.4705 40.7143L0 50.7983L13.1197 52.8151L13.2459 41.0924L10.4705 40.7143Z" fill="white"/>
<path d="M34.313 122.773L44.7836 112.563L44.6574 61.8908L34.1869 48.7815L34.313 122.773Z" fill="#C5C5C7"/>
<path d="M113.284 68.1933L123.754 57.9832L137 60L126.529 70.2101L113.284 68.1933Z" fill="white"/>
<path d="M126.529 89.874L137 79.7899V60L126.529 70.2101V89.874Z" fill="#DAD9DE"/>
<path d="M126.529 112.437L137 102.227V82.563L126.529 92.6471V112.437Z" fill="#DAD9DE"/>
<path d="M113.284 135L123.754 124.916L123.628 111.933L113.284 110.294V135Z" fill="#DAD9DE"/>
</g>
<defs>
<clipPath id="clip0_15_62">
<rect width="137" height="135" fill="white"/>
</clipPath>
</defs>
</svg>
