<svg width="39" height="38" viewBox="0 0 39 38" fill="none" xmlns="http://www.w3.org/2000/svg">
<path fill-rule="evenodd" clip-rule="evenodd" d="M19.8151 37.9276C30.2886 37.9276 38.779 29.4373 38.779 18.9638C38.779 8.49039 30.2886 0 19.8151 0C9.34171 0 0.851318 8.49039 0.851318 18.9638C0.851318 29.4373 9.34171 37.9276 19.8151 37.9276ZM19.6653 18.8629L9.99304 12.1928C10.2981 11.4782 11.0072 10.9773 11.8333 10.9773H27.7952C28.6132 10.9773 29.3166 11.4684 29.6264 12.1718L19.6653 18.8629ZM20.7805 20.5232L29.7952 14.4678V24.8653C29.7952 25.9699 28.8998 26.8653 27.7952 26.8653H11.8333C10.7287 26.8653 9.83332 25.9699 9.83332 24.8653V14.5121L18.5299 20.5094C19.2061 20.9757 20.0987 20.9812 20.7805 20.5232Z" fill="#B3B4E1"/>
</svg>
