<svg width="1352" height="803" viewBox="0 0 1352 803" fill="none" xmlns="http://www.w3.org/2000/svg">
<g opacity="0.1">
<path d="M1139.92 3.78398C1143.54 1.6944 1149.41 1.6944 1153.03 3.78398L1183.4 21.3164C1185.19 22.3496 1186.1 23.7004 1186.12 25.0546C1186.12 25.0848 1186.12 25.115 1186.12 25.1452C1186.1 26.4994 1185.19 27.8501 1183.4 28.8834L1153.03 46.4158C1149.41 48.5054 1143.54 48.5054 1139.92 46.4158L1109.55 28.8834C1107.76 27.8501 1106.86 26.4994 1106.84 25.1452C1106.84 25.115 1106.84 25.0848 1106.84 25.0546C1106.86 23.7004 1107.76 22.3497 1109.55 21.3164L1139.92 3.78398Z" fill="url(#paint0_linear_96_10)"/>
<path d="M1183.4 28.8834L1153.03 46.4158C1149.41 48.5054 1143.54 48.5054 1139.92 46.4158L1109.55 28.8834C1107.76 27.8501 1106.86 26.4994 1106.84 25.1452V117.189L1146.71 139.04L1186.12 117.189V25.1452C1186.1 26.4994 1185.19 27.8501 1183.4 28.8834Z" fill="url(#paint1_linear_96_10)"/>
<rect width="50.2021" height="50.2021" rx="8" transform="matrix(0.866044 0.499967 -0.866044 0.499967 1146.48 0)" fill="#76A8ED"/>
</g>
<g opacity="0.2">
<path d="M1190.73 195.784C1194.35 193.694 1200.22 193.694 1203.84 195.784L1234.21 213.316C1236 214.35 1236.9 215.7 1236.92 217.055C1236.92 217.085 1236.92 217.115 1236.92 217.145C1236.9 218.499 1236 219.85 1234.21 220.883L1203.84 238.416C1200.22 240.505 1194.35 240.505 1190.73 238.416L1160.36 220.883C1158.57 219.85 1157.67 218.499 1157.65 217.145C1157.65 217.115 1157.65 217.085 1157.65 217.055C1157.67 215.7 1158.57 214.35 1160.36 213.316L1190.73 195.784Z" fill="url(#paint2_linear_96_10)"/>
<path d="M1234.21 220.883L1203.84 238.416C1200.22 240.505 1194.35 240.505 1190.73 238.416L1160.36 220.883C1158.57 219.85 1157.67 218.499 1157.65 217.145V309.189L1197.52 331.04L1236.92 309.189V217.145C1236.9 218.499 1236 219.85 1234.21 220.883Z" fill="url(#paint3_linear_96_10)"/>
<rect width="50.2021" height="50.2021" rx="8" transform="matrix(0.866044 0.499967 -0.866044 0.499967 1197.28 192)" fill="#76A8ED"/>
</g>
<g opacity="0.1">
<path d="M1099.92 237.641C1103.54 235.552 1109.41 235.552 1113.03 237.641L1143.4 255.174C1145.19 256.207 1146.1 257.558 1146.12 258.912C1146.12 258.942 1146.12 258.972 1146.12 259.003C1146.1 260.357 1145.19 261.708 1143.4 262.741L1113.03 280.273C1109.41 282.363 1103.54 282.363 1099.92 280.273L1069.55 262.741C1067.76 261.708 1066.86 260.357 1066.84 259.003C1066.84 258.972 1066.84 258.942 1066.84 258.912C1066.86 257.558 1067.76 256.207 1069.55 255.174L1099.92 237.641Z" fill="url(#paint4_linear_96_10)"/>
<path d="M1143.4 262.741L1113.03 280.273C1109.41 282.363 1103.54 282.363 1099.92 280.273L1069.55 262.741C1067.76 261.708 1066.86 260.357 1066.84 259.003V454.006L1106.71 475.858L1146.12 454.006V259.003C1146.1 260.357 1145.19 261.708 1143.4 262.741Z" fill="url(#paint5_linear_96_10)"/>
<rect width="50.2021" height="50.2021" rx="8" transform="matrix(0.866044 0.499967 -0.866044 0.499967 1106.48 233.857)" fill="#76A8ED"/>
</g>
<g opacity="0.2">
<path d="M782.116 500.784C785.735 498.694 791.604 498.694 795.224 500.784L825.593 518.316C827.383 519.35 828.288 520.7 828.307 522.055C828.308 522.085 828.308 522.115 828.307 522.145C828.288 523.499 827.383 524.85 825.593 525.883L795.224 543.416C791.604 545.505 785.735 545.505 782.116 543.416L751.746 525.883C749.956 524.85 749.052 523.499 749.032 522.145C749.031 522.115 749.031 522.085 749.032 522.055C749.052 520.7 749.956 519.35 751.746 518.316L782.116 500.784Z" fill="url(#paint6_linear_96_10)"/>
<path d="M825.593 525.883L795.224 543.416C791.604 545.505 785.735 545.505 782.116 543.416L751.746 525.883C749.956 524.85 749.052 523.499 749.032 522.145V614.189L788.906 636.04L828.307 614.189V522.145C828.288 523.499 827.383 524.85 825.593 525.883Z" fill="url(#paint7_linear_96_10)"/>
<rect width="50.2021" height="50.2021" rx="8" transform="matrix(0.866044 0.499967 -0.866044 0.499967 788.669 497)" fill="#76A8ED"/>
</g>
<g opacity="0.2">
<path d="M832.923 571.784C836.543 569.694 842.412 569.694 846.031 571.784L876.401 589.316C878.191 590.35 879.095 591.7 879.115 593.055C879.116 593.085 879.116 593.115 879.115 593.145C879.095 594.499 878.191 595.85 876.401 596.883L846.031 614.416C842.412 616.505 836.543 616.505 832.923 614.416L802.554 596.883C800.764 595.85 799.859 594.499 799.84 593.145C799.839 593.115 799.839 593.085 799.84 593.055C799.859 591.7 800.764 590.35 802.554 589.316L832.923 571.784Z" fill="url(#paint8_linear_96_10)"/>
<path d="M876.401 596.883L846.031 614.416C842.412 616.505 836.543 616.505 832.923 614.416L802.554 596.883C800.764 595.85 799.859 594.499 799.84 593.145V685.189L839.714 707.04L879.115 685.189V593.145C879.095 594.499 878.191 595.85 876.401 596.883Z" fill="url(#paint9_linear_96_10)"/>
<rect width="50.2021" height="50.2021" rx="8" transform="matrix(0.866044 0.499967 -0.866044 0.499967 839.477 568)" fill="#76A8ED"/>
</g>
<g opacity="0.1">
<path d="M738.923 597.784C742.543 595.694 748.412 595.694 752.031 597.784L782.401 615.316C784.191 616.35 785.095 617.7 785.115 619.055C785.116 619.085 785.116 619.115 785.115 619.145C785.095 620.499 784.191 621.85 782.401 622.883L752.031 640.416C748.412 642.505 742.543 642.505 738.923 640.416L708.554 622.883C706.764 621.85 705.859 620.499 705.84 619.145C705.839 619.115 705.839 619.085 705.84 619.055C705.859 617.7 706.764 616.35 708.554 615.316L738.923 597.784Z" fill="url(#paint10_linear_96_10)"/>
<path d="M782.401 622.883L752.031 640.416C748.412 642.505 742.543 642.505 738.923 640.416L708.554 622.883C706.764 621.85 705.859 620.499 705.84 619.145V685L745.714 706.851L785.115 685V619.145C785.095 620.499 784.191 621.85 782.401 622.883Z" fill="url(#paint11_linear_96_10)"/>
<rect width="50.2021" height="50.2021" rx="8" transform="matrix(0.866044 0.499967 -0.866044 0.499967 745.477 594)" fill="#76A8ED"/>
</g>
<g opacity="0.2">
<path d="M1087.92 56.784C1091.54 54.6944 1097.41 54.6944 1101.03 56.784L1131.4 74.3164C1133.19 75.3496 1134.1 76.7004 1134.12 78.0546C1134.12 78.0848 1134.12 78.115 1134.12 78.1452C1134.1 79.4994 1133.19 80.8501 1131.4 81.8834L1101.03 99.4158C1097.41 101.505 1091.54 101.505 1087.92 99.4158L1057.55 81.8834C1055.76 80.8501 1054.86 79.4994 1054.84 78.1452C1054.84 78.115 1054.84 78.0848 1054.84 78.0546C1054.86 76.7004 1055.76 75.3497 1057.55 74.3164L1087.92 56.784Z" fill="url(#paint12_linear_96_10)"/>
<path d="M1131.4 81.8834L1101.03 99.4158C1097.41 101.505 1091.54 101.505 1087.92 99.4158L1057.55 81.8834C1055.76 80.8501 1054.86 79.4994 1054.84 78.1452V170.189L1094.71 192.04L1134.12 170.189V78.1452C1134.1 79.4994 1133.19 80.8501 1131.4 81.8834Z" fill="url(#paint13_linear_96_10)"/>
<rect width="50.2021" height="50.2021" rx="8" transform="matrix(0.866044 0.499967 -0.866044 0.499967 1094.48 53)" fill="#76A8ED"/>
</g>
<g opacity="0.1">
<path d="M90.9235 521.784C94.543 519.694 100.412 519.694 104.031 521.784L134.401 539.316C136.191 540.35 137.095 541.7 137.115 543.055C137.116 543.085 137.116 543.115 137.115 543.145C137.095 544.499 136.191 545.85 134.401 546.883L104.031 564.416C100.412 566.505 94.543 566.505 90.9235 564.416L60.5538 546.883C58.764 545.85 57.8592 544.499 57.8395 543.145C57.839 543.115 57.839 543.085 57.8395 543.055C57.8592 541.7 58.764 540.35 60.5538 539.316L90.9235 521.784Z" fill="url(#paint14_linear_96_10)"/>
<path d="M134.401 546.883L104.031 564.416C100.412 566.505 94.543 566.505 90.9235 564.416L60.5538 546.883C58.764 545.85 57.8592 544.499 57.8395 543.145V609L97.7138 630.851L137.115 609V543.145C137.095 544.499 136.191 545.85 134.401 546.883Z" fill="url(#paint15_linear_96_10)"/>
<rect width="50.2021" height="50.2021" rx="8" transform="matrix(0.866044 0.499967 -0.866044 0.499967 97.4771 518)" fill="#76A8ED"/>
</g>
<g opacity="0.1">
<path d="M110.923 448.784C114.543 446.694 120.412 446.694 124.031 448.784L154.401 466.316C156.191 467.35 157.095 468.7 157.115 470.055C157.116 470.085 157.116 470.115 157.115 470.145C157.095 471.499 156.191 472.85 154.401 473.883L124.031 491.416C120.412 493.505 114.543 493.505 110.923 491.416L80.5538 473.883C78.764 472.85 77.8592 471.499 77.8395 470.145C77.839 470.115 77.839 470.085 77.8395 470.055C77.8592 468.7 78.764 467.35 80.5538 466.316L110.923 448.784Z" fill="url(#paint16_linear_96_10)"/>
<path d="M154.401 473.883L124.031 491.416C120.412 493.505 114.543 493.505 110.923 491.416L80.5538 473.883C78.764 472.85 77.8592 471.499 77.8395 470.145V536L117.714 557.851L157.115 536V470.145C157.095 471.499 156.191 472.85 154.401 473.883Z" fill="url(#paint17_linear_96_10)"/>
<rect width="50.2021" height="50.2021" rx="8" transform="matrix(0.866044 0.499967 -0.866044 0.499967 117.477 445)" fill="#76A8ED"/>
</g>
<g opacity="0.1">
<path d="M123.116 22.784C126.735 20.6944 132.604 20.6944 136.223 22.784L166.593 40.3164C168.383 41.3496 169.288 42.7004 169.307 44.0546C169.308 44.0848 169.308 44.115 169.307 44.1452C169.288 45.4994 168.383 46.8501 166.593 47.8834L136.223 65.4158C132.604 67.5054 126.735 67.5054 123.116 65.4158L92.7462 47.8834C90.9564 46.8501 90.0516 45.4994 90.0319 44.1452C90.0314 44.115 90.0314 44.0848 90.0319 44.0546C90.0516 42.7004 90.9564 41.3497 92.7462 40.3164L123.116 22.784Z" fill="url(#paint18_linear_96_10)"/>
<path d="M166.593 47.8834L136.223 65.4158C132.604 67.5054 126.735 67.5054 123.116 65.4158L92.7462 47.8834C90.9564 46.8501 90.0516 45.4994 90.0319 44.1452V136.189L129.906 158.04L169.307 136.189V44.1452C169.288 45.4994 168.383 46.8501 166.593 47.8834Z" fill="url(#paint19_linear_96_10)"/>
<rect width="50.2021" height="50.2021" rx="8" transform="matrix(0.866044 0.499967 -0.866044 0.499967 129.669 19)" fill="#76A8ED"/>
</g>
<g opacity="0.1">
<path d="M157.923 556.784C161.543 554.694 167.412 554.694 171.031 556.784L201.401 574.316C203.191 575.35 204.095 576.7 204.115 578.055C204.116 578.085 204.116 578.115 204.115 578.145C204.095 579.499 203.191 580.85 201.401 581.883L171.031 599.416C167.412 601.505 161.543 601.505 157.923 599.416L127.554 581.883C125.764 580.85 124.859 579.499 124.839 578.145C124.839 578.115 124.839 578.085 124.839 578.055C124.859 576.7 125.764 575.35 127.554 574.316L157.923 556.784Z" fill="url(#paint20_linear_96_10)"/>
<path d="M201.401 581.883L171.031 599.416C167.412 601.505 161.543 601.505 157.923 599.416L127.554 581.883C125.764 580.85 124.859 579.499 124.839 578.145V670.189L164.714 692.04L204.115 670.189V578.145C204.095 579.499 203.191 580.85 201.401 581.883Z" fill="url(#paint21_linear_96_10)"/>
<rect width="50.2021" height="50.2021" rx="8" transform="matrix(0.866044 0.499967 -0.866044 0.499967 164.477 553)" fill="#76A8ED"/>
</g>
<g opacity="0.1">
<path d="M79.9235 119.784C83.543 117.694 89.4115 117.694 93.0311 119.784L123.401 137.316C125.191 138.35 126.095 139.7 126.115 141.055C126.116 141.085 126.116 141.115 126.115 141.145C126.095 142.499 125.191 143.85 123.401 144.883L93.0311 162.416C89.4115 164.505 83.543 164.505 79.9235 162.416L49.5538 144.883C47.764 143.85 46.8592 142.499 46.8395 141.145C46.839 141.115 46.839 141.085 46.8395 141.055C46.8592 139.7 47.764 138.35 49.5538 137.316L79.9235 119.784Z" fill="url(#paint22_linear_96_10)"/>
<path d="M123.401 144.883L93.0311 162.416C89.4115 164.505 83.543 164.505 79.9235 162.416L49.5538 144.883C47.764 143.85 46.8592 142.499 46.8395 141.145V207L86.7138 228.851L126.115 207V141.145C126.095 142.499 125.191 143.85 123.401 144.883Z" fill="url(#paint23_linear_96_10)"/>
<rect width="50.2021" height="50.2021" rx="8" transform="matrix(0.866044 0.499967 -0.866044 0.499967 86.4771 116)" fill="#76A8ED"/>
</g>
<g opacity="0.1">
<path d="M36.9235 68.784C40.543 66.6944 46.4115 66.6944 50.0311 68.784L80.4007 86.3164C82.1906 87.3496 83.0954 88.7004 83.1151 90.0546C83.1155 90.0848 83.1155 90.115 83.1151 90.1452C83.0954 91.4994 82.1906 92.8501 80.4007 93.8834L50.0311 111.416C46.4115 113.505 40.543 113.505 36.9235 111.416L6.55383 93.8834C4.76399 92.8501 3.85921 91.4994 3.83948 90.1452C3.83904 90.115 3.83904 90.0848 3.83948 90.0546C3.85921 88.7004 4.76399 87.3496 6.55383 86.3164L36.9235 68.784Z" fill="url(#paint24_linear_96_10)"/>
<path d="M80.4007 93.8834L50.0311 111.416C46.4115 113.505 40.543 113.505 36.9235 111.416L6.55383 93.8834C4.76399 92.8501 3.85921 91.4994 3.83948 90.1452V156L43.7138 177.851L83.1151 156V90.1452C83.0954 91.4994 82.1906 92.8501 80.4007 93.8834Z" fill="url(#paint25_linear_96_10)"/>
<rect width="50.2021" height="50.2021" rx="8" transform="matrix(0.866044 0.499967 -0.866044 0.499967 43.4771 65)" fill="#76A8ED"/>
</g>
<g opacity="0.1">
<path d="M1164.92 275.784C1168.54 273.694 1174.41 273.694 1178.03 275.784L1208.4 293.316C1210.19 294.35 1211.1 295.7 1211.12 297.055C1211.12 297.085 1211.12 297.115 1211.12 297.145C1211.1 298.499 1210.19 299.85 1208.4 300.883L1178.03 318.416C1174.41 320.505 1168.54 320.505 1164.92 318.416L1134.55 300.883C1132.76 299.85 1131.86 298.499 1131.84 297.145C1131.84 297.115 1131.84 297.085 1131.84 297.055C1131.86 295.7 1132.76 294.35 1134.55 293.316L1164.92 275.784Z" fill="url(#paint26_linear_96_10)"/>
<path d="M1208.4 300.883L1178.03 318.416C1174.41 320.505 1168.54 320.505 1164.92 318.416L1134.55 300.883C1132.76 299.85 1131.86 298.499 1131.84 297.145V389.189L1171.71 411.04L1211.12 389.189V297.145C1211.1 298.499 1210.19 299.85 1208.4 300.883Z" fill="url(#paint27_linear_96_10)"/>
<rect width="50.2021" height="50.2021" rx="8" transform="matrix(0.866044 0.499967 -0.866044 0.499967 1171.48 272)" fill="#76A8ED"/>
</g>
<g opacity="0.1">
<path d="M506.923 576.784C510.543 574.694 516.412 574.694 520.031 576.784L550.401 594.316C552.191 595.35 553.095 596.7 553.115 598.055C553.116 598.085 553.116 598.115 553.115 598.145C553.095 599.499 552.191 600.85 550.401 601.883L520.031 619.416C516.412 621.505 510.543 621.505 506.923 619.416L476.554 601.883C474.764 600.85 473.859 599.499 473.839 598.145C473.839 598.115 473.839 598.085 473.839 598.055C473.859 596.7 474.764 595.35 476.554 594.316L506.923 576.784Z" fill="url(#paint28_linear_96_10)"/>
<path d="M550.401 601.883L520.031 619.416C516.412 621.505 510.543 621.505 506.923 619.416L476.554 601.883C474.764 600.85 473.859 599.499 473.839 598.145V690.189L513.714 712.04L553.115 690.189V598.145C553.095 599.499 552.191 600.85 550.401 601.883Z" fill="url(#paint29_linear_96_10)"/>
<rect width="50.2021" height="50.2021" rx="8" transform="matrix(0.866044 0.499967 -0.866044 0.499967 513.477 573)" fill="#76A8ED"/>
</g>
<g opacity="0.1">
<path d="M547.923 666.784C551.543 664.694 557.412 664.694 561.031 666.784L591.401 684.316C593.191 685.35 594.095 686.7 594.115 688.055C594.116 688.085 594.116 688.115 594.115 688.145C594.095 689.499 593.191 690.85 591.401 691.883L561.031 709.416C557.412 711.505 551.543 711.505 547.923 709.416L517.554 691.883C515.764 690.85 514.859 689.499 514.84 688.145C514.839 688.115 514.839 688.085 514.84 688.055C514.859 686.7 515.764 685.35 517.554 684.316L547.923 666.784Z" fill="url(#paint30_linear_96_10)"/>
<path d="M591.401 691.883L561.031 709.416C557.412 711.505 551.543 711.505 547.923 709.416L517.554 691.883C515.764 690.85 514.859 689.499 514.84 688.145V780.189L554.714 802.04L594.115 780.189V688.145C594.095 689.499 593.191 690.85 591.401 691.883Z" fill="url(#paint31_linear_96_10)"/>
<rect width="50.2021" height="50.2021" rx="8" transform="matrix(0.866044 0.499967 -0.866044 0.499967 554.477 663)" fill="#76A8ED"/>
</g>
<g opacity="0.1">
<path d="M1045.92 11.784C1049.54 9.6944 1055.41 9.6944 1059.03 11.784L1089.4 29.3164C1091.19 30.3496 1092.1 31.7004 1092.12 33.0546C1092.12 33.0848 1092.12 33.115 1092.12 33.1452C1092.1 34.4994 1091.19 35.8501 1089.4 36.8834L1059.03 54.4158C1055.41 56.5054 1049.54 56.5054 1045.92 54.4158L1015.55 36.8834C1013.76 35.8501 1012.86 34.4994 1012.84 33.1452C1012.84 33.115 1012.84 33.0848 1012.84 33.0546C1012.86 31.7004 1013.76 30.3497 1015.55 29.3164L1045.92 11.784Z" fill="url(#paint32_linear_96_10)"/>
<path d="M1089.4 36.8834L1059.03 54.4158C1055.41 56.5054 1049.54 56.5054 1045.92 54.4158L1015.55 36.8834C1013.76 35.8501 1012.86 34.4994 1012.84 33.1452V125.189L1052.71 147.04L1092.12 125.189V33.1452C1092.1 34.4994 1091.19 35.8501 1089.4 36.8834Z" fill="url(#paint33_linear_96_10)"/>
<rect width="50.2021" height="50.2021" rx="8" transform="matrix(0.866044 0.499967 -0.866044 0.499967 1052.48 8)" fill="#76A8ED"/>
</g>
<g opacity="0.1">
<path d="M460.923 642.784C464.543 640.694 470.412 640.694 474.031 642.784L504.401 660.316C506.191 661.35 507.095 662.7 507.115 664.055C507.116 664.085 507.116 664.115 507.115 664.145C507.095 665.499 506.191 666.85 504.401 667.883L474.031 685.416C470.412 687.505 464.543 687.505 460.923 685.416L430.554 667.883C428.764 666.85 427.859 665.499 427.839 664.145C427.839 664.115 427.839 664.085 427.839 664.055C427.859 662.7 428.764 661.35 430.554 660.316L460.923 642.784Z" fill="url(#paint34_linear_96_10)"/>
<path d="M504.401 667.883L474.031 685.416C470.412 687.505 464.543 687.505 460.923 685.416L430.554 667.883C428.764 666.85 427.859 665.499 427.839 664.145V756.189L467.714 778.04L507.115 756.189V664.145C507.095 665.499 506.191 666.85 504.401 667.883Z" fill="url(#paint35_linear_96_10)"/>
<rect width="50.2021" height="50.2021" rx="8" transform="matrix(0.866044 0.499967 -0.866044 0.499967 467.477 639)" fill="#76A8ED"/>
</g>
<defs>
<linearGradient id="paint0_linear_96_10" x1="1146.48" y1="2.21015" x2="1146.48" y2="113.264" gradientUnits="userSpaceOnUse">
<stop stop-color="#76A8ED"/>
<stop offset="1" stop-color="#5EA2E1" stop-opacity="0"/>
</linearGradient>
<linearGradient id="paint1_linear_96_10" x1="1146.48" y1="2.21015" x2="1146.48" y2="113.264" gradientUnits="userSpaceOnUse">
<stop stop-color="#76A8ED"/>
<stop offset="1" stop-color="#5EA2E1" stop-opacity="0"/>
</linearGradient>
<linearGradient id="paint2_linear_96_10" x1="1197.28" y1="194.21" x2="1197.28" y2="305.264" gradientUnits="userSpaceOnUse">
<stop stop-color="#76A8ED"/>
<stop offset="1" stop-color="#5EA2E1" stop-opacity="0"/>
</linearGradient>
<linearGradient id="paint3_linear_96_10" x1="1197.28" y1="194.21" x2="1197.28" y2="305.264" gradientUnits="userSpaceOnUse">
<stop stop-color="#76A8ED"/>
<stop offset="1" stop-color="#5EA2E1" stop-opacity="0"/>
</linearGradient>
<linearGradient id="paint4_linear_96_10" x1="1106.48" y1="236.068" x2="1106.48" y2="347.121" gradientUnits="userSpaceOnUse">
<stop stop-color="#76A8ED"/>
<stop offset="1" stop-color="#5EA2E1" stop-opacity="0"/>
</linearGradient>
<linearGradient id="paint5_linear_96_10" x1="1106.48" y1="236.068" x2="1106.48" y2="347.121" gradientUnits="userSpaceOnUse">
<stop stop-color="#76A8ED"/>
<stop offset="1" stop-color="#5EA2E1" stop-opacity="0"/>
</linearGradient>
<linearGradient id="paint6_linear_96_10" x1="788.67" y1="499.21" x2="788.67" y2="610.264" gradientUnits="userSpaceOnUse">
<stop stop-color="#76A8ED"/>
<stop offset="1" stop-color="#5EA2E1" stop-opacity="0"/>
</linearGradient>
<linearGradient id="paint7_linear_96_10" x1="788.67" y1="499.21" x2="788.67" y2="610.264" gradientUnits="userSpaceOnUse">
<stop stop-color="#76A8ED"/>
<stop offset="1" stop-color="#5EA2E1" stop-opacity="0"/>
</linearGradient>
<linearGradient id="paint8_linear_96_10" x1="839.477" y1="570.21" x2="839.477" y2="681.264" gradientUnits="userSpaceOnUse">
<stop stop-color="#76A8ED"/>
<stop offset="1" stop-color="#5EA2E1" stop-opacity="0"/>
</linearGradient>
<linearGradient id="paint9_linear_96_10" x1="839.477" y1="570.21" x2="839.477" y2="681.264" gradientUnits="userSpaceOnUse">
<stop stop-color="#76A8ED"/>
<stop offset="1" stop-color="#5EA2E1" stop-opacity="0"/>
</linearGradient>
<linearGradient id="paint10_linear_96_10" x1="745.477" y1="596.21" x2="745.477" y2="707.264" gradientUnits="userSpaceOnUse">
<stop stop-color="#76A8ED"/>
<stop offset="0.799526" stop-color="#5EA2E1" stop-opacity="0"/>
</linearGradient>
<linearGradient id="paint11_linear_96_10" x1="745.477" y1="596.21" x2="745.477" y2="707.264" gradientUnits="userSpaceOnUse">
<stop stop-color="#76A8ED"/>
<stop offset="0.799526" stop-color="#5EA2E1" stop-opacity="0"/>
</linearGradient>
<linearGradient id="paint12_linear_96_10" x1="1094.48" y1="55.2101" x2="1094.48" y2="166.264" gradientUnits="userSpaceOnUse">
<stop stop-color="#76A8ED"/>
<stop offset="1" stop-color="#5EA2E1" stop-opacity="0"/>
</linearGradient>
<linearGradient id="paint13_linear_96_10" x1="1094.48" y1="55.2101" x2="1094.48" y2="166.264" gradientUnits="userSpaceOnUse">
<stop stop-color="#76A8ED"/>
<stop offset="1" stop-color="#5EA2E1" stop-opacity="0"/>
</linearGradient>
<linearGradient id="paint14_linear_96_10" x1="97.4773" y1="520.21" x2="97.4773" y2="631.264" gradientUnits="userSpaceOnUse">
<stop stop-color="#76A8ED"/>
<stop offset="0.799526" stop-color="#5EA2E1" stop-opacity="0"/>
</linearGradient>
<linearGradient id="paint15_linear_96_10" x1="97.4773" y1="520.21" x2="97.4773" y2="631.264" gradientUnits="userSpaceOnUse">
<stop stop-color="#76A8ED"/>
<stop offset="0.799526" stop-color="#5EA2E1" stop-opacity="0"/>
</linearGradient>
<linearGradient id="paint16_linear_96_10" x1="117.477" y1="447.21" x2="117.477" y2="558.264" gradientUnits="userSpaceOnUse">
<stop stop-color="#76A8ED"/>
<stop offset="0.799526" stop-color="#5EA2E1" stop-opacity="0"/>
</linearGradient>
<linearGradient id="paint17_linear_96_10" x1="117.477" y1="447.21" x2="117.477" y2="558.264" gradientUnits="userSpaceOnUse">
<stop stop-color="#76A8ED"/>
<stop offset="0.799526" stop-color="#5EA2E1" stop-opacity="0"/>
</linearGradient>
<linearGradient id="paint18_linear_96_10" x1="129.67" y1="21.2101" x2="129.67" y2="132.264" gradientUnits="userSpaceOnUse">
<stop stop-color="#76A8ED"/>
<stop offset="1" stop-color="#5EA2E1" stop-opacity="0"/>
</linearGradient>
<linearGradient id="paint19_linear_96_10" x1="129.67" y1="21.2101" x2="129.67" y2="132.264" gradientUnits="userSpaceOnUse">
<stop stop-color="#76A8ED"/>
<stop offset="1" stop-color="#5EA2E1" stop-opacity="0"/>
</linearGradient>
<linearGradient id="paint20_linear_96_10" x1="164.477" y1="555.21" x2="164.477" y2="666.264" gradientUnits="userSpaceOnUse">
<stop stop-color="#76A8ED"/>
<stop offset="1" stop-color="#5EA2E1" stop-opacity="0"/>
</linearGradient>
<linearGradient id="paint21_linear_96_10" x1="164.477" y1="555.21" x2="164.477" y2="666.264" gradientUnits="userSpaceOnUse">
<stop stop-color="#76A8ED"/>
<stop offset="1" stop-color="#5EA2E1" stop-opacity="0"/>
</linearGradient>
<linearGradient id="paint22_linear_96_10" x1="86.4773" y1="118.21" x2="86.4773" y2="229.264" gradientUnits="userSpaceOnUse">
<stop stop-color="#76A8ED"/>
<stop offset="0.799526" stop-color="#5EA2E1" stop-opacity="0"/>
</linearGradient>
<linearGradient id="paint23_linear_96_10" x1="86.4773" y1="118.21" x2="86.4773" y2="229.264" gradientUnits="userSpaceOnUse">
<stop stop-color="#76A8ED"/>
<stop offset="0.799526" stop-color="#5EA2E1" stop-opacity="0"/>
</linearGradient>
<linearGradient id="paint24_linear_96_10" x1="43.4773" y1="67.2101" x2="43.4773" y2="178.264" gradientUnits="userSpaceOnUse">
<stop stop-color="#76A8ED"/>
<stop offset="0.799526" stop-color="#5EA2E1" stop-opacity="0"/>
</linearGradient>
<linearGradient id="paint25_linear_96_10" x1="43.4773" y1="67.2101" x2="43.4773" y2="178.264" gradientUnits="userSpaceOnUse">
<stop stop-color="#76A8ED"/>
<stop offset="0.799526" stop-color="#5EA2E1" stop-opacity="0"/>
</linearGradient>
<linearGradient id="paint26_linear_96_10" x1="1171.48" y1="274.21" x2="1171.48" y2="385.264" gradientUnits="userSpaceOnUse">
<stop stop-color="#76A8ED"/>
<stop offset="1" stop-color="#5EA2E1" stop-opacity="0"/>
</linearGradient>
<linearGradient id="paint27_linear_96_10" x1="1171.48" y1="274.21" x2="1171.48" y2="385.264" gradientUnits="userSpaceOnUse">
<stop stop-color="#76A8ED"/>
<stop offset="1" stop-color="#5EA2E1" stop-opacity="0"/>
</linearGradient>
<linearGradient id="paint28_linear_96_10" x1="513.477" y1="575.21" x2="513.477" y2="686.264" gradientUnits="userSpaceOnUse">
<stop stop-color="#76A8ED"/>
<stop offset="1" stop-color="#5EA2E1" stop-opacity="0"/>
</linearGradient>
<linearGradient id="paint29_linear_96_10" x1="513.477" y1="575.21" x2="513.477" y2="686.264" gradientUnits="userSpaceOnUse">
<stop stop-color="#76A8ED"/>
<stop offset="1" stop-color="#5EA2E1" stop-opacity="0"/>
</linearGradient>
<linearGradient id="paint30_linear_96_10" x1="554.477" y1="665.21" x2="554.477" y2="776.264" gradientUnits="userSpaceOnUse">
<stop stop-color="#76A8ED"/>
<stop offset="1" stop-color="#5EA2E1" stop-opacity="0"/>
</linearGradient>
<linearGradient id="paint31_linear_96_10" x1="554.477" y1="665.21" x2="554.477" y2="776.264" gradientUnits="userSpaceOnUse">
<stop stop-color="#76A8ED"/>
<stop offset="1" stop-color="#5EA2E1" stop-opacity="0"/>
</linearGradient>
<linearGradient id="paint32_linear_96_10" x1="1052.48" y1="10.2101" x2="1052.48" y2="121.264" gradientUnits="userSpaceOnUse">
<stop stop-color="#76A8ED"/>
<stop offset="1" stop-color="#5EA2E1" stop-opacity="0"/>
</linearGradient>
<linearGradient id="paint33_linear_96_10" x1="1052.48" y1="10.2101" x2="1052.48" y2="121.264" gradientUnits="userSpaceOnUse">
<stop stop-color="#76A8ED"/>
<stop offset="1" stop-color="#5EA2E1" stop-opacity="0"/>
</linearGradient>
<linearGradient id="paint34_linear_96_10" x1="467.477" y1="641.21" x2="467.477" y2="752.264" gradientUnits="userSpaceOnUse">
<stop stop-color="#76A8ED"/>
<stop offset="1" stop-color="#5EA2E1" stop-opacity="0"/>
</linearGradient>
<linearGradient id="paint35_linear_96_10" x1="467.477" y1="641.21" x2="467.477" y2="752.264" gradientUnits="userSpaceOnUse">
<stop stop-color="#76A8ED"/>
<stop offset="1" stop-color="#5EA2E1" stop-opacity="0"/>
</linearGradient>
</defs>
</svg>
