<svg width="1440" height="1233" viewBox="0 0 1440 1233" fill="none" xmlns="http://www.w3.org/2000/svg">
<path opacity="0.2" d="M596.494 84.2899C199.41 -36.2678 54.2081 48.7141 -5.40186 72.0241V1064.1H1621.6V20.0567C1579.47 11.0598 1463.31 -20.1836 1345.6 20.0568C1227.88 60.2971 1186.85 104.286 1060.46 129.746C989.399 144.059 776.313 138.884 596.494 84.2899Z" fill="url(#paint0_linear_39_244)"/>
<path fill-rule="evenodd" clip-rule="evenodd" d="M-8.40186 93.5977C49.5981 68.1052 225.598 48.3438 445.598 93.5977C654.645 136.599 827.471 160.986 905.598 160.986C993.598 160.986 1074.1 152.447 1199.6 107.629C1365.6 48.3438 1457.6 48.3437 1469.6 48.3438V1070.36C1428.42 1092.55 1361 1121.58 1243.6 1155C1122.23 1189.56 969.598 1204.41 593.598 1138.44C577.277 1135.58 558.453 1131.93 537.592 1127.89C402.192 1101.67 180.97 1058.83 1.11623 1105.19L-8.40186 93.5977Z" fill="#4C4EC1"/>
<path opacity="0.2" d="M707.598 1192.55C1137.6 1297.29 1529.55 1168.35 1586.6 1144.13L1586.6 439.627L-11.4019 439.627L-11.4018 968.255C-11.4018 968.255 -66.7872 1243.99 13.5981 1192.55C223.598 1058.17 539.668 1151.65 707.598 1192.55Z" fill="url(#paint1_linear_39_244)"/>
<defs>
<linearGradient id="paint0_linear_39_244" x1="823.25" y1="-232.085" x2="823.25" y2="1064.1" gradientUnits="userSpaceOnUse">
<stop stop-color="#26E2E2"/>
<stop offset="0.575712" stop-color="#26E2E2" stop-opacity="0"/>
</linearGradient>
<linearGradient id="paint1_linear_39_244" x1="752.599" y1="1399.09" x2="752.599" y2="52.2958" gradientUnits="userSpaceOnUse">
<stop stop-color="#26E2E2"/>
<stop offset="0.575712" stop-color="#26E2E2" stop-opacity="0"/>
</linearGradient>
</defs>
</svg>
