<svg width="635" height="520" viewBox="0 0 635 520" fill="none" xmlns="http://www.w3.org/2000/svg">
<g clip-path="url(#clip0_39_1209)">
<g style="mix-blend-mode:multiply">
<path d="M427.385 278.105L325.97 336.652M369.073 244.441L267.658 302.988M485.697 311.768L384.282 370.315" stroke="#C2C3E7" stroke-width="4"/>
</g>
<path d="M506.294 173.114C501.509 170.352 493.752 170.352 488.967 173.114L407.721 220.018L370.838 241.31C368.478 242.673 367.282 244.453 367.25 246.238C367.217 248.073 368.413 249.913 370.838 251.313L488.967 319.509C493.752 322.271 501.509 322.271 506.294 319.509L624.423 251.313C626.848 249.913 628.043 248.073 628.011 246.238C627.979 244.453 626.783 242.673 624.423 241.31L587.54 220.018L506.294 173.114Z" fill="url(#paint0_linear_39_1209)"/>
<path d="M628.011 246.238C627.979 244.453 626.783 242.673 624.423 241.31L587.54 220.018L628.011 220.018L628.011 246.238Z" fill="url(#paint1_linear_39_1209)"/>
<path d="M370.838 241.31C368.478 242.673 367.282 244.453 367.25 246.238L367.25 220.018L407.721 220.018L370.838 241.31Z" fill="url(#paint2_linear_39_1209)"/>
<path d="M502.827 144.745C499.957 143.088 495.304 143.088 492.434 144.745L370.835 214.944C366.052 217.705 366.052 222.182 370.835 224.944L487.238 292.143C492.977 295.456 502.283 295.456 508.023 292.143L624.426 224.944C629.209 222.182 629.209 217.705 624.426 214.944L502.827 144.745Z" fill="#DFE0F5"/>
<rect width="135.213" height="135.213" rx="10" transform="matrix(-0.866044 0.499967 0.866044 0.499967 497.63 152.342)" fill="#8D90D2"/>
<path d="M527.202 181.082C510.87 171.654 484.391 171.654 468.059 181.082L390.636 225.778L497.63 287.546L604.624 225.778L527.202 181.082Z" fill="#DFE0F5"/>
<path d="M506.294 202.607C501.509 199.845 493.752 199.845 488.967 202.607L458.808 220.018L448.822 225.783C446.591 227.071 445.4 228.732 445.249 230.418C445.077 232.348 446.268 234.312 448.822 235.786L488.967 258.962C493.752 261.724 501.509 261.724 506.294 258.962L546.439 235.786C548.993 234.312 550.184 232.348 550.011 230.418C549.861 228.732 548.67 227.071 546.439 225.783L536.453 220.018L506.294 202.607Z" fill="url(#paint3_linear_39_1209)"/>
<path d="M550.011 230.418C549.861 228.732 548.67 227.071 546.439 225.783L536.453 220.018L550.011 220.018V230.418Z" fill="url(#paint4_linear_39_1209)"/>
<path d="M448.822 225.783C446.591 227.071 445.4 228.732 445.249 230.418L445.249 220.018L458.808 220.018L448.822 225.783Z" fill="url(#paint5_linear_39_1209)"/>
<rect width="66.3618" height="66.3618" rx="10" transform="matrix(-0.866044 0.499967 0.866044 0.499967 497.63 186.766)" fill="#D1D2EE"/>
<path d="M520.498 185.902C520.497 189.472 517.991 193.813 514.899 195.598L477.189 217.372C475.718 218.222 474.379 218.339 473.38 217.845C473.279 217.795 473.18 217.738 473.086 217.675C472.158 217.057 471.591 215.839 471.591 214.141L471.595 113.99C471.595 110.42 474.101 106.078 477.193 104.293L514.904 82.519C516.348 81.6852 517.664 81.5565 518.657 82.0201C518.797 82.0853 518.93 82.1624 519.057 82.2508C519.955 82.879 520.501 84.0833 520.501 85.7509L520.498 185.902Z" fill="url(#paint6_linear_39_1209)"/>
<path d="M477.189 217.372C475.718 218.222 474.379 218.339 473.38 217.845L474.875 218.708C475.514 219.077 476.55 218.479 477.189 217.372Z" fill="url(#paint7_linear_39_1209)"/>
<path d="M519.057 82.2508C519.955 82.879 520.501 84.0833 520.501 85.7509C521.139 84.6466 521.139 83.453 520.501 83.085L519.057 82.2508Z" fill="url(#paint8_linear_39_1209)"/>
<path d="M521.997 188.732C521.997 191.218 520.252 194.24 518.1 195.483L479.586 217.721C477.433 218.964 475.689 217.956 475.689 215.471L475.693 114.392C475.693 111.906 477.438 108.884 479.59 107.642L518.104 85.4033C520.257 84.1605 522.001 85.1678 522.001 87.6531L521.997 188.732Z" fill="url(#paint9_linear_39_1209)" stroke="#6769CB" stroke-width="3"/>
<rect width="28.034" height="30.3638" rx="14.017" transform="matrix(-0.866007 0.500033 3.76461e-05 -1 510.984 162.078)" fill="#26E2E2"/>
<rect x="-0.432984" y="-0.249984" width="41.1917" height="44.6981" rx="20.5958" transform="matrix(-0.866007 0.500033 3.76461e-05 -1 516.306 165.923)" stroke="#26E2E2" stroke-dasharray="4 4"/>
<rect x="-0.432984" y="-0.249984" width="33.7782" height="36.6685" rx="16.8891" transform="matrix(-0.866007 0.500033 3.76461e-05 -1 513.095 163.761)" stroke="#26E2E2" stroke-dasharray="4 4"/>
<path fill-rule="evenodd" clip-rule="evenodd" d="M501.689 150.64C500.802 152.182 499.893 153.945 499.892 155.398L499.892 158.26C499.892 159.19 500.545 159.567 501.351 159.102L501.54 158.993C502.011 158.721 502.392 158.941 502.392 159.484L502.392 159.987C502.392 160.253 502.206 160.576 501.975 160.709L500.483 161.57C500.157 161.759 499.892 162.218 499.892 162.595C499.892 162.972 500.157 163.125 500.483 162.936L501.975 162.075C502.206 161.942 502.392 162.05 502.392 162.316L502.392 162.818C502.392 163.361 502.011 164.022 501.54 164.294L500.678 164.791C498.785 165.884 497.251 164.998 497.251 162.812L497.251 157.774C497.251 156.029 496.273 155.048 495.358 154.131C495.234 154.007 495.111 153.884 494.992 153.76C494.328 153.07 493.929 151.955 493.929 150.653C493.93 147.664 496.028 144.031 498.615 142.537C501.203 141.043 503.301 142.254 503.301 145.242C503.301 146.872 502.676 148.922 501.689 150.64ZM497.452 146.139L496.255 146.83L496.255 148.968L495.627 149.331L495.627 150.314L496.255 149.951L496.255 150.092L495.627 150.455L495.627 151.438L496.255 151.075L496.255 152.316L497.269 151.73L497.269 148.017L498.647 148.813L500.026 146.425L500.026 150.139L501.039 149.553L501.039 148.313L501.667 147.95L501.668 146.967L501.039 147.33L501.039 147.189L501.667 146.826L501.668 145.843L501.04 146.206L501.04 144.068L499.844 144.758L498.647 146.83L497.452 146.139Z" fill="#F5F5F5"/>
<path d="M472.179 144.681C472.179 145.191 472.537 145.811 472.979 146.066C473.064 146.116 473.146 146.148 473.223 146.164C473.33 146.186 473.427 146.177 473.509 146.14C473.533 146.13 473.556 146.116 473.578 146.101C473.703 146.01 473.779 145.84 473.779 145.605L473.778 138.743C473.778 138.233 473.42 137.613 472.979 137.358C472.778 137.242 472.594 137.221 472.454 137.281C472.426 137.293 472.399 137.309 472.375 137.327C472.298 137.384 472.24 137.473 472.208 137.588C472.189 137.656 472.179 137.733 472.179 137.82L472.179 144.681Z" fill="#B7B7E4"/>
<path d="M472.208 137.588C472.169 137.52 472.169 137.446 472.208 137.423L472.375 137.327C472.298 137.384 472.24 137.473 472.208 137.588Z" fill="#B7B7E4"/>
<path d="M473.509 146.14L473.346 146.235C473.312 146.254 473.257 146.222 473.223 146.164C473.33 146.186 473.427 146.177 473.509 146.14Z" fill="#B7B7E4"/>
<rect width="1.84727" height="8.70856" rx="0.923635" transform="matrix(0.866007 0.500033 -3.76461e-05 -1 471.899 145.766)" fill="#6769CB"/>
<path d="M533.872 60.3506L533.872 120.995" stroke="url(#paint10_linear_39_1209)" stroke-width="3" stroke-linecap="round"/>
<path d="M461.509 87.5967L461.509 148.241" stroke="url(#paint11_linear_39_1209)" stroke-width="3" stroke-linecap="round"/>
<path d="M528.892 137.401L528.892 198.046" stroke="url(#paint12_linear_39_1209)" stroke-width="3" stroke-linecap="round"/>
<path d="M487.877 160.838L487.877 221.482" stroke="url(#paint13_linear_39_1209)" stroke-width="3" stroke-linecap="round"/>
<path opacity="0.7" d="M507.505 104.296L507.505 164.94" stroke="url(#paint14_linear_39_1209)" stroke-width="3" stroke-linecap="round"/>
<path d="M506.297 191.495C501.513 188.732 493.755 188.732 488.97 191.495L448.825 214.671C446.53 215.996 445.335 217.716 445.243 219.452C445.142 221.335 446.336 223.236 448.825 224.673L488.97 247.849C493.755 250.611 501.513 250.611 506.297 247.849L546.443 224.673C548.932 223.236 550.126 221.335 550.025 219.452C549.932 217.716 548.738 215.996 546.443 214.671L506.297 191.495Z" fill="url(#paint15_linear_39_1209)"/>
<path d="M488.97 191.495L448.825 214.671C446.53 215.996 445.335 217.716 445.243 219.452L445.242 -17.4116L550.025 -17.4116V219.452C549.932 217.716 548.738 215.996 546.443 214.671L506.297 191.495C501.513 188.732 493.755 188.732 488.97 191.495Z" fill="url(#paint16_linear_39_1209)"/>
<path d="M428.087 269.922L326.672 328.469M369.775 236.259L268.36 294.806M486.399 303.586L384.984 362.133" stroke="url(#paint17_linear_39_1209)" stroke-width="4"/>
<path d="M190.172 262.974C180.375 257.318 164.486 257.321 154.682 262.981L35.1063 332.012C30.4419 334.705 27.9955 338.193 27.7675 341.719C27.7443 342.078 27.7441 342.437 27.7669 342.796C27.9905 346.322 30.4327 349.81 35.0938 352.5L309.916 511.155C319.713 516.811 335.602 516.808 345.406 511.148L464.982 442.117C469.561 439.473 472.003 436.063 472.306 432.603C472.349 432.116 472.349 431.627 472.307 431.14C472.008 427.68 469.57 424.271 464.994 421.629L190.172 262.974Z" fill="url(#paint18_linear_39_1209)"/>
<path d="M35.1063 332.012C30.4419 334.705 27.9955 338.193 27.7675 341.719L27.7744 330.448L35.1063 332.012Z" fill="url(#paint19_linear_39_1209)"/>
<path d="M472.307 431.14C472.008 427.68 469.57 424.271 464.994 421.629L472.313 421.627L472.307 431.14Z" fill="url(#paint20_linear_39_1209)"/>
<rect y="4.99967" width="169.452" height="349.323" rx="15" transform="matrix(-0.866044 0.499967 0.866044 0.499967 168.101 243.695)" fill="url(#paint21_linear_39_1209)" stroke="#CDCAEE" stroke-width="10"/>
<rect width="5.86993" height="27.6725" rx="2.93496" transform="matrix(-0.866044 0.499967 0.866044 0.499967 213.827 262.158)" fill="#D5CBF2"/>
<rect width="5.86993" height="38.1545" rx="2.93496" transform="matrix(-0.866044 0.499967 0.866044 0.499967 252.316 284.378)" fill="#D5CBF2"/>
<path d="M97.3484 385.207C95.9447 384.396 94.8068 382.425 94.8068 380.804C94.8068 380.491 94.8492 380.215 94.9276 379.977C95.0364 379.648 95.2147 379.395 95.4458 379.227C95.5138 379.178 95.5865 379.136 95.6633 379.102C96.1118 378.902 96.7019 378.964 97.3484 379.337L116.229 390.24C117.633 391.05 118.771 393.021 118.771 394.642C118.771 395.379 118.536 395.917 118.147 396.208C118.07 396.266 117.986 396.314 117.897 396.352C117.617 396.472 117.282 396.491 116.914 396.397C116.696 396.342 116.467 396.247 116.229 396.11L97.3484 385.207Z" fill="#8D90D2"/>
<path d="M117.14 396.789L117.897 396.352C117.617 396.472 117.282 396.491 116.914 396.397L117.14 396.789Z" fill="#8D90D2"/>
<path d="M95.4458 379.227L94.7323 379.639L94.9276 379.977C95.0364 379.648 95.2147 379.395 95.4458 379.227Z" fill="#8D90D2"/>
<rect width="5.86993" height="27.6725" rx="2.93496" transform="matrix(0 -1 0.865988 0.500065 93.9172 384.253)" fill="#CDCAEE"/>
<rect width="5.86993" height="38.1545" rx="2.93496" transform="matrix(-0.866044 0.499967 0.866044 0.499967 292.622 307.646)" fill="#D5CBF2"/>
<path d="M135.03 262.787L54.4179 309.324C64.4451 315.113 80.7023 315.113 90.7294 309.324L135.03 283.75C145.057 277.961 145.057 268.576 135.03 262.787Z" fill="#CDCAEE"/>
<path fill-rule="evenodd" clip-rule="evenodd" d="M455.708 433.863L339.307 501.061C336.101 502.912 331.788 503.748 327.535 503.577C323.877 503.429 320.263 502.536 317.436 500.904L42.9688 342.454C39.9896 340.735 38.4329 338.511 38.3094 336.284C38.3029 336.167 38.3004 336.05 38.3019 335.933C38.3292 333.707 39.7904 331.505 42.6962 329.828L159.097 262.63C162.331 260.762 166.692 259.928 170.981 260.119C174.601 260.28 178.17 261.171 180.969 262.787L324.123 345.43L455.435 421.237C458.474 422.991 460.032 425.269 460.1 427.539C460.101 427.568 460.102 427.597 460.102 427.626C460.132 429.896 458.671 432.153 455.708 433.863Z" fill="url(#paint22_linear_39_1209)"/>
<path fill-rule="evenodd" clip-rule="evenodd" d="M455.708 433.863L339.307 501.061C336.101 502.912 331.788 503.748 327.535 503.577C323.877 503.429 320.263 502.536 317.436 500.904L42.9688 342.454C39.9896 340.735 38.4329 338.511 38.3094 336.284C38.3029 336.167 38.3004 336.05 38.3019 335.933C38.3292 333.707 39.7904 331.505 42.6962 329.828L159.097 262.63C162.331 260.762 166.692 259.928 170.981 260.119C174.601 260.28 178.17 261.171 180.969 262.787L324.123 345.43L455.435 421.237C458.474 422.991 460.032 425.269 460.1 427.539C460.101 427.568 460.102 427.597 460.102 427.626C460.132 429.896 458.671 432.153 455.708 433.863Z" fill="url(#paint23_linear_39_1209)"/>
<path d="M180.969 262.787C178.17 261.171 174.601 260.28 170.981 260.119L170.453 235.649L323.668 324.35L324.123 345.43L180.969 262.787Z" fill="url(#paint24_linear_39_1209)"/>
<path d="M180.969 262.787C178.17 261.171 174.601 260.28 170.981 260.119L170.453 235.649L323.668 324.35L324.123 345.43L180.969 262.787Z" fill="url(#paint25_linear_39_1209)"/>
<path d="M159.097 262.63L42.6962 329.828C39.7904 331.505 38.3292 333.707 38.3019 335.933L34.4385 156.906L170.453 235.649L170.981 260.119C166.692 259.928 162.331 260.762 159.097 262.63Z" fill="url(#paint26_linear_39_1209)"/>
<path d="M159.097 262.63L42.6962 329.828C39.7904 331.505 38.3292 333.707 38.3019 335.933L34.4385 156.906L170.453 235.649L170.981 260.119C166.692 259.928 162.331 260.762 159.097 262.63Z" fill="url(#paint27_linear_39_1209)"/>
<path d="M323.668 324.35L460.102 246.896L460.1 427.539C460.032 425.269 458.474 422.991 455.435 421.237L324.123 345.43L323.668 324.35Z" fill="url(#paint28_linear_39_1209)"/>
<path d="M323.668 324.35L460.102 246.896L460.1 427.539C460.032 425.269 458.474 422.991 455.435 421.237L324.123 345.43L323.668 324.35Z" fill="url(#paint29_linear_39_1209)"/>
<path fill-rule="evenodd" clip-rule="evenodd" d="M383.45 389.234L263.615 458.414C257.475 461.959 247.519 461.959 241.378 458.414L116.967 386.592C113.608 384.653 112.087 382.055 112.403 379.519C112.664 377.418 114.186 375.36 116.967 373.755L236.802 304.574C242.942 301.029 252.898 301.029 259.039 304.574L383.45 376.397C386.452 378.13 387.986 380.389 388.053 382.661C388.122 385.035 386.588 387.422 383.45 389.234Z" fill="url(#paint30_linear_39_1209)"/>
<path d="M236.802 304.574L116.967 373.755C114.186 375.36 112.664 377.418 112.403 379.519L112.403 259.389L236.802 304.574Z" fill="url(#paint31_linear_39_1209)"/>
<path d="M383.45 376.397L259.039 304.574L388.053 261.685L388.053 382.661C387.986 380.389 386.452 378.13 383.45 376.397Z" fill="url(#paint32_linear_39_1209)"/>
<path opacity="0.6" d="M179.172 300.924L179.172 386.621M148.069 282.968L148.069 370.306M210.275 318.879L210.275 402.091M132.518 273.99L132.518 362.571M163.621 291.946L163.621 378.887M194.724 309.902L194.724 393.994M225.826 327.857L225.826 411.397" stroke="#7DEEEE" stroke-width="2"/>
<path d="M179.172 335.488L179.172 343.114M148.069 317.533L148.069 326.798M210.275 353.444L210.275 358.583M132.518 308.555L132.518 319.064M163.621 326.51L163.621 335.379M194.724 344.466L194.724 350.486M225.826 362.422L225.826 367.889" stroke="#26E2E2" stroke-width="4" stroke-linecap="round"/>
<g opacity="0.4">
<path d="M436.036 433.459C426.72 438.838 411.614 438.838 402.298 433.459C397.705 430.808 395.376 427.344 395.312 423.869C395.31 423.77 395.31 423.671 395.312 423.572C395.376 420.097 397.705 416.633 402.298 413.982C411.614 408.603 426.72 408.603 436.036 413.982C440.687 416.666 443.016 420.184 443.024 423.702C443.024 423.714 443.024 423.726 443.024 423.739C443.016 427.257 440.687 430.774 436.036 433.459Z" fill="url(#paint33_linear_39_1209)"/>
<path d="M402.298 413.982C411.614 408.603 426.72 408.603 436.036 413.982C440.687 416.666 443.016 420.184 443.024 423.702L443.024 142.794L395.312 142.794L395.312 423.572C395.376 420.097 397.705 416.633 402.298 413.982Z" fill="url(#paint34_linear_39_1209)"/>
</g>
<g opacity="0.4">
<path d="M87.6213 344.454C80.6935 348.454 69.4613 348.454 62.5335 344.454C59.1182 342.483 57.3866 339.907 57.3387 337.323C57.3374 337.25 57.3374 337.176 57.3387 337.103C57.3866 334.518 59.1182 331.943 62.5336 329.971C69.4613 325.972 80.6935 325.972 87.6213 329.971C91.0793 331.967 92.8112 334.583 92.8172 337.199C92.8172 337.208 92.8172 337.217 92.8172 337.226C92.8112 339.843 91.0793 342.458 87.6213 344.454Z" fill="url(#paint35_linear_39_1209)"/>
<path d="M62.5336 329.971C69.4613 325.972 80.6935 325.972 87.6213 329.971C91.0793 331.967 92.8112 334.583 92.8172 337.199L92.8172 255.72H57.3387L57.3387 337.103C57.3866 334.518 59.1182 331.943 62.5336 329.971Z" fill="url(#paint36_linear_39_1209)"/>
<path d="M87.6218 262.852C80.694 266.851 69.4619 266.851 62.5341 262.852C55.6063 258.852 55.6063 252.368 62.5341 248.369C69.4619 244.369 80.694 244.369 87.6218 248.369C94.5496 252.368 94.5496 258.852 87.6218 262.852Z" fill="#9694FF"/>
<path opacity="0.3" d="M73.4173 207.814C74.2097 206.633 75.9462 206.633 76.7385 207.814L92.6672 231.544C93.1197 232.219 93.1197 233.099 92.6672 233.774L76.7385 257.504C75.9462 258.685 74.2097 258.685 73.4173 257.504L57.4887 233.774C57.0362 233.099 57.0362 232.219 57.4887 231.544L73.4173 207.814Z" fill="#9694FF"/>
<path opacity="0.3" d="M73.2001 211.873C73.7512 209.956 76.4623 209.939 77.0374 211.849L83.1281 232.083C83.2413 232.459 83.2413 232.86 83.1281 233.236L77.0374 253.469C76.4623 255.379 73.7512 255.362 73.2001 253.445L67.3846 233.212C67.2808 232.85 67.2808 232.468 67.3846 232.107L73.2001 211.873Z" fill="#9694FF"/>
</g>
<path opacity="0.6" d="M323.232 302.132L323.232 387.829M354.335 284.176L354.335 371.514M292.13 320.087L292.13 403.299M369.887 275.198L369.887 363.779M338.784 293.154L338.784 380.095M307.681 311.11L307.681 395.202M276.578 329.065L276.578 412.605" stroke="#26E2E2" stroke-width="2"/>
<path d="M323.232 336.696L323.232 344.322M354.335 318.741L354.335 328.006M292.13 354.652L292.13 359.791M369.887 309.763L369.887 320.272M338.784 327.718L338.784 336.587M307.681 345.674L307.681 351.694M276.578 363.63L276.578 369.097" stroke="#26E2E2" stroke-width="4" stroke-linecap="round"/>
<path fill-rule="evenodd" clip-rule="evenodd" d="M383.45 268.379L263.615 337.56C257.475 341.105 247.519 341.105 241.379 337.56L116.967 265.737C110.827 262.192 110.827 256.445 116.967 252.9L236.802 183.719C242.943 180.174 252.898 180.174 259.039 183.719L383.45 255.542C389.59 259.087 389.59 264.834 383.45 268.379Z" fill="#D5CBF2"/>
<path fill-rule="evenodd" clip-rule="evenodd" d="M368.784 267.527L262.139 329.094C256.675 332.248 247.815 332.248 242.35 329.094L131.632 265.176C126.168 262.022 126.168 256.907 131.632 253.752L238.277 192.186C243.742 189.031 252.602 189.031 258.067 192.186L368.784 256.103C374.249 259.258 374.249 264.373 368.784 267.527Z" fill="#26E2E2"/>
<path d="M261.289 329.585L358.764 273.312L367.808 268.091L358.9 262.949L259.225 205.406C254.305 202.566 246.268 202.601 241.273 205.485L143.797 261.757L134.753 266.978L143.661 272.121L243.337 329.664C248.257 332.504 256.294 332.469 261.289 329.585Z" fill="#7DEEEE"/>
<path fill-rule="evenodd" clip-rule="evenodd" d="M368.784 267.527L262.139 329.094C256.674 332.248 247.814 332.248 242.35 329.094L131.632 265.176C129.067 263.696 127.706 261.783 127.549 259.845C127.528 259.591 127.528 259.337 127.549 259.084C127.706 257.145 129.067 255.232 131.632 253.752L238.277 192.186C243.742 189.031 252.602 189.031 258.066 192.186L368.784 256.103C371.393 257.61 372.757 259.563 372.874 261.537C373.002 263.696 371.639 265.879 368.784 267.527Z" fill="url(#paint37_linear_39_1209)"/>
<path d="M238.277 192.186L131.632 253.752C129.067 255.232 127.706 257.145 127.549 259.084L127.549 34.8132H372.874L372.874 261.537C372.757 259.563 371.393 257.61 368.784 256.103L258.066 192.186C252.602 189.031 243.742 189.031 238.277 192.186Z" fill="url(#paint38_linear_39_1209)"/>
<path fill-rule="evenodd" clip-rule="evenodd" d="M193.672 170.214C226.794 151.093 280.495 151.093 313.617 170.214C329.732 179.518 338.007 191.633 338.441 203.824C338.465 204.499 338.465 205.174 338.441 205.849C338.007 218.04 329.732 230.155 313.617 239.458C297.056 249.019 275.351 253.799 253.645 253.799C231.939 253.799 210.233 249.019 193.672 239.458C177.863 230.331 169.599 218.498 168.882 206.541C168.814 205.405 168.814 204.268 168.882 203.132C169.599 191.175 177.863 179.341 193.672 170.214Z" fill="#B3B4E1"/>
<path d="M168.882 203.132C169.599 191.175 177.863 179.341 193.672 170.214L168.882 175.731L168.882 203.132Z" fill="#B3B4E1"/>
<path d="M313.617 170.214C329.732 179.518 338.007 191.633 338.441 203.824L338.441 177.462L313.617 170.214Z" fill="#B3B4E1"/>
<path d="M313.617 239.458L313.617 221.08M193.672 239.458L193.672 221.08M253.645 253.799L253.645 238.043" stroke="#7679CA" stroke-width="2" stroke-linejoin="round"/>
<circle r="63.5958" transform="matrix(0.866044 0.499967 -0.866044 0.499967 253.645 177.142)" fill="#8588CF"/>
<circle r="56.0719" transform="matrix(0.866044 0.499967 -0.866044 0.499967 253.645 184.665)" fill="#C2C3E7"/>
<path fill-rule="evenodd" clip-rule="evenodd" d="M303.826 148.172C276.112 132.173 231.178 132.173 203.464 148.172C175.75 164.172 175.75 190.112 203.464 206.111C231.178 222.111 276.112 222.111 303.826 206.111C331.54 190.112 331.54 164.172 303.826 148.172ZM193.672 142.52C226.794 123.398 280.496 123.398 313.617 142.52C346.739 161.641 346.739 192.643 313.617 211.764C280.496 230.885 226.794 230.885 193.672 211.764C160.551 192.643 160.551 161.641 193.672 142.52Z" fill="#B3B4E1"/>
<path fill-rule="evenodd" clip-rule="evenodd" d="M266.658 179.845C262.168 179.604 257.207 179.861 254.018 181.702L244.5 187.197C241.892 188.703 241.892 191.143 244.5 192.649L245.115 193.003C246.638 193.883 246.638 195.308 245.115 196.187L243.706 197.001C242.961 197.431 241.753 197.431 241.008 197.001L236.178 194.213C235.121 193.602 233.406 193.602 232.348 194.213C231.29 194.823 231.29 195.813 232.348 196.424L237.178 199.212C237.923 199.642 237.923 200.339 237.178 200.769L235.769 201.583C234.246 202.462 231.777 202.462 230.253 201.583L227.463 199.972C221.336 196.434 221.336 190.699 227.463 187.161L245.656 176.659C248.794 174.847 249.278 172.04 248.92 169.486C248.36 165.485 251.164 161.06 256.175 158.167C264.552 153.331 278.134 153.332 286.511 158.168C294.888 163.004 294.889 170.845 286.512 175.681C281.437 178.611 273.663 180.22 266.658 179.845ZM274.528 160.737L270.656 158.501L264.661 161.962L262.627 160.788L259.871 162.379L261.905 163.554L261.512 163.781L259.477 162.606L256.721 164.197L258.756 165.372L255.277 167.38L258.558 169.274L268.969 163.264L268.969 168.416L277.894 168.416L267.483 174.426L270.764 176.321L274.243 174.312L276.277 175.487L279.034 173.896L276.999 172.721L277.393 172.494L279.428 173.668L282.184 172.077L280.149 170.903L286.143 167.442L282.272 165.207L274.528 165.207V160.737Z" fill="#F5F5F5"/>
<path fill-rule="evenodd" clip-rule="evenodd" d="M308.004 95.6449C312.156 84.2579 325.2 73.3258 337.137 71.2275C342.945 70.2066 347.422 71.4648 350.009 74.3376C350.152 74.4966 350.289 74.6606 350.421 74.8293C352.797 77.8788 353.254 82.506 351.234 88.0462C349.157 93.7397 344.858 99.3195 339.586 103.738C334.314 108.157 328.069 111.414 322.1 112.464C316.402 113.465 311.986 112.273 309.378 109.515C309.13 109.253 308.899 108.977 308.684 108.687C306.424 105.637 306.022 101.08 308.004 95.6449Z" fill="#B3B4E1"/>
<path d="M308.684 108.687C306.424 105.637 306.022 101.08 308.004 95.6449L303.106 102.031L308.684 108.687Z" fill="#B3B4E1"/>
<path d="M337.137 71.2275C342.945 70.2066 347.422 71.4648 350.009 74.3376L344.642 67.9345L337.137 71.2275Z" fill="#B3B4E1"/>
<path d="M351.234 88.0453L347.493 83.5815M322.101 112.463L318.359 107.999M339.587 103.737L336.379 99.9103" stroke="#7679CA"/>
<circle r="20.1546" transform="matrix(0.9849 -0.173123 -0.342593 0.939484 323.982 85.1186)" fill="#8588CF"/>
<circle r="17.7702" transform="matrix(0.9849 -0.173123 -0.342593 0.939484 325.513 86.9456)" fill="#C2C3E7"/>
<path fill-rule="evenodd" clip-rule="evenodd" d="M330.272 67.8666C320.284 69.6224 309.37 78.7696 305.895 88.2976C302.421 97.8255 307.702 104.126 317.69 102.37C327.679 100.615 338.593 91.4674 342.067 81.9394C345.542 72.4115 340.261 66.1109 330.272 67.8666ZM302.366 88.9179C306.519 77.5308 319.562 66.5988 331.5 64.5004C343.437 62.4021 349.748 69.9321 345.596 81.3191C341.444 92.7062 328.4 103.638 316.463 105.737C304.525 107.835 298.214 100.305 302.366 88.9179Z" fill="#B3B4E1"/>
<path fill-rule="evenodd" clip-rule="evenodd" d="M327.441 83.3108C326.433 84.0251 325.437 84.9566 325.089 85.9107L323.808 89.4235C323.481 90.3199 323.978 90.9127 324.917 90.7475L325.139 90.7086C325.688 90.6121 325.978 90.9584 325.787 91.482L325.61 91.9663C325.517 92.2225 325.224 92.4683 324.955 92.5155L323.214 92.8215C322.833 92.8885 322.417 93.2376 322.284 93.6012C322.152 93.9648 322.353 94.2053 322.734 94.1383L324.475 93.8323C324.743 93.7851 324.885 93.9545 324.792 94.2106L324.615 94.6949C324.424 95.2186 323.825 95.7213 323.276 95.8177L322.27 95.9945C320.062 96.3827 318.894 94.9896 319.662 92.8829L322.029 86.3928C322.371 85.4538 321.983 84.7739 321.413 84.3364C320.347 83.5172 320.076 81.7987 320.734 79.9958C321.784 77.1159 325.083 74.351 328.102 73.8203C331.121 73.2896 332.718 75.194 331.667 78.0739C331.001 79.9006 329.322 81.978 327.441 83.3108ZM325.714 76.8835L324.319 77.1288L323.567 79.19L322.835 79.3187L322.489 80.2663L323.221 80.1376L323.172 80.2728L322.439 80.4016L322.094 81.3491L322.827 81.2203L322.391 82.4161L323.573 82.2082L324.878 78.629L325.927 79.8805L328.095 78.0636L326.79 81.6428L327.972 81.4349L328.408 80.2393L329.142 80.1103L329.488 79.1627L328.754 79.2917L328.803 79.1564L329.537 79.0274L329.882 78.0798L329.149 78.2088L329.9 76.1477L328.505 76.393L326.624 77.9693L325.714 76.8835Z" fill="#F5F5F5"/>
<path fill-rule="evenodd" clip-rule="evenodd" d="M224.786 93.9295C219.667 79.8902 203.585 66.412 188.867 63.8249C181.706 62.5662 176.188 64.1175 172.998 67.6595C172.821 67.8555 172.652 68.0576 172.49 68.2656C169.56 72.0254 168.997 77.7303 171.488 84.5609C174.048 91.5805 179.348 98.4599 185.848 103.908C192.348 109.356 200.048 113.372 207.407 114.665C214.432 115.9 219.877 114.431 223.092 111.03C223.398 110.707 223.683 110.366 223.948 110.009C226.734 106.249 227.23 100.631 224.786 93.9295Z" fill="#B3B4E1"/>
<path d="M223.948 110.009C226.734 106.249 227.23 100.631 224.786 93.9295L230.825 101.804L223.948 110.009Z" fill="#B3B4E1"/>
<path d="M188.867 63.8249C181.706 62.5662 176.188 64.1175 172.998 67.6595L179.614 59.7649L188.867 63.8249Z" fill="#B3B4E1"/>
<path d="M171.488 84.5614L176.1 79.0579M207.407 114.666L212.019 109.162M185.848 103.908L189.802 99.1899" stroke="#7679CA"/>
<circle r="24.8489" transform="matrix(-0.9849 -0.173123 0.342593 0.939484 205.088 80.9515)" fill="#8588CF"/>
<circle r="21.9091" transform="matrix(-0.9849 -0.173123 0.342593 0.939484 203.2 83.2044)" fill="#C2C3E7"/>
<path fill-rule="evenodd" clip-rule="evenodd" d="M197.331 59.6818C209.646 61.8465 223.102 73.1242 227.386 84.8713C231.67 96.6185 225.159 104.387 212.844 102.222C200.529 100.057 187.073 88.7794 182.789 77.0323C178.506 65.2852 185.016 57.5171 197.331 59.6818ZM231.737 85.6361C226.617 71.5969 210.536 58.1186 195.818 55.5315C181.1 52.9445 173.319 62.2283 178.438 76.2675C183.558 90.3068 199.64 103.785 214.357 106.372C229.075 108.959 236.856 99.6754 231.737 85.6361Z" fill="#B3B4E1"/>
<path fill-rule="evenodd" clip-rule="evenodd" d="M200.823 78.7232C202.066 79.6039 203.294 80.7524 203.723 81.9287L205.303 86.2596C205.706 87.3649 205.093 88.0958 203.935 87.8921L203.661 87.8441C202.985 87.7251 202.627 88.152 202.862 88.7976L203.08 89.3947C203.195 89.7105 203.557 90.0137 203.888 90.0719L206.034 90.4491C206.504 90.5317 207.018 90.9621 207.181 91.4104C207.344 91.8587 207.096 92.1552 206.626 92.0726L204.48 91.6953C204.149 91.6371 203.974 91.846 204.089 92.1617L204.307 92.7589C204.542 93.4045 205.282 94.0242 205.958 94.1432L207.198 94.3611C209.921 94.8398 211.361 93.1222 210.414 90.5248L207.496 82.523C207.073 81.3653 207.553 80.5271 208.255 79.9878C209.569 78.9777 209.903 76.859 209.093 74.6361C207.798 71.0854 203.731 67.6766 200.008 67.0223C196.285 66.3679 194.317 68.7159 195.612 72.2665C196.434 74.5188 198.504 77.0801 200.823 78.7232ZM202.951 70.799L204.672 71.1015L205.598 73.6423L206.502 73.8013L206.928 74.9695L206.024 74.8106L206.085 74.9777L206.989 75.1366L207.415 76.3049L206.511 76.1459L207.049 77.6202L205.591 77.3639L203.981 72.9511L202.688 74.494L200.016 72.254L201.625 76.6668L200.167 76.4105L199.629 74.9364L198.725 74.7775L198.299 73.6093L199.203 73.7682L199.142 73.6013L198.238 73.4424L197.812 72.2741L198.716 72.433L197.79 69.8918L199.51 70.1942L201.829 72.1377L202.951 70.799Z" fill="#F5F5F5"/>
<path fill-rule="evenodd" clip-rule="evenodd" d="M280.685 51.3523C288.928 52.4449 298.185 59.5607 301.362 67.2458C302.907 70.9849 302.728 74.1699 301.187 76.329C301.102 76.4484 301.013 76.5648 300.919 76.6779C299.229 78.722 296.197 79.7141 292.186 79.1825C288.065 78.6362 283.689 76.5841 279.948 73.708C276.206 70.8318 273.097 67.1316 271.509 63.289C269.993 59.6207 270.137 56.4858 271.598 54.3296C271.736 54.1247 271.887 53.9287 272.049 53.7419C273.757 51.7758 276.75 50.8307 280.685 51.3523Z" fill="#B3B4E1"/>
<path d="M272.049 53.7419C273.757 51.7758 276.75 50.8307 280.685 51.3523L275.68 49.0184L272.049 53.7419Z" fill="#B3B4E1"/>
<path d="M301.362 67.2458C302.907 70.9849 302.728 74.1699 301.187 76.329L304.68 71.7844L301.362 67.2458Z" fill="#B3B4E1"/>
<path d="M292.186 79.1829L294.621 76.0148M271.509 63.2894L273.944 60.1212M279.947 73.7083L282.035 70.9921" stroke="#7679CA" stroke-width="0.75"/>
<circle r="13.8275" transform="matrix(0.381943 0.924186 -0.99133 -0.131396 290.105 60.4936)" fill="#8588CF"/>
<circle r="12.1916" transform="matrix(0.381943 0.924186 -0.99133 -0.131396 289.108 61.7904)" fill="#C2C3E7"/>
<path fill-rule="evenodd" clip-rule="evenodd" d="M302.593 62.1488C299.936 55.7184 292.19 49.7644 285.292 48.8501C278.395 47.9359 274.957 52.4076 277.615 58.838C280.273 65.2684 288.018 71.2224 294.916 72.1367C301.814 73.0509 305.251 68.5792 302.593 62.1488ZM284.353 46.5783C292.597 47.6709 301.854 54.7867 305.03 62.4718C308.206 70.1569 304.098 75.5012 295.855 74.4085C287.612 73.3159 278.354 66.2001 275.178 58.515C272.002 50.8299 276.11 45.4856 284.353 46.5783Z" fill="#B3B4E1"/>
<path fill-rule="evenodd" clip-rule="evenodd" d="M291.829 62.5427C291.201 61.9732 290.43 61.4442 289.739 61.3527L287.196 61.0156C286.547 60.9296 286.224 61.3503 286.474 61.9553L286.533 62.0979C286.679 62.4513 286.49 62.6971 286.111 62.6468L285.76 62.6004C285.575 62.5758 285.366 62.4157 285.295 62.2429L284.832 61.1223C284.73 60.8769 284.435 60.6496 284.172 60.6147C283.908 60.5799 283.777 60.7505 283.879 60.9959L284.342 62.1165C284.413 62.2894 284.321 62.4096 284.135 62.385L283.785 62.3385C283.406 62.2883 282.98 61.9611 282.834 61.6077L282.566 60.9603C281.979 59.5385 282.739 58.5498 284.264 58.7519L288.962 59.3747C289.642 59.4648 290.04 59.1036 290.248 58.6574C290.639 57.8218 291.75 57.3852 293.055 57.5582C295.14 57.8346 297.481 59.6343 298.285 61.5781C299.088 63.5218 298.049 64.8735 295.964 64.5972C294.642 64.4219 293.001 63.6052 291.829 62.5427ZM295.879 60.4335L295.508 59.5352L294.015 59.3373L293.82 58.8652L293.134 58.7742L293.329 59.2464L293.231 59.2334L293.036 58.7614L292.35 58.6704L292.545 59.1424L291.68 59.0278L291.995 59.7891L294.586 60.1326L293.903 61.0208L295.441 62.2034L292.85 61.8599L293.165 62.6212L294.03 62.7359L294.225 63.208L294.911 63.2989L294.716 62.8268L294.813 62.8397L295.008 63.3118L295.694 63.4027L295.499 62.9306L296.993 63.1286L296.621 62.2302L295.286 61.2041L295.879 60.4335Z" fill="#F5F5F5"/>
<path fill-rule="evenodd" clip-rule="evenodd" d="M230.752 14.1329C222.65 12.2597 211.483 15.6694 205.81 21.7487C203.049 24.7065 202.098 27.7514 202.782 30.3141C202.819 30.4559 202.862 30.5963 202.91 30.735C203.774 33.2427 206.264 35.2367 210.206 36.1481C214.257 37.0848 219.074 36.7006 223.588 35.3225C228.102 33.9443 232.312 31.572 235.149 28.5324C237.857 25.6305 238.824 22.645 238.214 20.1131C238.156 19.8725 238.084 19.6361 237.997 19.4042C237.089 16.9633 234.619 15.0271 230.752 14.1329Z" fill="#B3B4E1"/>
<path d="M237.997 19.4042C237.089 16.9633 234.619 15.0271 230.752 14.1329L236.258 13.7061L237.997 19.4042Z" fill="#B3B4E1"/>
<path d="M205.81 21.7487C203.049 24.7065 202.098 27.7514 202.782 30.3141L201.108 24.832L205.81 21.7487Z" fill="#B3B4E1"/>
<path d="M210.206 36.1487L209.039 32.3269M235.148 28.5329L233.981 24.7112M223.588 35.323L222.587 32.0465" stroke="#7679CA" stroke-width="0.75"/>
<circle r="13.8275" transform="matrix(-0.682293 0.731079 0.974296 0.22527 218.72 19.3822)" fill="#8588CF"/>
<circle r="12.1916" transform="matrix(-0.682293 0.731079 0.974296 0.22527 219.198 20.9466)" fill="#C2C3E7"/>
<path fill-rule="evenodd" clip-rule="evenodd" d="M206.446 16.5438C211.193 11.457 220.537 8.60398 227.316 10.1714C234.095 11.7388 235.742 17.1331 230.995 22.2199C226.248 27.3067 216.904 30.1597 210.124 28.5923C203.345 27.0249 201.698 21.6306 206.446 16.5438ZM228.993 8.37424C220.892 6.50099 209.724 9.91069 204.051 15.99C198.377 22.0693 200.345 28.5162 208.447 30.3894C216.549 32.2627 227.716 28.853 233.39 22.7736C239.064 16.6943 237.095 10.2475 228.993 8.37424Z" fill="#B3B4E1"/>
<path fill-rule="evenodd" clip-rule="evenodd" d="M216.386 20.6944C217.174 20.3819 218.083 20.1578 218.761 20.3147L221.261 20.8926C221.899 21.0401 222.054 21.5476 221.607 22.0262L221.502 22.139C221.241 22.4186 221.331 22.715 221.704 22.8011L222.048 22.8808C222.231 22.923 222.482 22.8463 222.609 22.7095L223.437 21.8231C223.618 21.6289 223.974 21.52 224.233 21.5799C224.492 21.6397 224.555 21.8455 224.374 22.0397L223.546 22.9261C223.419 23.0629 223.463 23.2079 223.645 23.25L223.99 23.3297C224.362 23.4158 224.876 23.259 225.137 22.9795L225.615 22.4674C226.664 21.3427 226.3 20.1499 224.801 19.8034L220.184 18.7357C219.515 18.5812 219.27 18.1034 219.231 17.6123C219.159 16.6927 218.273 15.8937 216.99 15.5971C214.941 15.1233 212.116 15.9857 210.681 17.5234C209.246 19.061 209.744 20.6915 211.793 21.1653C213.093 21.4658 214.916 21.2775 216.386 20.6944ZM213.336 17.2968L213.999 16.5862L215.465 16.9252L215.814 16.5517L216.488 16.7076L216.14 17.0811L216.236 17.1033L216.584 16.7299L217.258 16.8857L216.91 17.2592L217.761 17.456L217.199 18.0582L214.652 17.4694L214.979 18.5408L213.124 19.1075L215.67 19.6963L215.108 20.2985L214.257 20.1018L213.908 20.4752L213.234 20.3193L213.583 19.9459L213.487 19.9237L213.138 20.297L212.464 20.1412L212.813 19.7678L211.346 19.4288L212.009 18.7181L213.62 18.2264L213.336 17.2968Z" fill="#F5F5F5"/>
<path fill-rule="evenodd" clip-rule="evenodd" d="M241.583 43.4967C235.972 44.9565 230.174 50.6705 228.633 56.2592C227.883 58.9784 228.278 61.1669 229.529 62.5293C229.598 62.6047 229.67 62.6776 229.744 62.7479C231.088 64.018 233.271 64.4456 236.001 63.7354C238.806 63.0055 241.658 61.2121 244.002 58.9025C246.345 56.593 248.18 53.7673 248.951 50.9729C249.687 48.3052 249.32 46.1483 248.125 44.7811C248.011 44.6512 247.89 44.5284 247.762 44.413C246.412 43.1984 244.261 42.7999 241.583 43.4967Z" fill="#B3B4E1"/>
<path d="M247.762 44.413C246.412 43.1984 244.261 42.7999 241.583 43.4967L244.847 41.4546L247.762 44.413Z" fill="#B3B4E1"/>
<path d="M228.633 56.2592C227.883 58.9784 228.278 61.1669 229.529 62.5293L226.724 59.683L228.633 56.2592Z" fill="#B3B4E1"/>
<path d="M236 63.7354L234.044 61.7512M248.95 50.9729L246.994 48.9887M244.001 58.9025L242.324 57.2014" stroke="#7679CA" stroke-width="0.5"/>
<circle r="9.64031" transform="matrix(-0.2659 0.964001 0.96778 -0.251797 235.845 50.6256)" fill="#8588CF"/>
<circle r="8.4998" transform="matrix(-0.2659 0.964001 0.96778 -0.251797 236.645 51.4374)" fill="#C2C3E7"/>
<path fill-rule="evenodd" clip-rule="evenodd" d="M227.344 52.8372C228.634 48.1609 233.485 43.3798 238.18 42.1584C242.875 40.9369 245.635 43.7376 244.345 48.4139C243.055 53.0903 238.204 57.8713 233.509 59.0928C228.814 60.3142 226.054 57.5135 227.344 52.8372ZM238.636 40.5062C233.025 41.966 227.227 47.68 225.685 53.2688C224.144 58.8575 227.443 62.2047 233.053 60.7449C238.664 59.2851 244.462 53.5712 246.003 47.9824C247.545 42.3937 244.246 39.0465 238.636 40.5062Z" fill="#B3B4E1"/>
<path fill-rule="evenodd" clip-rule="evenodd" d="M234.529 52.509C235.134 51.9077 235.842 51.2742 236.516 51.0988L237.902 50.7382C238.343 50.6233 238.603 50.8868 238.482 51.3268L238.453 51.4305C238.382 51.6875 238.534 51.8414 238.792 51.7743L239.03 51.7122C239.157 51.6794 239.287 51.5508 239.322 51.4251L239.547 50.6102C239.596 50.4317 239.781 50.2493 239.96 50.2027C240.139 50.156 240.245 50.2629 240.195 50.4414L239.971 51.2563C239.936 51.382 240.01 51.4573 240.136 51.4245L240.375 51.3624C240.633 51.2953 240.9 51.0325 240.97 50.7755L241.1 50.3048C241.385 49.2708 240.775 48.6515 239.737 48.9216L236.878 49.6656C236.214 49.8382 235.776 49.5165 235.434 49.1733C235.037 48.7761 234.326 48.6449 233.552 48.8462C232.133 49.2154 230.667 50.6605 230.277 52.0741C229.887 53.4876 230.721 54.3342 232.14 53.965C232.923 53.7613 233.832 53.2011 234.529 52.509ZM231.843 51.0764L232.023 50.4231L233.038 50.159L233.133 49.8153L233.6 49.6938L233.505 50.0376L233.572 50.0201L233.667 49.6766L234.134 49.5551L234.039 49.8986L234.628 49.7453L234.476 50.2989L232.712 50.7577L233.26 51.314L232.297 52.2637L234.06 51.8048L233.908 52.3585L233.318 52.5119L233.223 52.8549L232.756 52.9764L232.851 52.6334L232.785 52.6506L232.69 52.9936L232.223 53.1151L232.318 52.772L231.302 53.0363L231.483 52.383L232.319 51.559L231.843 51.0764Z" fill="#F5F5F5"/>
<path fill-rule="evenodd" clip-rule="evenodd" d="M274.719 99.8483C276.157 94.4831 281.672 88.9682 287.037 87.5303C289.648 86.8308 291.742 87.2252 293.038 88.4327C293.11 88.4995 293.179 88.5688 293.246 88.6406C294.454 89.9371 294.848 92.0311 294.149 94.6415C293.43 97.3241 291.691 100.044 289.462 102.273C287.233 104.502 284.513 106.241 281.831 106.96C279.27 107.646 277.206 107.279 275.904 106.125C275.78 106.015 275.664 105.898 275.554 105.775C274.4 104.473 274.033 102.409 274.719 99.8483Z" fill="#B3B4E1"/>
<path d="M275.554 105.775C274.4 104.473 274.033 102.409 274.719 99.8483L272.74 102.961L275.554 105.775Z" fill="#B3B4E1"/>
<path d="M287.037 87.5303C289.648 86.8308 291.742 87.2252 293.038 88.4327L290.331 85.7253L287.037 87.5303Z" fill="#B3B4E1"/>
<path d="M294.149 94.6424L292.261 92.755M281.831 106.96L279.943 105.073M289.462 102.274L287.844 100.656" stroke="#7679CA" stroke-width="0.5"/>
<circle r="9.23637" transform="matrix(0.965916 -0.258856 -0.258856 0.965916 281.59 94.4008)" fill="#8588CF"/>
<circle r="8.14365" transform="matrix(0.965916 -0.258856 -0.258856 0.965916 282.363 95.1741)" fill="#C2C3E7"/>
<path fill-rule="evenodd" clip-rule="evenodd" d="M283.768 86.2727C279.279 87.4758 274.665 92.0903 273.462 96.5796C272.258 101.069 274.922 103.733 279.412 102.53C283.901 101.327 288.516 96.7121 289.719 92.2229C290.922 87.7336 288.258 85.0696 283.768 86.2727ZM271.876 97.0046C273.313 91.6394 278.828 86.1245 284.194 84.6866C289.559 83.2488 292.743 86.4326 291.305 91.7978C289.867 97.163 284.352 102.678 278.987 104.116C273.621 105.554 270.438 102.37 271.876 97.0046Z" fill="#B3B4E1"/>
<path fill-rule="evenodd" clip-rule="evenodd" d="M283.097 93.4359C282.665 93.8026 282.248 94.2679 282.128 94.7174L281.684 96.3725C281.571 96.7949 281.822 97.0455 282.244 96.9323L282.344 96.9057C282.59 96.8396 282.737 96.986 282.671 97.2327L282.609 97.4609C282.577 97.5815 282.453 97.7056 282.332 97.7379L281.55 97.9476C281.379 97.9935 281.203 98.1696 281.157 98.3409C281.111 98.5123 281.212 98.6139 281.384 98.568L282.166 98.3584C282.287 98.326 282.358 98.3976 282.326 98.5183L282.265 98.7465C282.199 98.9932 281.945 99.2468 281.698 99.3129L281.247 99.434C280.254 99.7001 279.665 99.111 279.931 98.1184L280.75 95.0605C280.869 94.618 280.664 94.3233 280.387 94.1465C279.867 93.8154 279.674 93.0418 279.902 92.1923C280.266 90.8353 281.66 89.4405 283.017 89.0769C284.374 88.7132 285.18 89.5184 284.816 90.8753C284.585 91.736 283.902 92.7519 283.097 93.4359ZM282.05 90.5714L281.423 90.7395L281.163 91.7108L280.834 91.7989L280.714 92.2454L281.043 92.1572L281.026 92.221L280.697 92.3092L280.577 92.7557L280.907 92.6674L280.756 93.2307L281.287 93.0883L281.739 91.4019L282.268 91.931L283.185 91.0144L282.733 92.7008L283.264 92.5584L283.415 91.9951L283.745 91.9066L283.865 91.4602L283.535 91.5486L283.552 91.485L283.882 91.3965L284.002 90.9501L283.672 91.0386L283.932 90.0672L283.305 90.2353L282.509 91.0305L282.05 90.5714Z" fill="#F5F5F5"/>
<path d="M298.519 478.914C298.528 478.163 299.029 477.413 300.023 476.839L310.955 470.528H298.519V478.914Z" fill="#8D90D2"/>
<path fill-rule="evenodd" clip-rule="evenodd" d="M347.15 461.589C347.963 461.12 349.21 461.028 350.263 461.294C360.056 463.766 373.423 461.849 381.352 457.272C386.291 454.421 388.825 450.707 388.956 446.971C388.963 446.768 388.963 446.565 388.956 446.362C388.867 443.81 387.656 441.268 385.322 439.004C384.24 437.954 382.916 436.963 381.351 436.06C371.204 430.202 354.753 430.201 344.607 436.059C342.136 437.485 340.108 439.219 338.618 441.1C337.12 442.992 336.165 445.032 335.849 447.06C335.486 449.396 335.971 451.715 337.452 453.768C337.886 454.371 337.719 455.077 336.92 455.538L310.955 470.528L300.023 476.839C299.029 477.413 298.528 478.163 298.519 478.914C298.509 479.68 299.01 480.448 300.023 481.032L314.734 489.525C315.737 490.104 317.363 490.104 318.366 489.525L321.597 487.66C322.068 487.388 322.293 487.028 322.272 486.671C322.253 486.345 322.028 486.022 321.597 485.773L315.747 482.396C314.466 481.657 314.466 480.458 315.747 479.718C316.464 479.304 317.43 479.122 318.366 479.171L322.272 478.285V480.807L326.236 483.095C327.138 483.616 328.601 483.616 329.504 483.095L332.735 481.23C333.24 480.938 333.491 480.555 333.487 480.172C333.483 479.796 333.232 479.421 332.735 479.134L327.289 475.99C325.885 475.179 325.885 473.865 327.289 473.055L329.487 471.786L347.15 461.589ZM362.147 436.464L366.836 439.171V444.585H376.216L380.905 447.293L373.644 451.485L376.108 452.907L372.77 454.835L370.306 453.412L369.829 453.687L372.293 455.11L368.954 457.037L366.49 455.615L362.278 458.047L358.303 455.752L370.913 448.473H360.103L360.103 442.232L347.493 449.512L343.519 447.217L347.732 444.785L345.268 443.363L348.606 441.436L351.07 442.858L351.547 442.583L349.083 441.16L352.421 439.233L354.885 440.656L362.147 436.464Z" fill="#8D90D2"/>
<path d="M315.747 479.718C314.466 480.458 314.466 481.657 315.747 482.396L321.597 485.773C322.028 486.022 322.253 486.345 322.272 486.671V480.807L320.386 479.718C319.822 479.392 319.103 479.21 318.366 479.171C317.43 479.122 316.464 479.304 315.747 479.718Z" fill="#8D90D2"/>
<path d="M318.366 479.171C319.103 479.21 319.822 479.392 320.386 479.718L322.272 480.807V478.285L318.366 479.171Z" fill="#8D90D2"/>
<path d="M327.289 473.055C325.885 473.865 325.885 475.179 327.289 475.99L332.735 479.134C333.232 479.421 333.483 479.796 333.487 480.172V471.786H329.487L327.289 473.055Z" fill="#8D90D2"/>
<path d="M362.147 436.464L366.836 439.171V444.585H376.216L380.905 447.293L373.644 451.485L376.108 452.907L372.77 454.835L370.306 453.412L369.829 453.687L372.293 455.11L368.954 457.037L366.49 455.615L362.278 458.047L358.303 455.752L370.913 448.473H360.103L360.103 442.232L347.493 449.512L343.519 447.217L347.732 444.785L345.268 443.363L348.606 441.436L351.07 442.858L351.547 442.583L349.083 441.16L352.421 439.233L354.885 440.656L362.147 436.464Z" fill="#8D90D2"/>
<path d="M335.849 441.1V447.06C336.165 445.032 337.12 442.992 338.618 441.1H335.849Z" fill="#8D90D2"/>
<path d="M388.956 446.362V439.004H385.322C387.656 441.268 388.867 443.81 388.956 446.362Z" fill="#8D90D2"/>
<path d="M362.208 428.001L366.897 430.708V436.123H376.277L380.966 438.83L373.705 443.022L376.169 444.445L372.83 446.372L370.366 444.95L369.889 445.225L372.354 446.647L369.015 448.575L366.551 447.152L362.338 449.584L358.364 447.29L370.974 440.01L360.164 440.01L360.164 433.769L347.554 441.049L343.58 438.755L347.793 436.323L345.329 434.9L348.667 432.973L351.131 434.396L351.608 434.12L349.144 432.698L352.482 430.771L354.946 432.193L362.208 428.001Z" fill="#6769CB"/>
<path d="M362.208 429.678L366.897 432.385V437.8H376.277L380.966 440.507L373.705 444.699L376.169 446.122L372.83 448.049L370.366 446.626L369.889 446.902L372.354 448.324L369.015 450.251L366.551 448.829L362.338 451.261L358.364 448.967L370.974 441.687L360.164 441.687L360.164 435.446L347.554 442.726L343.58 440.432L347.793 438L345.329 436.577L348.667 434.65L351.131 436.072L351.608 435.797L349.144 434.375L352.482 432.447L354.946 433.87L362.208 429.678Z" fill="#8D90D2"/>
<path fill-rule="evenodd" clip-rule="evenodd" d="M350.323 452.831C349.27 452.566 348.023 452.657 347.21 453.126L327.349 464.592C325.945 465.402 325.945 466.716 327.349 467.527L332.795 470.671C333.797 471.25 333.797 472.188 332.795 472.767L329.564 474.632C328.661 475.153 327.198 475.153 326.296 474.632L320.446 471.255C319.165 470.516 317.088 470.516 315.807 471.255C314.526 471.995 314.526 473.194 315.807 473.933L321.657 477.31C322.559 477.831 322.559 478.676 321.657 479.197L318.426 481.062C317.423 481.641 315.797 481.641 314.794 481.062L300.083 472.569C298.077 471.411 298.077 469.534 300.083 468.376L336.98 447.076C337.779 446.614 337.946 445.908 337.512 445.305C333.467 439.697 336.851 432.108 344.667 427.596C354.813 421.739 371.264 421.739 381.411 427.597C391.558 433.454 391.558 442.952 381.412 448.809C373.483 453.386 360.116 455.303 350.323 452.831ZM366.896 430.708L362.207 428.001L354.945 432.193L352.481 430.77L349.143 432.697L351.607 434.12L351.13 434.395L348.666 432.973L345.328 434.9L347.792 436.322L343.579 438.754L347.553 441.049L360.163 433.769L360.163 440.01L370.973 440.01L358.363 447.289L362.338 449.584L366.55 447.152L369.014 448.574L372.353 446.647L369.889 445.225L370.366 444.949L372.83 446.372L376.168 444.444L373.704 443.022L380.965 438.83L376.276 436.123H366.896V430.708Z" fill="#D1D2EE"/>
</g>
<defs>
<linearGradient id="paint0_linear_39_1209" x1="353.844" y1="268.504" x2="638.901" y2="263.816" gradientUnits="userSpaceOnUse">
<stop stop-color="#D1D2EE"/>
<stop offset="0.447917" stop-color="#C2C3E7"/>
<stop offset="0.515625" stop-color="#B3B4E1"/>
<stop offset="1" stop-color="#D1D2EE"/>
</linearGradient>
<linearGradient id="paint1_linear_39_1209" x1="353.844" y1="268.504" x2="638.901" y2="263.816" gradientUnits="userSpaceOnUse">
<stop stop-color="#D1D2EE"/>
<stop offset="0.447917" stop-color="#C2C3E7"/>
<stop offset="0.515625" stop-color="#B3B4E1"/>
<stop offset="1" stop-color="#D1D2EE"/>
</linearGradient>
<linearGradient id="paint2_linear_39_1209" x1="353.844" y1="268.504" x2="638.901" y2="263.816" gradientUnits="userSpaceOnUse">
<stop stop-color="#D1D2EE"/>
<stop offset="0.447917" stop-color="#C2C3E7"/>
<stop offset="0.515625" stop-color="#B3B4E1"/>
<stop offset="1" stop-color="#D1D2EE"/>
</linearGradient>
<linearGradient id="paint3_linear_39_1209" x1="430.162" y1="252.098" x2="554.673" y2="252.098" gradientUnits="userSpaceOnUse">
<stop stop-color="#C2C3E7"/>
<stop offset="0.465621" stop-color="#B3B4E1"/>
<stop offset="0.598958" stop-color="#6769CB"/>
<stop offset="1" stop-color="#8D90D2"/>
</linearGradient>
<linearGradient id="paint4_linear_39_1209" x1="430.162" y1="252.098" x2="554.673" y2="252.098" gradientUnits="userSpaceOnUse">
<stop stop-color="#C2C3E7"/>
<stop offset="0.465621" stop-color="#B3B4E1"/>
<stop offset="0.598958" stop-color="#6769CB"/>
<stop offset="1" stop-color="#8D90D2"/>
</linearGradient>
<linearGradient id="paint5_linear_39_1209" x1="430.162" y1="252.098" x2="554.673" y2="252.098" gradientUnits="userSpaceOnUse">
<stop stop-color="#C2C3E7"/>
<stop offset="0.465621" stop-color="#B3B4E1"/>
<stop offset="0.598958" stop-color="#6769CB"/>
<stop offset="1" stop-color="#8D90D2"/>
</linearGradient>
<linearGradient id="paint6_linear_39_1209" x1="475.455" y1="225.892" x2="475.444" y2="83.2788" gradientUnits="userSpaceOnUse">
<stop stop-color="#585AC6"/>
<stop offset="0.796875" stop-color="#C2C3E7"/>
<stop offset="0.916667" stop-color="#6769CB"/>
</linearGradient>
<linearGradient id="paint7_linear_39_1209" x1="475.455" y1="225.892" x2="475.444" y2="83.2788" gradientUnits="userSpaceOnUse">
<stop stop-color="#585AC6"/>
<stop offset="0.796875" stop-color="#C2C3E7"/>
<stop offset="0.916667" stop-color="#6769CB"/>
</linearGradient>
<linearGradient id="paint8_linear_39_1209" x1="475.455" y1="225.892" x2="475.444" y2="83.2788" gradientUnits="userSpaceOnUse">
<stop stop-color="#585AC6"/>
<stop offset="0.796875" stop-color="#C2C3E7"/>
<stop offset="0.916667" stop-color="#6769CB"/>
</linearGradient>
<linearGradient id="paint9_linear_39_1209" x1="485.41" y1="221.276" x2="441.234" y2="108.802" gradientUnits="userSpaceOnUse">
<stop stop-color="#7DEEEE"/>
<stop offset="1" stop-color="#E2FFFF"/>
</linearGradient>
<linearGradient id="paint10_linear_39_1209" x1="533.872" y1="79.247" x2="533.902" y2="144.04" gradientUnits="userSpaceOnUse">
<stop stop-color="#D5CBF2" stop-opacity="0"/>
<stop offset="1" stop-color="#D5CBF2"/>
</linearGradient>
<linearGradient id="paint11_linear_39_1209" x1="461.509" y1="106.493" x2="461.539" y2="171.286" gradientUnits="userSpaceOnUse">
<stop stop-color="#D5CBF2" stop-opacity="0"/>
<stop offset="1" stop-color="#D5CBF2"/>
</linearGradient>
<linearGradient id="paint12_linear_39_1209" x1="528.892" y1="156.298" x2="528.922" y2="221.09" gradientUnits="userSpaceOnUse">
<stop stop-color="#D5CBF2" stop-opacity="0"/>
<stop offset="1" stop-color="#D5CBF2"/>
</linearGradient>
<linearGradient id="paint13_linear_39_1209" x1="487.877" y1="179.734" x2="487.906" y2="244.527" gradientUnits="userSpaceOnUse">
<stop stop-color="#D5CBF2" stop-opacity="0"/>
<stop offset="1" stop-color="#D5CBF2"/>
</linearGradient>
<linearGradient id="paint14_linear_39_1209" x1="507.505" y1="123.192" x2="507.535" y2="187.985" gradientUnits="userSpaceOnUse">
<stop stop-color="#D5CBF2" stop-opacity="0"/>
<stop offset="1" stop-color="#D5CBF2"/>
</linearGradient>
<linearGradient id="paint15_linear_39_1209" x1="496.6" y1="299.448" x2="496.172" y2="111.204" gradientUnits="userSpaceOnUse">
<stop stop-color="#D5CBF2"/>
<stop offset="1" stop-color="#D5CBF2" stop-opacity="0"/>
</linearGradient>
<linearGradient id="paint16_linear_39_1209" x1="496.6" y1="299.448" x2="496.172" y2="111.204" gradientUnits="userSpaceOnUse">
<stop stop-color="#D5CBF2"/>
<stop offset="1" stop-color="#D5CBF2" stop-opacity="0"/>
</linearGradient>
<linearGradient id="paint17_linear_39_1209" x1="489.989" y1="272.204" x2="309.57" y2="350.857" gradientUnits="userSpaceOnUse">
<stop stop-color="#C0F7F7"/>
<stop offset="1" stop-color="#26E2E2"/>
</linearGradient>
<linearGradient id="paint18_linear_39_1209" x1="8.9767" y1="323.274" x2="400.203" y2="549.401" gradientUnits="userSpaceOnUse">
<stop stop-color="#B3B4E1"/>
<stop offset="0.791667" stop-color="#B3B4E1"/>
<stop offset="0.84375" stop-color="#585AC6"/>
<stop offset="1" stop-color="#B3B4E1"/>
</linearGradient>
<linearGradient id="paint19_linear_39_1209" x1="8.9767" y1="323.274" x2="400.203" y2="549.401" gradientUnits="userSpaceOnUse">
<stop stop-color="#B3B4E1"/>
<stop offset="0.791667" stop-color="#B3B4E1"/>
<stop offset="0.84375" stop-color="#585AC6"/>
<stop offset="1" stop-color="#B3B4E1"/>
</linearGradient>
<linearGradient id="paint20_linear_39_1209" x1="8.9767" y1="323.274" x2="400.203" y2="549.401" gradientUnits="userSpaceOnUse">
<stop stop-color="#B3B4E1"/>
<stop offset="0.791667" stop-color="#B3B4E1"/>
<stop offset="0.84375" stop-color="#585AC6"/>
<stop offset="1" stop-color="#B3B4E1"/>
</linearGradient>
<linearGradient id="paint21_linear_39_1209" x1="139.013" y1="-17.218" x2="74.694" y2="385.037" gradientUnits="userSpaceOnUse">
<stop stop-color="#FCFCFC"/>
<stop offset="1" stop-color="#FCFCFC"/>
</linearGradient>
<linearGradient id="paint22_linear_39_1209" x1="310.415" y1="580.486" x2="468.99" y2="305.872" gradientUnits="userSpaceOnUse">
<stop stop-color="#D1D2EE" stop-opacity="0.8"/>
<stop offset="0.679837" stop-color="#D5CBF2" stop-opacity="0"/>
</linearGradient>
<linearGradient id="paint23_linear_39_1209" x1="545.207" y1="496.307" x2="556.831" y2="160.534" gradientUnits="userSpaceOnUse">
<stop stop-color="#D1D2EE" stop-opacity="0.8"/>
<stop offset="0.594221" stop-color="#D1D2EE" stop-opacity="0"/>
</linearGradient>
<linearGradient id="paint24_linear_39_1209" x1="310.415" y1="580.486" x2="468.99" y2="305.872" gradientUnits="userSpaceOnUse">
<stop stop-color="#D1D2EE" stop-opacity="0.8"/>
<stop offset="0.679837" stop-color="#D5CBF2" stop-opacity="0"/>
</linearGradient>
<linearGradient id="paint25_linear_39_1209" x1="545.207" y1="496.307" x2="556.831" y2="160.534" gradientUnits="userSpaceOnUse">
<stop stop-color="#D1D2EE" stop-opacity="0.8"/>
<stop offset="0.594221" stop-color="#D1D2EE" stop-opacity="0"/>
</linearGradient>
<linearGradient id="paint26_linear_39_1209" x1="310.415" y1="580.486" x2="468.99" y2="305.872" gradientUnits="userSpaceOnUse">
<stop stop-color="#D1D2EE" stop-opacity="0.8"/>
<stop offset="0.679837" stop-color="#D5CBF2" stop-opacity="0"/>
</linearGradient>
<linearGradient id="paint27_linear_39_1209" x1="545.207" y1="496.307" x2="556.831" y2="160.534" gradientUnits="userSpaceOnUse">
<stop stop-color="#D1D2EE" stop-opacity="0.8"/>
<stop offset="0.594221" stop-color="#D1D2EE" stop-opacity="0"/>
</linearGradient>
<linearGradient id="paint28_linear_39_1209" x1="310.415" y1="580.486" x2="468.99" y2="305.872" gradientUnits="userSpaceOnUse">
<stop stop-color="#D1D2EE" stop-opacity="0.8"/>
<stop offset="0.679837" stop-color="#D5CBF2" stop-opacity="0"/>
</linearGradient>
<linearGradient id="paint29_linear_39_1209" x1="545.207" y1="496.307" x2="556.831" y2="160.534" gradientUnits="userSpaceOnUse">
<stop stop-color="#D1D2EE" stop-opacity="0.8"/>
<stop offset="0.594221" stop-color="#D1D2EE" stop-opacity="0"/>
</linearGradient>
<linearGradient id="paint30_linear_39_1209" x1="453.836" y1="273.259" x2="52.6913" y2="260.123" gradientUnits="userSpaceOnUse">
<stop stop-color="#C2C3E7"/>
<stop offset="0.432292" stop-color="#6769CB"/>
<stop offset="0.552083" stop-color="#8D90D2"/>
<stop offset="1" stop-color="#C2C3E7"/>
</linearGradient>
<linearGradient id="paint31_linear_39_1209" x1="453.836" y1="273.259" x2="52.6913" y2="260.123" gradientUnits="userSpaceOnUse">
<stop stop-color="#C2C3E7"/>
<stop offset="0.432292" stop-color="#6769CB"/>
<stop offset="0.552083" stop-color="#8D90D2"/>
<stop offset="1" stop-color="#C2C3E7"/>
</linearGradient>
<linearGradient id="paint32_linear_39_1209" x1="453.836" y1="273.259" x2="52.6913" y2="260.123" gradientUnits="userSpaceOnUse">
<stop stop-color="#C2C3E7"/>
<stop offset="0.432292" stop-color="#6769CB"/>
<stop offset="0.552083" stop-color="#8D90D2"/>
<stop offset="1" stop-color="#C2C3E7"/>
</linearGradient>
<linearGradient id="paint33_linear_39_1209" x1="413.451" y1="256.298" x2="419.169" y2="443.431" gradientUnits="userSpaceOnUse">
<stop stop-color="#9694FF" stop-opacity="0"/>
<stop offset="1" stop-color="#9694FF"/>
</linearGradient>
<linearGradient id="paint34_linear_39_1209" x1="413.451" y1="256.298" x2="419.169" y2="443.431" gradientUnits="userSpaceOnUse">
<stop stop-color="#9694FF" stop-opacity="0"/>
<stop offset="1" stop-color="#9694FF"/>
</linearGradient>
<linearGradient id="paint35_linear_39_1209" x1="75.0775" y1="245.431" x2="121.171" y2="325.253" gradientUnits="userSpaceOnUse">
<stop stop-color="#9694FF" stop-opacity="0"/>
<stop offset="1" stop-color="#9694FF"/>
</linearGradient>
<linearGradient id="paint36_linear_39_1209" x1="75.0775" y1="245.431" x2="121.171" y2="325.253" gradientUnits="userSpaceOnUse">
<stop stop-color="#9694FF" stop-opacity="0"/>
<stop offset="1" stop-color="#9694FF"/>
</linearGradient>
<linearGradient id="paint37_linear_39_1209" x1="251.197" y1="498.408" x2="251.197" y2="73.7361" gradientUnits="userSpaceOnUse">
<stop stop-color="#D5CBF2"/>
<stop offset="1" stop-color="#D5CBF2" stop-opacity="0"/>
</linearGradient>
<linearGradient id="paint38_linear_39_1209" x1="251.197" y1="498.408" x2="251.197" y2="73.7361" gradientUnits="userSpaceOnUse">
<stop stop-color="#D5CBF2"/>
<stop offset="1" stop-color="#D5CBF2" stop-opacity="0"/>
</linearGradient>
<clipPath id="clip0_39_1209">
<rect width="635" height="520" fill="white"/>
</clipPath>
</defs>
</svg>
