<svg width="51" height="51" viewBox="0 0 51 51" fill="none" xmlns="http://www.w3.org/2000/svg">
<rect width="51" height="51" rx="25.5" fill="white"/>
<path d="M17.34 24.5C16.7877 24.5 16.34 24.9477 16.34 25.5C16.34 26.0523 16.7877 26.5 17.34 26.5V24.5ZM34.3671 26.2071C34.7576 25.8166 34.7576 25.1834 34.3671 24.7929L28.0031 18.4289C27.6126 18.0384 26.9794 18.0384 26.5889 18.4289C26.1984 18.8195 26.1984 19.4526 26.5889 19.8431L32.2458 25.5L26.5889 31.1569C26.1984 31.5474 26.1984 32.1805 26.5889 32.5711C26.9794 32.9616 27.6126 32.9616 28.0031 32.5711L34.3671 26.2071ZM17.34 26.5H33.66V24.5H17.34V26.5Z" fill="#7D7FCE"/>
</svg>
