<svg width="54" height="194" viewBox="0 0 54 194" fill="none" xmlns="http://www.w3.org/2000/svg">
<path d="M53.7305 77.6402L53.7305 193.54L0.287204 193.54L0.312472 77.6147L1.72819 75.6322L22.1803 63.5081C25.037 61.6781 28.6774 61.6781 31.5088 63.4827L52.3148 75.6068L53.7305 77.6402Z" fill="url(#paint0_linear_105_80)"/>
<path d="M22.5582 81.4814C25.0163 80.0623 29.0017 80.0623 31.4598 81.4814L46.9539 90.4261L52.0844 93.388C53.2305 94.0496 53.8423 94.903 53.9196 95.7693C54.0081 96.7609 53.3964 97.7695 52.0844 98.5269L31.4598 110.433C29.0017 111.853 25.0163 111.853 22.5582 110.433L1.93356 98.5269C0.621587 97.7695 0.00985323 96.7609 0.0983651 95.7693C0.175689 94.903 0.787422 94.0496 1.93356 93.388L7.06407 90.4261L22.5582 81.4814Z" fill="url(#paint1_linear_105_80)"/>
<path d="M0.0983651 95.7693C0.175689 94.903 0.787422 94.0496 1.93356 93.388L7.06407 90.4261L0.0983646 90.4261L0.0983651 95.7693Z" fill="url(#paint2_linear_105_80)"/>
<path d="M52.0844 93.388C53.2305 94.0496 53.8423 94.903 53.9196 95.7693L53.9196 90.4261L46.9539 90.4261L52.0844 93.388Z" fill="url(#paint3_linear_105_80)"/>
<rect width="34.0932" height="34.0932" rx="17.0466" transform="matrix(0.866044 0.499967 -0.866044 0.499967 26.9881 73.084)" fill="#E6F3FA"/>
<path d="M22.5582 75.1591C25.0163 73.74 29.0017 73.74 31.4598 75.1591L46.9539 84.1039L52.0844 87.0657C53.2305 87.7274 53.8423 88.5807 53.9196 89.447C54.0081 90.4386 53.3964 91.4472 52.0844 92.2046L31.4598 104.111C29.0017 105.53 25.0163 105.53 22.5582 104.111L1.93356 92.2046C0.621587 91.4472 0.00985323 90.4386 0.0983651 89.447C0.175689 88.5807 0.787422 87.7274 1.93356 87.0657L7.06407 84.1039L22.5582 75.1591Z" fill="url(#paint4_linear_105_80)"/>
<path d="M0.0983651 89.447C0.175689 88.5807 0.787422 87.7274 1.93356 87.0657L7.06407 84.1039L0.0983646 84.1039L0.0983651 89.447Z" fill="url(#paint5_linear_105_80)"/>
<path d="M52.0844 87.0657C53.2305 87.7274 53.8423 88.5807 53.9196 89.447L53.9196 84.1039L46.9539 84.1039L52.0844 87.0657Z" fill="url(#paint6_linear_105_80)"/>
<rect width="34.0932" height="34.0932" rx="17.0466" transform="matrix(0.866044 0.499967 -0.866044 0.499967 26.9881 66.7627)" fill="#7AAFE1"/>
<path d="M22.5583 68.8378C25.0164 67.4188 29.0018 67.4188 31.4599 68.8378L46.954 77.7826L52.0845 80.7444C53.2307 81.4061 53.8424 82.2594 53.9197 83.1257C54.0082 84.1174 53.3965 85.1259 52.0845 85.8833L31.4599 97.7899C29.0018 99.209 25.0164 99.209 22.5583 97.7899L1.93369 85.8833C0.621709 85.1259 0.0099753 84.1174 0.0984871 83.1257C0.175811 82.2594 0.787544 81.4061 1.93369 80.7444L7.06419 77.7826L22.5583 68.8378Z" fill="url(#paint7_linear_105_80)"/>
<path d="M0.0984871 83.1257C0.175811 82.2594 0.787544 81.4061 1.93369 80.7444L7.06419 77.7826L0.0984867 77.7826L0.0984871 83.1257Z" fill="url(#paint8_linear_105_80)"/>
<path d="M52.0845 80.7444C53.2307 81.4061 53.8424 82.2594 53.9197 83.1257L53.9197 77.7826L46.954 77.7826L52.0845 80.7444Z" fill="url(#paint9_linear_105_80)"/>
<path d="M22.6578 62.9412C25.0493 61.5606 28.9267 61.5606 31.3182 62.9412L51.6644 74.6871C54.3429 76.2334 54.3429 78.7404 51.6644 80.2867L31.3182 92.0326C28.9267 93.4132 25.0493 93.4132 22.6578 92.0326L2.31159 80.2867C-0.366911 78.7404 -0.36691 76.2334 2.31159 74.6871L22.6578 62.9412Z" fill="#E6F3FA"/>
<path d="M22.6016 61.6039C25.0473 60.192 29.0126 60.192 31.4583 61.604L51.9787 73.4504C53.1521 74.1278 53.7625 75.0071 53.81 75.8946C53.8615 76.8569 53.2511 77.8288 51.9787 78.5634L31.4583 90.4098C29.0126 91.8217 25.0473 91.8217 22.6016 90.4098L2.0812 78.5634C0.808858 77.8288 0.198414 76.8569 0.249907 75.8946C0.297394 75.0071 0.90782 74.1278 2.08118 73.4504L22.6016 61.6039Z" fill="url(#paint10_linear_105_80)"/>
<path d="M31.4583 61.604L51.9787 73.4504C53.1521 74.1278 53.7625 75.0071 53.81 75.8946L53.8099 0L0.24985 1.0009e-06L0.249907 75.8946C0.297394 75.0071 0.90782 74.1278 2.08118 73.4504L22.6016 61.6039C25.0473 60.192 29.0126 60.192 31.4583 61.604Z" fill="url(#paint11_linear_105_80)"/>
<defs>
<linearGradient id="paint0_linear_105_80" x1="27.0028" y1="37.6466" x2="27.0028" y2="177.537" gradientUnits="userSpaceOnUse">
<stop offset="0.00867083" stop-color="white" stop-opacity="0.2"/>
<stop offset="1" stop-color="white" stop-opacity="0"/>
</linearGradient>
<linearGradient id="paint1_linear_105_80" x1="57.4941" y1="101.129" x2="-2.94262" y2="100.135" gradientUnits="userSpaceOnUse">
<stop stop-color="#E1F0F9"/>
<stop offset="0.447917" stop-color="#E1F0F9"/>
<stop offset="0.515625" stop-color="#CFE6F2"/>
<stop offset="1" stop-color="#CFE6F2"/>
</linearGradient>
<linearGradient id="paint2_linear_105_80" x1="57.4941" y1="101.129" x2="-2.94262" y2="100.135" gradientUnits="userSpaceOnUse">
<stop stop-color="#E1F0F9"/>
<stop offset="0.447917" stop-color="#E1F0F9"/>
<stop offset="0.515625" stop-color="#CFE6F2"/>
<stop offset="1" stop-color="#CFE6F2"/>
</linearGradient>
<linearGradient id="paint3_linear_105_80" x1="57.4941" y1="101.129" x2="-2.94262" y2="100.135" gradientUnits="userSpaceOnUse">
<stop stop-color="#E1F0F9"/>
<stop offset="0.447917" stop-color="#E1F0F9"/>
<stop offset="0.515625" stop-color="#CFE6F2"/>
<stop offset="1" stop-color="#CFE6F2"/>
</linearGradient>
<linearGradient id="paint4_linear_105_80" x1="61.6709" y1="100.585" x2="-2.29639" y2="100.585" gradientUnits="userSpaceOnUse">
<stop stop-color="#75ABDD"/>
<stop offset="0.465621" stop-color="#75ABDD"/>
<stop offset="0.570301" stop-color="#5C9AE2"/>
<stop offset="1" stop-color="#5C9AE2"/>
</linearGradient>
<linearGradient id="paint5_linear_105_80" x1="61.6709" y1="100.585" x2="-2.29639" y2="100.585" gradientUnits="userSpaceOnUse">
<stop stop-color="#75ABDD"/>
<stop offset="0.465621" stop-color="#75ABDD"/>
<stop offset="0.570301" stop-color="#5C9AE2"/>
<stop offset="1" stop-color="#5C9AE2"/>
</linearGradient>
<linearGradient id="paint6_linear_105_80" x1="61.6709" y1="100.585" x2="-2.29639" y2="100.585" gradientUnits="userSpaceOnUse">
<stop stop-color="#75ABDD"/>
<stop offset="0.465621" stop-color="#75ABDD"/>
<stop offset="0.570301" stop-color="#5C9AE2"/>
<stop offset="1" stop-color="#5C9AE2"/>
</linearGradient>
<linearGradient id="paint7_linear_105_80" x1="57.4942" y1="88.4851" x2="-2.9425" y2="87.4912" gradientUnits="userSpaceOnUse">
<stop stop-color="#E1F0F9"/>
<stop offset="0.447917" stop-color="#E1F0F9"/>
<stop offset="0.515625" stop-color="#CFE6F2"/>
<stop offset="1" stop-color="#CFE6F2"/>
</linearGradient>
<linearGradient id="paint8_linear_105_80" x1="57.4942" y1="88.4851" x2="-2.9425" y2="87.4912" gradientUnits="userSpaceOnUse">
<stop stop-color="#E1F0F9"/>
<stop offset="0.447917" stop-color="#E1F0F9"/>
<stop offset="0.515625" stop-color="#CFE6F2"/>
<stop offset="1" stop-color="#CFE6F2"/>
</linearGradient>
<linearGradient id="paint9_linear_105_80" x1="57.4942" y1="88.4851" x2="-2.9425" y2="87.4912" gradientUnits="userSpaceOnUse">
<stop stop-color="#E1F0F9"/>
<stop offset="0.447917" stop-color="#E1F0F9"/>
<stop offset="0.515625" stop-color="#CFE6F2"/>
<stop offset="1" stop-color="#CFE6F2"/>
</linearGradient>
<linearGradient id="paint10_linear_105_80" x1="27.5586" y1="116.788" x2="28.363" y2="6.74367" gradientUnits="userSpaceOnUse">
<stop stop-color="white" stop-opacity="0.5"/>
<stop offset="1" stop-color="white" stop-opacity="0"/>
</linearGradient>
<linearGradient id="paint11_linear_105_80" x1="27.5586" y1="116.788" x2="28.363" y2="6.74367" gradientUnits="userSpaceOnUse">
<stop stop-color="white" stop-opacity="0.5"/>
<stop offset="1" stop-color="white" stop-opacity="0"/>
</linearGradient>
</defs>
</svg>
