<svg width="635" height="496" viewBox="0 0 635 496" fill="none" xmlns="http://www.w3.org/2000/svg">
<g clip-path="url(#clip0_39_1068)">
<rect opacity="0.2" width="239.33" height="164.968" rx="20" transform="matrix(0.866025 0.5 0 1 338.379 0)" fill="url(#paint0_linear_39_1068)"/>
<rect opacity="0.4" width="239.33" height="164.968" rx="20" transform="matrix(0.866025 0.5 0 1 319.392 16.877)" fill="url(#paint1_linear_39_1068)"/>
<rect opacity="0.1" width="92.3263" height="63.6399" rx="20" transform="matrix(0.866025 0.5 0 1 555.043 129.956)" fill="url(#paint2_linear_39_1068)"/>
<rect width="241.834" height="164.968" rx="20" transform="matrix(0.866025 0.5 0 1 301.975 33.2822)" fill="url(#paint3_linear_39_1068)"/>
<rect opacity="0.4" width="92.3263" height="63.6399" rx="20" transform="matrix(0.866025 0.5 0 1 539.01 144.091)" fill="url(#paint4_linear_39_1068)"/>
<rect width="239.33" height="164.968" rx="20" transform="matrix(0.866025 0.5 0 1 299.772 36.0752)" fill="url(#paint5_linear_39_1068)"/>
<rect width="94.6714" height="64.74" rx="20" transform="matrix(0.866025 0.5 0 1 524.803 155.858)" fill="url(#paint6_linear_39_1068)"/>
<rect width="92.3263" height="63.6399" rx="20" transform="matrix(0.866025 0.5 0 1 522.976 159.07)" fill="url(#paint7_linear_39_1068)"/>
<g opacity="0.35">
<rect width="5.32801" height="11.988" rx="2.664" transform="matrix(0.859406 0.511293 0 1 536.984 201.579)" fill="url(#paint8_linear_39_1068)"/>
<rect width="5.32801" height="13.32" rx="2.664" transform="matrix(0.859406 0.511293 0 1 550.721 208.42)" fill="url(#paint9_linear_39_1068)"/>
<rect width="5.32801" height="16.2504" rx="2.664" transform="matrix(0.859406 0.511293 0 1 543.853 201.403)" fill="url(#paint10_linear_39_1068)"/>
<rect width="5.32801" height="18.9144" rx="2.664" transform="matrix(0.859406 0.511293 0 1 557.59 206.912)" fill="url(#paint11_linear_39_1068)"/>
<rect width="5.32801" height="21.5784" rx="2.664" transform="matrix(0.859406 0.511293 0 1 564.458 208.334)" fill="url(#paint12_linear_39_1068)"/>
<rect width="5.32801" height="27.1729" rx="2.664" transform="matrix(0.859406 0.511293 0 1 571.326 206.825)" fill="url(#paint13_linear_39_1068)"/>
<rect width="5.32801" height="24.7753" rx="2.664" transform="matrix(0.859406 0.511293 0 1 578.195 213.31)" fill="url(#paint14_linear_39_1068)"/>
<rect width="5.32801" height="32.7673" rx="2.664" transform="matrix(0.859406 0.511293 0 1 585.063 209.403)" fill="url(#paint15_linear_39_1068)"/>
</g>
<rect width="5.32801" height="11.988" rx="2.664" transform="matrix(0.859406 0.511293 0 1 534.79 202.52)" fill="url(#paint16_linear_39_1068)"/>
<rect width="5.32801" height="13.32" rx="2.664" transform="matrix(0.859406 0.511293 0 1 548.527 209.36)" fill="url(#paint17_linear_39_1068)"/>
<rect width="5.32801" height="16.2504" rx="2.664" transform="matrix(0.859406 0.511293 0 1 541.659 202.344)" fill="url(#paint18_linear_39_1068)"/>
<rect width="5.32801" height="18.9144" rx="2.664" transform="matrix(0.859406 0.511293 0 1 555.396 207.853)" fill="url(#paint19_linear_39_1068)"/>
<rect width="5.32801" height="21.5784" rx="2.664" transform="matrix(0.859406 0.511293 0 1 562.264 209.274)" fill="url(#paint20_linear_39_1068)"/>
<rect width="5.32801" height="27.1729" rx="2.664" transform="matrix(0.859406 0.511293 0 1 569.132 207.767)" fill="url(#paint21_linear_39_1068)"/>
<rect width="5.32801" height="24.7753" rx="2.664" transform="matrix(0.859406 0.511293 0 1 576.001 214.25)" fill="url(#paint22_linear_39_1068)"/>
<rect width="5.32801" height="32.7673" rx="2.664" transform="matrix(0.859406 0.511293 0 1 582.869 210.344)" fill="url(#paint23_linear_39_1068)"/>
<rect width="101.233" height="126.129" rx="20" transform="matrix(0.866025 0.5 0 1 274.375 45.0527)" fill="url(#paint24_linear_39_1068)"/>
<g style="mix-blend-mode:multiply">
<rect width="128.589" height="10.7157" rx="5.35787" transform="matrix(0.859406 0.511293 0 1 379.399 128.601)" fill="#8D90D2" fill-opacity="0.4"/>
<rect width="33.8617" height="6.42944" rx="3.21472" transform="matrix(0.859406 0.511293 0 1 460.808 194.179)" fill="#8D90D2" fill-opacity="0.4"/>
<rect width="86.1545" height="6.42944" rx="3.21472" transform="matrix(0.859406 0.511293 0 1 379.399 145.745)" fill="#8D90D2" fill-opacity="0.4"/>
<rect width="33.8617" height="6.42944" rx="3.21472" transform="matrix(0.859406 0.511293 0 1 460.808 219.896)" fill="#8D90D2" fill-opacity="0.4"/>
<rect width="86.1545" height="6.42944" rx="3.21472" transform="matrix(0.859406 0.511293 0 1 379.399 171.463)" fill="#8D90D2" fill-opacity="0.4"/>
<rect width="33.8617" height="6.42944" rx="3.21472" transform="matrix(0.859406 0.511293 0 1 460.808 241.328)" fill="#8D90D2" fill-opacity="0.4"/>
<rect width="86.1545" height="6.42944" rx="3.21472" transform="matrix(0.859406 0.511293 0 1 379.399 192.895)" fill="#8D90D2" fill-opacity="0.4"/>
<rect width="33.8617" height="6.42944" rx="3.21472" transform="matrix(0.859406 0.511293 0 1 460.808 207.038)" fill="#8D90D2" fill-opacity="0.4"/>
<rect width="86.1545" height="6.42944" rx="3.21472" transform="matrix(0.859406 0.511293 0 1 379.399 158.604)" fill="#8D90D2" fill-opacity="0.4"/>
</g>
<rect width="128.589" height="10.7157" rx="5.35787" transform="matrix(0.859406 0.511293 0 1 376.197 131.162)" fill="white"/>
<rect width="33.8617" height="6.42944" rx="3.21472" transform="matrix(0.859406 0.511293 0 1 457.607 196.74)" fill="white"/>
<rect width="86.1545" height="6.42944" rx="3.21472" transform="matrix(0.859406 0.511293 0 1 376.198 148.307)" fill="white"/>
<rect width="33.8617" height="6.42944" rx="3.21472" transform="matrix(0.859406 0.511293 0 1 457.607 222.458)" fill="white"/>
<rect width="86.1545" height="6.42944" rx="3.21472" transform="matrix(0.859406 0.511293 0 1 376.198 174.024)" fill="white"/>
<rect width="33.8617" height="6.42944" rx="3.21472" transform="matrix(0.859406 0.511293 0 1 457.607 243.89)" fill="white"/>
<rect width="86.1545" height="6.42944" rx="3.21472" transform="matrix(0.859406 0.511293 0 1 376.198 195.456)" fill="white"/>
<rect width="33.8617" height="6.42944" rx="3.21472" transform="matrix(0.859406 0.511293 0 1 457.607 209.6)" fill="white"/>
<rect width="86.1545" height="6.42944" rx="3.21472" transform="matrix(0.859406 0.511293 0 1 376.198 161.166)" fill="white"/>
<rect width="100.122" height="126.129" rx="20" transform="matrix(0.866025 0.5 0 1 272.346 46.624)" fill="url(#paint25_linear_39_1068)"/>
<g style="mix-blend-mode:multiply" opacity="0.2">
<circle r="29.0734" transform="matrix(0.866025 0.5 0 1 314.977 117.125)" stroke="#4C4EC1" stroke-width="3"/>
<path d="M312.735 86.8724C316.3 88.5627 319.892 91.1505 323.272 94.4633C326.651 97.7761 329.741 101.738 332.334 106.084C334.927 110.43 336.964 115.061 338.309 119.668C339.654 124.275 340.277 128.751 340.136 132.799" stroke="#4C4EC1" stroke-width="8"/>
</g>
<circle r="29.0734" transform="matrix(0.866025 0.5 0 1 310.458 120.236)" stroke="url(#paint26_linear_39_1068)" stroke-width="3"/>
<path d="M308.216 89.9837C311.781 91.674 315.373 94.2618 318.753 97.5746C322.132 100.887 325.222 104.849 327.815 109.195C330.408 113.541 332.445 118.172 333.79 122.779C335.135 127.386 335.758 131.863 335.617 135.911" stroke="url(#paint27_linear_39_1068)" stroke-width="8"/>
<g style="mix-blend-mode:multiply" opacity="0.35">
<rect width="66.6949" height="4.18253" rx="2.09126" transform="matrix(0.859406 0.511293 0 1 286.059 143.247)" fill="#B8B5E5"/>
<rect width="29.7213" height="2.50952" rx="1.25476" transform="matrix(0.859406 0.511293 0 1 317.834 168.844)" fill="#B8B5E5"/>
<rect width="33.6275" height="2.50952" rx="1.25476" transform="matrix(0.859406 0.511293 0 1 286.059 149.939)" fill="#B8B5E5"/>
<rect width="29.7213" height="2.50952" rx="1.25476" transform="matrix(0.859406 0.511293 0 1 317.834 178.882)" fill="#B8B5E5"/>
<rect width="33.6275" height="2.50952" rx="1.25476" transform="matrix(0.859406 0.511293 0 1 286.059 159.978)" fill="#B8B5E5"/>
<rect width="13.2168" height="2.50952" rx="1.25476" transform="matrix(0.859406 0.511293 0 1 317.834 187.247)" fill="#B8B5E5"/>
<rect width="33.6275" height="2.50952" rx="1.25476" transform="matrix(0.859406 0.511293 0 1 286.059 168.342)" fill="#B8B5E5"/>
<rect width="29.7213" height="2.50952" rx="1.25476" transform="matrix(0.859406 0.511293 0 1 317.834 173.862)" fill="#B8B5E5"/>
<rect width="33.6275" height="2.50952" rx="1.25476" transform="matrix(0.859406 0.511293 0 1 286.059 154.958)" fill="#B8B5E5"/>
</g>
<rect width="66.6949" height="4.18253" rx="2.09126" transform="matrix(0.859406 0.511293 0 1 284.582 144.513)" fill="white"/>
<rect width="29.7213" height="2.50952" rx="1.25476" transform="matrix(0.859406 0.511293 0 1 316.357 170.109)" fill="white"/>
<rect width="33.6275" height="2.50952" rx="1.25476" transform="matrix(0.859406 0.511293 0 1 284.582 151.204)" fill="white"/>
<rect width="29.7213" height="2.50952" rx="1.25476" transform="matrix(0.859406 0.511293 0 1 316.357 180.146)" fill="white"/>
<rect width="33.6275" height="2.50952" rx="1.25476" transform="matrix(0.859406 0.511293 0 1 284.582 161.243)" fill="white"/>
<rect width="13.2168" height="2.50952" rx="1.25476" transform="matrix(0.859406 0.511293 0 1 316.357 188.512)" fill="white"/>
<rect width="33.6275" height="2.50952" rx="1.25476" transform="matrix(0.859406 0.511293 0 1 284.582 169.607)" fill="white"/>
<rect width="29.7213" height="2.50952" rx="1.25476" transform="matrix(0.859406 0.511293 0 1 316.357 175.128)" fill="white"/>
<rect width="33.6275" height="2.50952" rx="1.25476" transform="matrix(0.859406 0.511293 0 1 284.582 156.224)" fill="white"/>
<path d="M464.048 324.153C467.402 322.216 472.841 322.216 476.196 324.153L504.342 340.401C506.001 341.359 506.839 342.611 506.857 343.866C506.858 343.894 506.858 343.922 506.857 343.95C506.839 345.205 506.001 346.457 504.342 347.414L476.196 363.663C472.841 365.6 467.402 365.6 464.048 363.663L435.901 347.414C434.243 346.457 433.404 345.205 433.386 343.95C433.385 343.922 433.385 343.894 433.386 343.866C433.404 342.611 434.243 341.359 435.901 340.401L464.048 324.153Z" fill="url(#paint28_linear_39_1068)"/>
<path d="M504.342 347.414L476.196 363.663C472.841 365.6 467.402 365.6 464.048 363.663L435.901 347.414C434.243 346.457 433.404 345.205 433.386 343.95V429.255L470.341 449.506L506.857 429.255V343.95C506.839 345.205 506.001 346.457 504.342 347.414Z" fill="url(#paint29_linear_39_1068)"/>
<path d="M444.309 335.547C458.565 327.317 481.678 327.317 495.934 335.547L503.487 339.908C507.314 342.117 507.314 345.698 503.487 347.907L478.782 362.169C473.999 364.931 466.244 364.931 461.461 362.169L436.756 347.907C432.93 345.698 432.93 342.117 436.756 339.908L444.309 335.547Z" fill="#D5CBF2" fill-opacity="0.4"/>
<path d="M208.195 74.4326C210.899 72.8714 215.284 72.8714 217.988 74.4326L240.679 87.532C242.016 88.304 242.692 89.3132 242.707 90.325C242.707 90.3476 242.707 90.3701 242.707 90.3927C242.692 91.4045 242.016 92.4137 240.679 93.1857L217.988 106.285C215.284 107.846 210.899 107.846 208.195 106.285L185.504 93.1857C184.167 92.4137 183.491 91.4045 183.476 90.3927C183.476 90.3701 183.476 90.3476 183.476 90.325C183.491 89.3132 184.167 88.304 185.504 87.532L208.195 74.4326Z" fill="url(#paint30_linear_39_1068)"/>
<path d="M240.679 93.1857L217.988 106.285C215.284 107.846 210.899 107.846 208.195 106.285L185.504 93.1857C184.167 92.4137 183.491 91.4045 183.476 90.3927V159.163L213.268 175.49L242.707 159.163V90.3927C242.692 91.4045 242.016 92.4137 240.679 93.1857Z" fill="url(#paint31_linear_39_1068)"/>
<path d="M190.808 84.4699C203.115 77.3651 223.068 77.3651 235.375 84.4699L240.379 87.3587C243.249 89.0155 243.249 91.7016 240.379 93.3583L220.02 105.112C216.193 107.321 209.99 107.321 206.163 105.112L185.804 93.3583C182.934 91.7016 182.934 89.0155 185.804 87.3587L190.808 84.4699Z" fill="#D5CBF2" fill-opacity="0.4"/>
<path d="M535.063 325.181C537.374 323.846 541.122 323.846 543.434 325.181L562.83 336.378C563.973 337.038 564.55 337.9 564.563 338.765C564.563 338.784 564.563 338.804 564.563 338.823C564.55 339.688 563.973 340.551 562.83 341.21L543.434 352.408C541.122 353.742 537.374 353.742 535.063 352.408L515.667 341.21C514.524 340.551 513.946 339.688 513.933 338.823C513.933 338.804 513.933 338.784 513.933 338.765C513.946 337.9 514.524 337.038 515.667 336.378L535.063 325.181Z" fill="url(#paint32_linear_39_1068)"/>
<path d="M562.83 341.21L543.434 352.408C541.122 353.742 537.374 353.742 535.063 352.408L515.667 341.21C514.524 340.551 513.946 339.688 513.933 338.823V397.607L539.399 411.563L564.563 397.607V338.823C564.55 339.688 563.973 340.551 562.83 341.21Z" fill="url(#paint33_linear_39_1068)"/>
<path d="M521.461 333.032C531.284 327.361 547.212 327.361 557.035 333.032L561.819 335.794C564.689 337.45 564.689 340.137 561.819 341.793L546.176 350.824C542.35 353.033 536.146 353.033 532.32 350.824L516.677 341.793C513.808 340.137 513.808 337.45 516.677 335.794L521.461 333.032Z" fill="#D5CBF2" fill-opacity="0.4"/>
<path d="M113.078 117.484C115.39 116.15 119.138 116.15 121.449 117.484L140.845 128.681C141.988 129.341 142.566 130.204 142.578 131.069C142.579 131.088 142.579 131.107 142.578 131.127C142.566 131.992 141.988 132.854 140.845 133.514L121.449 144.711C119.138 146.046 115.39 146.046 113.078 144.711L93.6823 133.514C92.5392 132.854 91.9614 131.992 91.9488 131.127C91.9485 131.107 91.9485 131.088 91.9488 131.069C91.9614 130.204 92.5392 129.341 93.6823 128.681L113.078 117.484Z" fill="url(#paint34_linear_39_1068)"/>
<path d="M140.845 133.514L121.449 144.711C119.138 146.046 115.39 146.046 113.078 144.711L93.6823 133.514C92.5392 132.854 91.9614 131.992 91.9488 131.127V189.911L117.415 203.866L142.578 189.911V131.127C142.566 131.992 141.988 132.854 140.845 133.514Z" fill="url(#paint35_linear_39_1068)"/>
<path d="M99.476 125.336C109.3 119.665 125.227 119.665 135.051 125.336L139.834 128.097C142.704 129.754 142.704 132.44 139.834 134.097L124.192 143.127C120.365 145.336 114.162 145.336 110.335 143.127L94.6928 134.097C91.823 132.44 91.823 129.754 94.6928 128.097L99.476 125.336Z" fill="#D5CBF2" fill-opacity="0.4"/>
<path d="M507.044 374.665C509.749 373.103 514.135 373.103 516.841 374.665L539.54 387.769C540.877 388.541 541.554 389.55 541.568 390.563C541.569 390.585 541.569 390.608 541.568 390.63C541.554 391.642 540.877 392.652 539.54 393.424L516.841 406.528C514.135 408.09 509.749 408.09 507.044 406.528L484.345 393.424C483.007 392.652 482.331 391.642 482.316 390.63C482.316 390.608 482.316 390.585 482.316 390.563C482.331 389.55 483.007 388.541 484.345 387.769L507.044 374.665Z" fill="url(#paint36_linear_39_1068)"/>
<path d="M539.54 393.424L516.841 406.528C514.135 408.09 509.749 408.09 507.044 406.528L484.345 393.424C483.007 392.652 482.331 391.642 482.316 390.63V459.426L512.119 475.758L541.568 459.426V390.63C541.554 391.642 540.877 392.652 539.54 393.424Z" fill="url(#paint37_linear_39_1068)"/>
<path d="M494.155 382.106C503.978 376.434 519.906 376.434 529.73 382.106L539.242 387.597C542.111 389.254 542.111 391.94 539.242 393.597L518.87 405.357C515.044 407.566 508.84 407.566 505.014 405.357L484.643 393.597C481.773 391.94 481.773 389.254 484.643 387.597L494.155 382.106Z" fill="#D5CBF2" fill-opacity="0.4"/>
<path d="M433.39 421.12C435.701 419.786 439.449 419.786 441.761 421.12L461.157 432.317C462.3 432.977 462.878 433.84 462.89 434.705C462.89 434.724 462.89 434.743 462.89 434.762C462.878 435.627 462.3 436.49 461.157 437.15L441.761 448.347C439.449 449.682 435.701 449.682 433.39 448.347L413.994 437.15C412.851 436.49 412.273 435.627 412.26 434.762C412.26 434.743 412.26 434.724 412.26 434.705C412.273 433.84 412.851 432.977 413.994 432.317L433.39 421.12Z" fill="url(#paint38_linear_39_1068)"/>
<path d="M461.157 437.15L441.761 448.347C439.449 449.682 435.701 449.682 433.39 448.347L413.994 437.15C412.851 436.49 412.273 435.627 412.26 434.762V493.547L437.726 507.502L462.89 493.547V434.762C462.878 435.627 462.3 436.49 461.157 437.15Z" fill="url(#paint39_linear_39_1068)"/>
<path d="M419.788 428.972C429.611 423.301 445.539 423.301 455.363 428.972L460.146 431.733C463.016 433.39 463.016 436.076 460.146 437.733L444.503 446.763C440.677 448.972 434.473 448.972 430.647 446.763L415.004 437.733C412.135 436.076 412.135 433.39 415.004 431.733L419.788 428.972Z" fill="#D5CBF2" fill-opacity="0.4"/>
<path d="M95.8597 49.5804C99.6068 47.4172 105.682 47.4172 109.429 49.5804L140.869 67.7306C142.722 68.8003 143.659 70.1986 143.679 71.6006C143.68 71.6318 143.68 71.6631 143.679 71.6943C143.659 73.0963 142.722 74.4946 140.869 75.5643L109.429 93.7145C105.682 95.8777 99.6068 95.8777 95.8597 93.7145L64.4199 75.5643C62.567 74.4946 61.6303 73.0963 61.6099 71.6943C61.6094 71.6631 61.6094 71.6318 61.6099 71.6006C61.6303 70.1986 62.567 68.8003 64.4199 67.7306L95.8597 49.5804Z" fill="url(#paint40_linear_39_1068)"/>
<path d="M140.869 75.5643L109.429 93.7145C105.682 95.8777 99.6068 95.8777 95.8597 93.7145L64.4199 75.5643C62.567 74.4946 61.6303 73.0963 61.6099 71.6943V166.982L102.889 189.603L143.679 166.982V71.6943C143.659 73.0963 142.722 74.4946 140.869 75.5643Z" fill="url(#paint41_linear_39_1068)"/>
<path d="M71.7684 63.4878C88.8208 53.6435 116.468 53.6435 133.521 63.4878L138.993 66.6473C143.776 69.4086 143.776 73.8854 138.993 76.6467L109.573 93.6311C105.746 95.8401 99.5425 95.8401 95.7161 93.6311L66.2956 76.6467C61.5125 73.8854 61.5125 69.4086 66.2956 66.6473L71.7684 63.4878Z" fill="#D5CBF2" fill-opacity="0.2"/>
<path d="M264.468 472.874C260.886 474.942 255.078 474.942 251.496 472.874L37.0519 349.075C35.2889 348.058 34.3936 346.729 34.3658 345.395C34.365 345.352 34.365 345.309 34.3658 345.267C34.3936 343.933 35.2889 342.604 37.0518 341.586L115.067 296.548L138.874 282.804C142.457 280.736 148.265 280.736 151.847 282.804L296.495 366.31L366.291 406.603C368.055 407.621 368.95 408.951 368.977 410.286C368.978 410.327 368.978 410.368 368.977 410.409C368.95 411.743 368.055 413.073 366.291 414.092L264.468 472.874Z" fill="#7FB3E3"/>
<path d="M264.468 472.874C260.886 474.942 255.078 474.942 251.496 472.874L37.0519 349.075C35.2889 348.058 34.3936 346.729 34.3658 345.395C34.365 345.352 34.365 345.309 34.3658 345.267C34.3936 343.933 35.2889 342.604 37.0518 341.586L115.067 296.548L138.874 282.804C142.457 280.736 148.265 280.736 151.847 282.804L296.495 366.31L366.291 406.603C368.055 407.621 368.95 408.951 368.977 410.286C368.978 410.327 368.978 410.368 368.977 410.409C368.95 411.743 368.055 413.073 366.291 414.092L264.468 472.874Z" fill="url(#paint42_linear_39_1068)"/>
<path d="M366.291 406.603C368.055 407.621 368.95 408.951 368.977 410.286V350.1L296.495 366.31L366.291 406.603Z" fill="#7FB3E3"/>
<path d="M366.291 406.603C368.055 407.621 368.95 408.951 368.977 410.286V350.1L296.495 366.31L366.291 406.603Z" fill="url(#paint43_linear_39_1068)"/>
<path d="M34.3658 345.267C34.3936 343.933 35.2889 342.604 37.0518 341.586L115.067 296.548L34.3658 285.086V345.267Z" fill="#7FB3E3"/>
<path d="M34.3658 345.267C34.3936 343.933 35.2889 342.604 37.0518 341.586L115.067 296.548L34.3658 285.086V345.267Z" fill="url(#paint44_linear_39_1068)"/>
<rect width="262.592" height="132.551" rx="7" transform="matrix(0.866044 0.499967 -0.866044 0.499967 145.361 218.751)" fill="url(#paint45_linear_39_1068)"/>
<path opacity="0.2" d="M259.069 284.395L201.671 317.53M315.923 317.216L258.525 350.352M144.274 350.666L201.671 317.53M201.128 383.488L258.525 350.352M201.671 317.53L258.525 350.352M315.38 383.174L258.525 350.352" stroke="#FCFCFC" stroke-width="2" stroke-dasharray="10 10"/>
<path d="M138.875 222.496C142.457 220.428 148.265 220.428 151.847 222.496L169.093 232.452L221.482 262.696C223.14 263.653 224.031 264.885 224.154 266.138C224.174 266.339 224.174 266.541 224.154 266.742C224.031 267.995 223.14 269.228 221.482 270.185L119.659 328.967C116.077 331.035 110.269 331.035 106.687 328.967L37.0521 288.767C35.4554 287.845 34.5704 286.668 34.3971 285.463C34.3549 285.17 34.3549 284.875 34.3971 284.581C34.5704 283.377 35.4554 282.199 37.0521 281.278L82.7771 254.881L138.875 222.496Z" fill="url(#paint46_linear_39_1068)"/>
<path d="M34.3971 284.581C34.5704 283.377 35.4554 282.199 37.0521 281.278L82.7771 254.881L34.3971 247.519L34.3971 284.581Z" fill="url(#paint47_linear_39_1068)"/>
<path d="M221.482 262.696C223.14 263.653 224.031 264.885 224.154 266.138L224.154 228.924L169.093 232.452L221.482 262.696Z" fill="url(#paint48_linear_39_1068)"/>
<rect width="95.3847" height="132.551" rx="7" transform="matrix(0.866044 0.499967 -0.866044 0.499967 145.361 181.059)" fill="#D1D2EE"/>
<path d="M135.32 197.387C138.902 195.319 144.71 195.319 148.292 197.387L195.956 224.903L199.683 227.055C201.47 228.086 202.365 229.438 202.369 230.79C202.369 230.796 202.369 230.802 202.369 230.808C202.365 232.16 201.47 233.512 199.683 234.544L177.866 247.139C174.283 249.207 168.475 249.207 164.893 247.139L113.503 217.471C111.875 216.531 110.987 215.327 110.839 214.098C110.809 213.851 110.809 213.602 110.839 213.355C110.987 212.126 111.875 210.921 113.503 209.982L117.255 207.816L135.32 197.387Z" fill="#8D90D2"/>
<path d="M110.839 213.355C110.987 212.126 111.875 210.921 113.503 209.982L117.255 207.816H110.839V213.355Z" fill="#8D90D2"/>
<path d="M199.683 227.055C201.47 228.086 202.365 229.438 202.369 230.79V224.903C200.185 224.876 195.844 224.838 195.956 224.903L199.683 227.055Z" fill="#8D90D2"/>
<path d="M91.6931 222.573C90.0334 223.531 89.1806 224.778 89.1345 226.034C89.0858 227.361 89.9386 228.697 91.6931 229.71L143.692 259.729C147.106 261.7 152.642 261.7 156.056 259.729C157.529 258.879 158.367 257.8 158.568 256.691C158.633 256.338 158.633 255.983 158.568 255.631C158.367 254.521 157.529 253.442 156.056 252.592L152.274 250.408L104.057 222.573C101.796 221.268 98.6066 220.827 95.7179 221.25C94.2432 221.465 92.847 221.906 91.6931 222.573Z" fill="#8D90D2"/>
<path d="M89.1345 226.034C89.1806 224.778 90.0334 223.531 91.6931 222.573C92.847 221.906 94.2432 221.465 95.7179 221.25L89.1345 220.38V226.034Z" fill="#8D90D2"/>
<path d="M156.056 252.592C157.529 253.442 158.367 254.521 158.568 255.631V250.408H152.274L156.056 252.592Z" fill="#8D90D2"/>
<path d="M72.774 233.495C75.8864 231.698 80.9326 231.698 84.0449 233.495L133.583 262.093L137.137 264.145C138.484 264.922 139.248 265.909 139.429 266.923C139.485 267.239 139.485 267.557 139.429 267.873C139.248 268.887 138.484 269.874 137.137 270.651C134.025 272.448 128.978 272.448 125.866 270.651L72.774 240.001C71.258 239.126 70.4804 237.986 70.4413 236.839C70.4392 236.778 70.4392 236.718 70.4413 236.657C70.4804 235.51 71.258 234.37 72.774 233.495Z" fill="#8D90D2"/>
<path d="M70.4413 236.657C70.4804 235.51 71.258 234.37 72.774 233.495L70.4413 230.683V236.657Z" fill="#8D90D2"/>
<path d="M137.137 264.145C138.484 264.922 139.248 265.909 139.429 266.923V261.339L133.583 262.093L137.137 264.145Z" fill="#8D90D2"/>
<rect width="74.3182" height="40.1706" rx="7" transform="matrix(0.866044 0.499967 -0.866044 0.499967 141.806 187.612)" fill="#F1F1FB"/>
<rect width="74.3182" height="14.2759" rx="7.13796" transform="matrix(0.866044 0.499967 0.866044 -0.499967 85.5115 220.111)" fill="#F1F1FB"/>
<rect width="74.3182" height="13.0142" rx="6.50712" transform="matrix(0.866044 0.499967 -0.866044 0.499967 78.4099 224.211)" fill="#F1F1FB"/>
<path opacity="0.1" d="M264.838 353.289L258.564 347.657L200.149 374.158L221.244 395.109L264.838 353.289Z" fill="url(#paint49_linear_39_1068)"/>
<path opacity="0.1" d="M220.392 352.336L216.328 348.06L173.374 362.523L186.906 378.286L220.392 352.336Z" fill="url(#paint50_linear_39_1068)"/>
<path d="M256.518 348.08C258.609 348.602 263.706 345.902 265.666 344.486C269.26 344.159 276.382 344.029 276.12 346.119C275.648 349.894 270.127 352.999 263.172 354.616C259.276 355.523 256.015 352.048 256.518 348.08Z" fill="url(#paint51_linear_39_1068)"/>
<path d="M213.068 344.486C215.943 346.577 219.057 345.357 220.255 344.486C220.582 344.813 221.627 345.466 223.195 345.466C225.156 345.466 230.294 344.159 230.294 346.119C230.294 348.08 226.789 353.633 214.375 354.613C210.193 354.875 211.761 347.971 213.068 344.486Z" fill="url(#paint52_linear_39_1068)"/>
<path d="M268.28 291.235C268.018 273.724 264.468 251.269 262.726 242.23C248.874 260.264 227.987 252.576 219.275 246.478C219.275 259.284 215.137 317.153 213.068 344.486C215.943 346.577 219.057 345.358 220.255 344.486C226.789 330.373 237.57 285.681 243.451 263.792L251.275 288.571C252.59 292.732 253.828 296.943 254.253 301.286C255.345 312.457 256.436 335.162 256.519 348.08C258.609 348.603 263.706 345.902 265.666 344.486C266.646 334.032 268.541 308.746 268.28 291.235Z" fill="url(#paint53_linear_39_1068)"/>
<path d="M275.14 200.74C270.959 198.91 265.122 199.978 262.726 200.74L268.659 209.475C271.192 213.204 276.304 214.105 279.959 211.467L286.901 206.457L299.643 196.493C302.692 196.82 308.529 196.101 307.483 190.612C308.79 189.523 310.489 187.345 306.83 187.345C305.414 186.583 300.949 185.516 297.029 189.959C293.109 194.402 282.545 200.74 277.427 203.027L275.14 200.74Z" fill="url(#paint54_linear_39_1068)"/>
<path d="M230.71 169.05C237.244 174.539 243.015 170.901 245.084 168.397V159.903C246.282 156.745 248.678 158.596 248.025 140.628C247.371 130.827 230.71 141.608 230.71 153.042V169.05Z" fill="url(#paint55_linear_39_1068)"/>
<path d="M250.965 136.707C256.453 134.355 248.025 131.589 243.124 130.5C220.255 127.233 219.602 151.735 231.036 160.883C240.184 168.201 242.906 158.814 243.124 152.715C243.124 149.122 241.341 149.691 242.144 144.875C243.124 138.994 244.104 139.647 250.965 136.707Z" fill="#6769CB"/>
<path d="M216.008 196.372C208.897 199.676 204.831 196.721 203.594 194.532C203.267 199.759 203.725 210.671 208.168 212.501C212.611 214.33 221.998 212.609 226.136 211.52V201.393H215.355C214.832 199.825 215.573 197.392 216.008 196.372Z" fill="url(#paint56_linear_39_1068)"/>
<path d="M262.726 242.23C248.874 260.264 227.987 252.575 219.275 246.477V194.532C210.128 200.543 205.01 197.037 203.594 194.532C203.855 172.317 221.78 168.288 230.71 169.05C237.244 174.538 243.015 170.901 245.084 168.396C246.064 168.614 249.854 169.311 257.172 170.357C264.49 171.402 272.2 191.047 275.14 200.739C270.959 198.91 265.122 199.977 262.726 200.739L258.479 196.492C261.354 206.947 262.508 231.34 262.726 242.23Z" fill="url(#paint57_linear_39_1068)"/>
<g style="mix-blend-mode:multiply" opacity="0.2">
<rect width="33.4332" height="36.2117" rx="16.7166" transform="matrix(0.866007 0.500033 -3.76461e-05 -1 297.512 127.129)" fill="#4C4EC1"/>
</g>
<path d="M294.669 112.149C294.67 121.381 301.151 132.608 309.147 137.224C317.142 141.841 323.623 138.099 323.623 128.867L323.623 126.088C323.622 116.856 317.141 105.629 309.145 101.013C301.15 96.3962 294.669 100.138 294.669 109.37L294.669 112.149Z" fill="url(#paint58_linear_39_1068)"/>
<g style="mix-blend-mode:multiply">
<path fill-rule="evenodd" clip-rule="evenodd" d="M307.283 117.353C307.635 117.742 307.897 118.277 307.897 118.724L307.898 125.319C307.898 125.871 307.51 126.095 307.032 125.819L305.782 125.097C305.304 124.821 304.916 125.045 304.916 125.597L304.916 125.944C304.916 126.496 305.304 127.167 305.782 127.444L307.192 128.258C307.582 128.483 307.898 129.03 307.898 129.48C307.898 129.93 307.582 130.112 307.192 129.887L305.782 129.073C305.304 128.797 304.916 129.021 304.916 129.573L304.916 129.919C304.916 130.472 305.304 131.143 305.782 131.419L310.182 133.959C310.66 134.235 311.048 134.012 311.048 133.459L311.047 120.494C311.047 120.053 311.3 119.82 311.645 119.83C313.625 119.887 315.009 117.889 315.009 115.238C315.009 111.674 312.506 107.341 309.42 105.559C306.334 103.777 303.832 105.221 303.832 108.785C303.832 111.474 305.257 115.121 307.283 117.353ZM310.808 109.855L312.234 110.679L312.235 113.229L312.984 113.662L312.984 114.834L312.235 114.402L312.235 114.569L312.984 115.002L312.984 116.174L312.235 115.742L312.235 117.221L311.026 116.523L311.026 112.095L309.382 113.044L307.738 110.196L307.738 114.625L306.529 113.927L306.529 112.447L305.78 112.015L305.78 110.842L306.529 111.275L306.529 111.108L305.78 110.675L305.78 109.502L306.529 109.935L306.529 107.385L307.955 108.208L309.382 110.679L310.808 109.855Z" fill="#6E71C6"/>
</g>
</g>
<defs>
<linearGradient id="paint0_linear_39_1068" x1="-22.4551" y1="121.56" x2="340.436" y2="175.319" gradientUnits="userSpaceOnUse">
<stop offset="0.0808852" stop-color="#D5CBF2"/>
<stop offset="1" stop-color="#D5CBF2" stop-opacity="0"/>
</linearGradient>
<linearGradient id="paint1_linear_39_1068" x1="-22.4551" y1="121.56" x2="340.436" y2="175.319" gradientUnits="userSpaceOnUse">
<stop stop-color="#D5CBF2"/>
<stop offset="1" stop-color="#D5CBF2" stop-opacity="0"/>
</linearGradient>
<linearGradient id="paint2_linear_39_1068" x1="-8.66251" y1="46.8941" x2="131.33" y2="67.6331" gradientUnits="userSpaceOnUse">
<stop stop-color="#D5CBF2"/>
<stop offset="1" stop-color="#D5CBF2" stop-opacity="0"/>
</linearGradient>
<linearGradient id="paint3_linear_39_1068" x1="-22.6901" y1="121.56" x2="343.833" y2="176.426" gradientUnits="userSpaceOnUse">
<stop stop-color="#B3B4E1"/>
<stop offset="1" stop-color="#6769CB"/>
</linearGradient>
<linearGradient id="paint4_linear_39_1068" x1="-8.66251" y1="46.8941" x2="131.33" y2="67.6331" gradientUnits="userSpaceOnUse">
<stop stop-color="#D5CBF2"/>
<stop offset="1" stop-color="#D5CBF2" stop-opacity="0"/>
</linearGradient>
<linearGradient id="paint5_linear_39_1068" x1="20.4709" y1="7.05035" x2="86.3538" y2="177.82" gradientUnits="userSpaceOnUse">
<stop stop-color="#D5CBF2"/>
<stop offset="1" stop-color="#D1D2EE"/>
</linearGradient>
<linearGradient id="paint6_linear_39_1068" x1="89.9847" y1="56.6807" x2="44.4322" y2="-14.521" gradientUnits="userSpaceOnUse">
<stop stop-color="#585AC6"/>
<stop offset="1" stop-color="#B0B2E0"/>
</linearGradient>
<linearGradient id="paint7_linear_39_1068" x1="46.1632" y1="-23.1347" x2="46.1632" y2="63.6399" gradientUnits="userSpaceOnUse">
<stop stop-color="#6769CB"/>
<stop offset="1" stop-color="#8D90D2"/>
</linearGradient>
<linearGradient id="paint8_linear_39_1068" x1="2.664" y1="0" x2="2.664" y2="11.988" gradientUnits="userSpaceOnUse">
<stop stop-color="#C0F7F7"/>
<stop offset="1" stop-color="#7DEEEE"/>
</linearGradient>
<linearGradient id="paint9_linear_39_1068" x1="2.664" y1="0" x2="2.664" y2="13.32" gradientUnits="userSpaceOnUse">
<stop stop-color="#C0F7F7"/>
<stop offset="1" stop-color="#7DEEEE"/>
</linearGradient>
<linearGradient id="paint10_linear_39_1068" x1="2.664" y1="0" x2="2.664" y2="16.2504" gradientUnits="userSpaceOnUse">
<stop stop-color="#C0F7F7"/>
<stop offset="1" stop-color="#7DEEEE"/>
</linearGradient>
<linearGradient id="paint11_linear_39_1068" x1="2.664" y1="0" x2="2.664" y2="18.9144" gradientUnits="userSpaceOnUse">
<stop stop-color="#C0F7F7"/>
<stop offset="1" stop-color="#7DEEEE"/>
</linearGradient>
<linearGradient id="paint12_linear_39_1068" x1="2.664" y1="0" x2="2.664" y2="21.5784" gradientUnits="userSpaceOnUse">
<stop stop-color="#C0F7F7"/>
<stop offset="1" stop-color="#7DEEEE"/>
</linearGradient>
<linearGradient id="paint13_linear_39_1068" x1="2.664" y1="0" x2="2.664" y2="27.1729" gradientUnits="userSpaceOnUse">
<stop stop-color="#C0F7F7"/>
<stop offset="1" stop-color="#7DEEEE"/>
</linearGradient>
<linearGradient id="paint14_linear_39_1068" x1="2.664" y1="0" x2="2.664" y2="24.7753" gradientUnits="userSpaceOnUse">
<stop stop-color="#C0F7F7"/>
<stop offset="1" stop-color="#7DEEEE"/>
</linearGradient>
<linearGradient id="paint15_linear_39_1068" x1="2.664" y1="0" x2="2.664" y2="32.7673" gradientUnits="userSpaceOnUse">
<stop stop-color="#C0F7F7"/>
<stop offset="1" stop-color="#7DEEEE"/>
</linearGradient>
<linearGradient id="paint16_linear_39_1068" x1="2.664" y1="0" x2="2.664" y2="11.988" gradientUnits="userSpaceOnUse">
<stop stop-color="#C0F7F7"/>
<stop offset="1" stop-color="#7DEEEE"/>
</linearGradient>
<linearGradient id="paint17_linear_39_1068" x1="2.664" y1="0" x2="2.664" y2="13.32" gradientUnits="userSpaceOnUse">
<stop stop-color="#C0F7F7"/>
<stop offset="1" stop-color="#7DEEEE"/>
</linearGradient>
<linearGradient id="paint18_linear_39_1068" x1="2.664" y1="0" x2="2.664" y2="16.2504" gradientUnits="userSpaceOnUse">
<stop stop-color="#C0F7F7"/>
<stop offset="1" stop-color="#7DEEEE"/>
</linearGradient>
<linearGradient id="paint19_linear_39_1068" x1="2.664" y1="0" x2="2.664" y2="18.9144" gradientUnits="userSpaceOnUse">
<stop stop-color="#C0F7F7"/>
<stop offset="1" stop-color="#7DEEEE"/>
</linearGradient>
<linearGradient id="paint20_linear_39_1068" x1="2.664" y1="0" x2="2.664" y2="21.5784" gradientUnits="userSpaceOnUse">
<stop stop-color="#C0F7F7"/>
<stop offset="1" stop-color="#7DEEEE"/>
</linearGradient>
<linearGradient id="paint21_linear_39_1068" x1="2.664" y1="0" x2="2.664" y2="27.1729" gradientUnits="userSpaceOnUse">
<stop stop-color="#C0F7F7"/>
<stop offset="1" stop-color="#7DEEEE"/>
</linearGradient>
<linearGradient id="paint22_linear_39_1068" x1="2.664" y1="0" x2="2.664" y2="24.7753" gradientUnits="userSpaceOnUse">
<stop stop-color="#C0F7F7"/>
<stop offset="1" stop-color="#7DEEEE"/>
</linearGradient>
<linearGradient id="paint23_linear_39_1068" x1="2.664" y1="0" x2="2.664" y2="32.7673" gradientUnits="userSpaceOnUse">
<stop stop-color="#C0F7F7"/>
<stop offset="1" stop-color="#7DEEEE"/>
</linearGradient>
<linearGradient id="paint24_linear_39_1068" x1="-21.3057" y1="127.623" x2="255.93" y2="97.2247" gradientUnits="userSpaceOnUse">
<stop stop-color="#C2C3E7"/>
<stop offset="0.592595" stop-color="#585AC6"/>
</linearGradient>
<linearGradient id="paint25_linear_39_1068" x1="50.0608" y1="-113.81" x2="50.0608" y2="126.129" gradientUnits="userSpaceOnUse">
<stop stop-color="#6769CB"/>
<stop offset="1" stop-color="#8D90D2"/>
</linearGradient>
<linearGradient id="paint26_linear_39_1068" x1="29.0734" y1="0" x2="29.0734" y2="58.1467" gradientUnits="userSpaceOnUse">
<stop stop-color="#7DEEEE"/>
</linearGradient>
<linearGradient id="paint27_linear_39_1068" x1="310.458" y1="91.1627" x2="285.28" y2="134.773" gradientUnits="userSpaceOnUse">
<stop stop-color="#7DEEEE"/>
</linearGradient>
<linearGradient id="paint28_linear_39_1068" x1="470.122" y1="322.694" x2="470.122" y2="425.617" gradientUnits="userSpaceOnUse">
<stop offset="0.0246111" stop-color="#D5CBF2"/>
<stop offset="1" stop-color="#F5F5F5" stop-opacity="0"/>
</linearGradient>
<linearGradient id="paint29_linear_39_1068" x1="470.122" y1="322.694" x2="470.122" y2="425.617" gradientUnits="userSpaceOnUse">
<stop offset="0.0246111" stop-color="#D5CBF2"/>
<stop offset="1" stop-color="#F5F5F5" stop-opacity="0"/>
</linearGradient>
<linearGradient id="paint30_linear_39_1068" x1="213.092" y1="73.2567" x2="213.092" y2="156.23" gradientUnits="userSpaceOnUse">
<stop offset="0.0246111" stop-color="#D5CBF2"/>
<stop offset="1" stop-color="#F5F5F5" stop-opacity="0"/>
</linearGradient>
<linearGradient id="paint31_linear_39_1068" x1="213.092" y1="73.2567" x2="213.092" y2="156.23" gradientUnits="userSpaceOnUse">
<stop offset="0.0246111" stop-color="#D5CBF2"/>
<stop offset="1" stop-color="#F5F5F5" stop-opacity="0"/>
</linearGradient>
<linearGradient id="paint32_linear_39_1068" x1="539.248" y1="324.175" x2="539.248" y2="395.1" gradientUnits="userSpaceOnUse">
<stop offset="0.0246111" stop-color="#D5CBF2"/>
<stop offset="1" stop-color="#F5F5F5" stop-opacity="0"/>
</linearGradient>
<linearGradient id="paint33_linear_39_1068" x1="539.248" y1="324.175" x2="539.248" y2="395.1" gradientUnits="userSpaceOnUse">
<stop offset="0.0246111" stop-color="#D5CBF2"/>
<stop offset="1" stop-color="#F5F5F5" stop-opacity="0"/>
</linearGradient>
<linearGradient id="paint34_linear_39_1068" x1="117.264" y1="116.479" x2="117.264" y2="187.404" gradientUnits="userSpaceOnUse">
<stop offset="0.0246111" stop-color="#D5CBF2"/>
<stop offset="1" stop-color="#F5F5F5" stop-opacity="0"/>
</linearGradient>
<linearGradient id="paint35_linear_39_1068" x1="117.264" y1="116.479" x2="117.264" y2="187.404" gradientUnits="userSpaceOnUse">
<stop offset="0.0246111" stop-color="#D5CBF2"/>
<stop offset="1" stop-color="#F5F5F5" stop-opacity="0"/>
</linearGradient>
<linearGradient id="paint36_linear_39_1068" x1="511.942" y1="373.488" x2="511.942" y2="456.492" gradientUnits="userSpaceOnUse">
<stop offset="0.0246111" stop-color="#D5CBF2"/>
<stop offset="1" stop-color="#F5F5F5" stop-opacity="0"/>
</linearGradient>
<linearGradient id="paint37_linear_39_1068" x1="511.942" y1="373.488" x2="511.942" y2="456.492" gradientUnits="userSpaceOnUse">
<stop offset="0.0246111" stop-color="#D5CBF2"/>
<stop offset="1" stop-color="#F5F5F5" stop-opacity="0"/>
</linearGradient>
<linearGradient id="paint38_linear_39_1068" x1="437.575" y1="420.115" x2="437.575" y2="491.04" gradientUnits="userSpaceOnUse">
<stop offset="0.0246111" stop-color="#D5CBF2"/>
<stop offset="1" stop-color="#F5F5F5" stop-opacity="0"/>
</linearGradient>
<linearGradient id="paint39_linear_39_1068" x1="437.575" y1="420.115" x2="437.575" y2="491.04" gradientUnits="userSpaceOnUse">
<stop offset="0.0246111" stop-color="#D5CBF2"/>
<stop offset="1" stop-color="#F5F5F5" stop-opacity="0"/>
</linearGradient>
<linearGradient id="paint40_linear_39_1068" x1="102.644" y1="47.9511" x2="102.644" y2="162.918" gradientUnits="userSpaceOnUse">
<stop offset="0.0246111" stop-color="#D5CBF2"/>
<stop offset="1" stop-color="#F5F5F5" stop-opacity="0"/>
</linearGradient>
<linearGradient id="paint41_linear_39_1068" x1="102.644" y1="47.9511" x2="102.644" y2="162.918" gradientUnits="userSpaceOnUse">
<stop offset="0.0246111" stop-color="#D5CBF2"/>
<stop offset="1" stop-color="#F5F5F5" stop-opacity="0"/>
</linearGradient>
<linearGradient id="paint42_linear_39_1068" x1="400.372" y1="332.083" x2="-140.023" y2="343.859" gradientUnits="userSpaceOnUse">
<stop offset="0.0399129" stop-color="#C2C3E7"/>
<stop offset="0.229194" stop-color="#8588CF"/>
<stop offset="0.284649" stop-color="#B3B4E1"/>
<stop offset="0.663243" stop-color="#8D90D2"/>
</linearGradient>
<linearGradient id="paint43_linear_39_1068" x1="400.372" y1="332.083" x2="-140.023" y2="343.859" gradientUnits="userSpaceOnUse">
<stop offset="0.0399129" stop-color="#C2C3E7"/>
<stop offset="0.229194" stop-color="#8588CF"/>
<stop offset="0.284649" stop-color="#B3B4E1"/>
<stop offset="0.663243" stop-color="#8D90D2"/>
</linearGradient>
<linearGradient id="paint44_linear_39_1068" x1="400.372" y1="332.083" x2="-140.023" y2="343.859" gradientUnits="userSpaceOnUse">
<stop offset="0.0399129" stop-color="#C2C3E7"/>
<stop offset="0.229194" stop-color="#8588CF"/>
<stop offset="0.284649" stop-color="#B3B4E1"/>
<stop offset="0.663243" stop-color="#8D90D2"/>
</linearGradient>
<linearGradient id="paint45_linear_39_1068" x1="84.0891" y1="132.601" x2="177.232" y2="-32.9527" gradientUnits="userSpaceOnUse">
<stop stop-color="#C2C3E7"/>
<stop offset="1" stop-color="#D1D2EE"/>
</linearGradient>
<linearGradient id="paint46_linear_39_1068" x1="229.276" y1="248.273" x2="3.74791" y2="248.901" gradientUnits="userSpaceOnUse">
<stop stop-color="#D1D2EE"/>
<stop offset="0.11777" stop-color="#C2C3E7"/>
<stop offset="0.434991" stop-color="#8588CF"/>
<stop offset="0.591005" stop-color="#8D90D2"/>
</linearGradient>
<linearGradient id="paint47_linear_39_1068" x1="229.276" y1="248.273" x2="3.74791" y2="248.901" gradientUnits="userSpaceOnUse">
<stop stop-color="#D1D2EE"/>
<stop offset="0.11777" stop-color="#C2C3E7"/>
<stop offset="0.434991" stop-color="#8588CF"/>
<stop offset="0.591005" stop-color="#8D90D2"/>
</linearGradient>
<linearGradient id="paint48_linear_39_1068" x1="229.276" y1="248.273" x2="3.74791" y2="248.901" gradientUnits="userSpaceOnUse">
<stop stop-color="#D1D2EE"/>
<stop offset="0.11777" stop-color="#C2C3E7"/>
<stop offset="0.434991" stop-color="#8588CF"/>
<stop offset="0.591005" stop-color="#8D90D2"/>
</linearGradient>
<linearGradient id="paint49_linear_39_1068" x1="275.069" y1="340.776" x2="224.507" y2="377.477" gradientUnits="userSpaceOnUse">
<stop offset="0.0121847" stop-color="#8588CF"/>
<stop offset="1" stop-color="#C2C3E7" stop-opacity="0"/>
</linearGradient>
<linearGradient id="paint50_linear_39_1068" x1="228.425" y1="344.391" x2="190.895" y2="367.262" gradientUnits="userSpaceOnUse">
<stop offset="0.0121847" stop-color="#8588CF"/>
<stop offset="1" stop-color="#C2C3E7" stop-opacity="0"/>
</linearGradient>
<linearGradient id="paint51_linear_39_1068" x1="243.863" y1="344.297" x2="243.895" y2="355.594" gradientUnits="userSpaceOnUse">
<stop stop-color="#D1D2EE"/>
<stop offset="1" stop-color="#6769CB"/>
</linearGradient>
<linearGradient id="paint52_linear_39_1068" x1="243.863" y1="344.297" x2="243.895" y2="355.594" gradientUnits="userSpaceOnUse">
<stop stop-color="#D1D2EE"/>
<stop offset="1" stop-color="#6769CB"/>
</linearGradient>
<linearGradient id="paint53_linear_39_1068" x1="240.686" y1="242.23" x2="240.686" y2="348.146" gradientUnits="userSpaceOnUse">
<stop stop-color="#8D90D2"/>
<stop offset="1" stop-color="#6769CB"/>
</linearGradient>
<linearGradient id="paint54_linear_39_1068" x1="309.05" y1="196.165" x2="261.306" y2="212.373" gradientUnits="userSpaceOnUse">
<stop stop-color="#FFDEBF"/>
<stop offset="1" stop-color="#FFCD9E"/>
</linearGradient>
<linearGradient id="paint55_linear_39_1068" x1="245.475" y1="144.023" x2="239.423" y2="171.917" gradientUnits="userSpaceOnUse">
<stop stop-color="#FFDEBF"/>
<stop offset="1" stop-color="#FFD0A4"/>
</linearGradient>
<linearGradient id="paint56_linear_39_1068" x1="226.141" y1="200.53" x2="201.811" y2="206.928" gradientUnits="userSpaceOnUse">
<stop stop-color="#FFDEBF"/>
<stop offset="1" stop-color="#FFCD9E"/>
</linearGradient>
<linearGradient id="paint57_linear_39_1068" x1="275.127" y1="168.397" x2="239.367" y2="253.448" gradientUnits="userSpaceOnUse">
<stop stop-color="#D1D2EE"/>
<stop offset="1" stop-color="#B3B4E1"/>
</linearGradient>
<linearGradient id="paint58_linear_39_1068" x1="309.146" y1="99.0352" x2="321.235" y2="140.874" gradientUnits="userSpaceOnUse">
<stop stop-color="#C0F7F7"/>
<stop offset="1" stop-color="#7DEEEE"/>
</linearGradient>
<clipPath id="clip0_39_1068">
<rect width="635" height="496" fill="white"/>
</clipPath>
</defs>
</svg>
