<svg width="48" height="64" viewBox="0 0 48 64" fill="none" xmlns="http://www.w3.org/2000/svg">
<path fill-rule="evenodd" clip-rule="evenodd" d="M17.4348 54.1829C9.52233 42.2414 8.19195 22.3783 14.4478 9.81707C17.4997 3.69822 21.7781 0.425889 26.2915 0.0685549C26.5402 0.0587 26.8016 0.0329108 27.0375 0.0390072C31.5606 0.00392769 36.2571 2.86053 40.1033 8.65111C44.0578 14.6073 46.3743 22.5762 46.9047 30.6039C47.4351 38.6316 46.2119 46.7443 43.0775 53.0328C40.0859 59.0429 35.9075 62.2907 31.4953 62.7556C31.0758 62.8116 30.6493 62.8097 30.2228 62.8077C25.8055 62.7442 21.1961 59.879 17.4348 54.1829Z" fill="#26E2E2"/>
<path d="M29.6766 62.8263C25.2626 62.7659 20.7027 59.9172 16.9521 54.2146L19.5906 63.2854L29.6766 62.8263Z" fill="#26E2E2"/>
<path d="M14.95 9.84123C18.0212 3.7174 22.3264 0.442484 26.8682 0.0849738L17.0406 0.520153L14.95 9.84123Z" fill="#26E2E2"/>
<path fill-rule="evenodd" clip-rule="evenodd" d="M33.233 7.95308L40.0456 7.63342L40.1351 9.61864L33.3224 9.93831L33.233 7.95308ZM41.0158 29.8541L46.8497 29.5869L46.9369 31.5722L41.103 31.8394L41.0158 29.8541ZM36.2229 52.3202L43.0227 52.0165L43.1077 54.0019L36.3078 54.3057L36.2229 52.3202Z" fill="#29BECE"/>
<path d="M34.7293 31.2098C33.7051 15.2514 25.6266 2.63376 16.6854 3.02755C7.74419 3.42135 1.3262 16.6774 2.3504 32.6358C3.3746 48.5942 11.4532 61.2118 20.3943 60.818C29.3355 60.4242 35.7535 47.1681 34.7293 31.2098Z" fill="#29BECE"/>
<path d="M35.5987 31.1457C34.6954 17.0708 27.5681 5.9425 19.6794 6.28994C11.7907 6.63738 6.1279 18.329 7.03123 32.4039C7.93456 46.4788 15.0619 57.6071 22.9506 57.2597C30.8393 56.9122 36.5021 45.2206 35.5987 31.1457Z" fill="#95EEEE"/>
<path fill-rule="evenodd" clip-rule="evenodd" d="M6.53692 13.8287C1.29841 24.3503 2.41314 40.9733 9.03028 50.9564C15.6474 60.9396 25.2521 60.5058 30.4906 49.9841C35.7291 39.4625 34.6144 22.8395 27.9973 12.8564C21.3964 2.88633 11.7754 3.30706 6.53692 13.8287ZM7.17313 54.6802C-0.739284 42.7388 -2.06968 22.8757 4.18615 10.3145C10.4547 -2.26268 21.9327 -2.76386 29.8416 9.14853C37.754 21.09 39.0844 40.9531 32.8286 53.5143C26.5891 66.0886 15.0983 66.6057 7.17313 54.6802Z" fill="#26E2E2"/>
<path fill-rule="evenodd" clip-rule="evenodd" d="M19.049 29.2097C18.9845 29.5243 19.0462 29.9145 19.2059 30.1482L23.1022 36.0441C23.3857 36.4563 23.7774 36.4321 23.9885 36.0002L24.8362 34.3013C24.9873 33.9781 25.2796 33.9784 25.4752 34.2673L26.1174 35.2311C26.2968 35.5069 26.3203 35.9449 26.1785 36.2232L25.2743 38.0597C25.0886 38.4598 25.1204 39.0879 25.3715 39.4739C25.6226 39.86 25.9855 39.8387 26.2 39.4357L27.1042 37.5992C27.2461 37.3209 27.4934 37.311 27.6854 37.5709L28.3277 38.5346C28.5232 38.8235 28.5538 39.3195 28.4027 39.6428L26.1214 44.2436C25.803 44.877 25.2345 44.8894 24.8434 44.3117L17.6177 33.3444C17.458 33.1107 17.2488 33.0728 17.0606 33.2089C15.4348 34.5152 13.0581 33.5915 11.5225 31.2778C9.53668 28.2602 9.19565 23.2445 10.7711 20.0643C12.3466 16.884 15.24 16.7583 17.2258 19.7759C18.7395 22.1504 19.6077 26.2037 19.049 29.2097ZM11.9736 24.466L11.2459 25.9474L12.6739 28.0956L12.299 28.8668L12.9448 29.8596L13.3196 29.0884L13.4237 29.2249L13.0489 29.996L13.6946 30.9888L14.0695 30.2177L14.9073 31.4703L15.5185 30.2353L13.0502 26.4876L14.9545 26.4014L14.7329 23.1059L17.2013 26.8536L17.8253 25.6027L16.9875 24.35L17.3623 23.5789L16.7165 22.5861L16.3417 23.3572L16.2503 23.2049L16.6251 22.4337L15.9794 21.4409L15.6045 22.2121L14.1892 20.0479L13.4615 21.5293L13.6595 24.3868L11.9736 24.466Z" fill="#4C4EC1"/>
</svg>
