<svg width="32" height="32" viewBox="0 0 32 32" fill="none" xmlns="http://www.w3.org/2000/svg">
<path fill-rule="evenodd" clip-rule="evenodd" d="M0 16C0 7.16344 7.16344 0 16 0C24.8366 0 32 7.16344 32 16C32 24.8366 24.8366 32 16 32C7.16344 32 0 24.8366 0 16ZM8 9.727C8 9.17471 8.44771 8.727 9 8.727H13.7692C14.3215 8.727 14.7692 9.17471 14.7692 9.727V14.4962C14.7692 15.0485 14.3215 15.4962 13.7692 15.4962H9C8.44772 15.4962 8 15.0485 8 14.4962V9.727ZM18.2307 8.72694C17.6784 8.72694 17.2307 9.17466 17.2307 9.72694V14.4962C17.2307 15.0485 17.6784 15.4962 18.2307 15.4962H22.9999C23.5522 15.4962 23.9999 15.0485 23.9999 14.4962V9.72694C23.9999 9.17466 23.5522 8.72694 22.9999 8.72694H18.2307ZM8 18.3424C8 17.7901 8.44771 17.3424 9 17.3424H13.7692C14.3215 17.3424 14.7692 17.7901 14.7692 18.3424V23.1116C14.7692 23.6639 14.3215 24.1116 13.7692 24.1116H9C8.44772 24.1116 8 23.6639 8 23.1116V18.3424ZM18.2307 17.3424C17.6784 17.3424 17.2307 17.7901 17.2307 18.3424V23.1116C17.2307 23.6639 17.6784 24.1116 18.2307 24.1116H22.9999C23.5522 24.1116 23.9999 23.6639 23.9999 23.1116V18.3424C23.9999 17.7901 23.5522 17.3424 22.9999 17.3424H18.2307Z" fill="#F6F6F6"/>
</svg>
