<svg width="32" height="32" viewBox="0 0 32 32" fill="none" xmlns="http://www.w3.org/2000/svg">
<path fill-rule="evenodd" clip-rule="evenodd" d="M0 16C0 7.16344 7.16344 0 16 0C24.8366 0 32 7.16344 32 16C32 24.8366 24.8366 32 16 32C7.16344 32 0 24.8366 0 16ZM8 9.7268C8 9.17451 8.44771 8.7268 9 8.7268H13.7692C14.3215 8.7268 14.7692 9.17451 14.7692 9.7268V14.496C14.7692 15.0483 14.3215 15.496 13.7692 15.496H9C8.44772 15.496 8 15.0483 8 14.496V9.7268ZM18.2306 8.72704C17.6783 8.72704 17.2306 9.17475 17.2306 9.72704V14.4963C17.2306 15.0486 17.6783 15.4963 18.2306 15.4963H22.9998C23.5521 15.4963 23.9998 15.0486 23.9998 14.4963V9.72704C23.9998 9.17475 23.5521 8.72704 22.9998 8.72704H18.2306ZM8 18.3426C8 17.7903 8.44771 17.3426 9 17.3426H13.7692C14.3215 17.3426 14.7692 17.7903 14.7692 18.3426V23.1118C14.7692 23.6641 14.3215 24.1118 13.7692 24.1118H9C8.44772 24.1118 8 23.6641 8 23.1118V18.3426ZM18.2306 17.3426C17.6783 17.3426 17.2306 17.7903 17.2306 18.3426V23.1118C17.2306 23.6641 17.6783 24.1118 18.2306 24.1118H22.9998C23.5521 24.1118 23.9998 23.6641 23.9998 23.1118V18.3426C23.9998 17.7903 23.5521 17.3426 22.9998 17.3426H18.2306Z" fill="#6769CB"/>
</svg>
