<svg width="320" height="214" viewBox="0 0 320 214" fill="none" xmlns="http://www.w3.org/2000/svg">
<g opacity="0.2">
<path d="M25.4116 1.77065C23.7179 0.792841 20.9717 0.792839 19.278 1.77065L5.06659 9.97487C4.22905 10.4584 3.80566 11.0905 3.79642 11.7242C3.79622 11.7383 3.79622 11.7524 3.79642 11.7665C3.80566 12.4002 4.22904 13.0323 5.06659 13.5158L19.278 21.7201C20.9717 22.6979 23.7179 22.6979 25.4116 21.7201L39.623 13.5158C40.4605 13.0323 40.8839 12.4002 40.8932 11.7665C40.8934 11.7524 40.8934 11.7383 40.8932 11.7242C40.8839 11.0905 40.4605 10.4584 39.623 9.97487L25.4116 1.77065Z" fill="url(#paint0_linear_30_114)"/>
<path d="M5.06659 13.5158L19.278 21.7201C20.9717 22.6979 23.7179 22.6979 25.4116 21.7201L39.623 13.5158C40.4605 13.0323 40.8839 12.4002 40.8932 11.7665V54.8382L22.2341 65.0634L3.79642 54.8382V11.7665C3.80566 12.4002 4.22904 13.0323 5.06659 13.5158Z" fill="url(#paint1_linear_30_114)"/>
<rect width="23.4919" height="23.4919" rx="8" transform="matrix(-0.866044 0.499967 0.866044 0.499967 22.3451 0)" fill="#76A8ED"/>
</g>
<g opacity="0.1">
<path d="M67.9048 21.3577C66.211 20.3798 63.4649 20.3798 61.7711 21.3577L47.5598 29.5619C46.7222 30.0454 46.2988 30.6775 46.2896 31.3112C46.2894 31.3253 46.2894 31.3394 46.2896 31.3535C46.2988 31.9873 46.7222 32.6193 47.5598 33.1028L61.7711 41.3071C63.4649 42.2849 66.211 42.2849 67.9048 41.3071L82.1161 33.1028C82.9537 32.6193 83.3771 31.9873 83.3863 31.3535C83.3865 31.3394 83.3865 31.3253 83.3863 31.3112C83.3771 30.6775 82.9537 30.0454 82.1162 29.5619L67.9048 21.3577Z" fill="url(#paint2_linear_30_114)"/>
<path d="M47.5598 33.1028L61.7711 41.3071C63.4649 42.2849 66.211 42.2849 67.9048 41.3071L82.1161 33.1028C82.9537 32.6193 83.3771 31.9873 83.3863 31.3535V122.605L64.7273 132.83L46.2896 122.605V31.3535C46.2988 31.9873 46.7222 32.6193 47.5598 33.1028Z" fill="url(#paint3_linear_30_114)"/>
<rect width="23.4919" height="23.4919" rx="8" transform="matrix(-0.866044 0.499967 0.866044 0.499967 64.8383 19.587)" fill="#76A8ED"/>
</g>
<g opacity="0.1">
<path d="M37.4884 39.2065C35.7946 38.2287 33.0485 38.2287 31.3547 39.2065L17.1434 47.4107C16.3058 47.8942 15.8824 48.5263 15.8732 49.16C15.873 49.1741 15.873 49.1882 15.8732 49.2024C15.8824 49.8361 16.3058 50.4681 17.1434 50.9517L31.3547 59.1559C33.0485 60.1337 35.7946 60.1337 37.4884 59.1559L51.6998 50.9517C52.5373 50.4681 52.9607 49.8361 52.9699 49.2024C52.9701 49.1882 52.9701 49.1741 52.9699 49.16C52.9607 48.5263 52.5373 47.8942 51.6998 47.4107L37.4884 39.2065Z" fill="url(#paint4_linear_30_114)"/>
<path d="M17.1434 50.9517L31.3547 59.1559C33.0485 60.1337 35.7946 60.1337 37.4884 59.1559L51.6998 50.9517C52.5373 50.4681 52.9607 49.8361 52.9699 49.2024V92.274L34.3109 102.499L15.8732 92.274V49.2024C15.8824 49.8361 16.3058 50.4681 17.1434 50.9517Z" fill="url(#paint5_linear_30_114)"/>
<rect width="23.4919" height="23.4919" rx="8" transform="matrix(-0.866044 0.499967 0.866044 0.499967 34.4219 37.4358)" fill="#76A8ED"/>
</g>
<g opacity="0.2">
<path d="M147.412 120.771C145.718 119.793 142.972 119.793 141.278 120.771L127.067 128.975C126.229 129.458 125.806 130.09 125.796 130.724C125.796 130.738 125.796 130.752 125.796 130.767C125.806 131.4 126.229 132.032 127.067 132.516L141.278 140.72C142.972 141.698 145.718 141.698 147.412 140.72L161.623 132.516C162.461 132.032 162.884 131.4 162.893 130.767C162.893 130.752 162.893 130.738 162.893 130.724C162.884 130.09 162.461 129.458 161.623 128.975L147.412 120.771Z" fill="url(#paint6_linear_30_114)"/>
<path d="M127.067 132.516L141.278 140.72C142.972 141.698 145.718 141.698 147.412 140.72L161.623 132.516C162.461 132.032 162.884 131.4 162.893 130.767V173.838L144.234 184.063L125.796 173.838V130.767C125.806 131.4 126.229 132.032 127.067 132.516Z" fill="url(#paint7_linear_30_114)"/>
<rect width="23.4919" height="23.4919" rx="8" transform="matrix(-0.866044 0.499967 0.866044 0.499967 144.345 119)" fill="#76A8ED"/>
</g>
<g opacity="0.1">
<path d="M177.411 155.771C175.718 154.793 172.971 154.793 171.278 155.771L157.066 163.975C156.229 164.458 155.805 165.091 155.796 165.724C155.796 165.738 155.796 165.753 155.796 165.767C155.805 166.4 156.229 167.032 157.066 167.516L171.278 175.72C172.971 176.698 175.718 176.698 177.411 175.72L191.623 167.516C192.46 167.032 192.884 166.4 192.893 165.767C192.893 165.753 192.893 165.738 192.893 165.724C192.884 165.091 192.46 164.458 191.623 163.975L177.411 155.771Z" fill="url(#paint8_linear_30_114)"/>
<path d="M157.066 167.516L171.278 175.72C172.971 176.698 175.718 176.698 177.411 175.72L191.623 167.516C192.46 167.032 192.884 166.4 192.893 165.767V257.018L174.234 267.243L155.796 257.018V165.767C155.805 166.4 156.229 167.032 157.066 167.516Z" fill="url(#paint9_linear_30_114)"/>
<rect width="23.4919" height="23.4919" rx="8" transform="matrix(-0.866044 0.499967 0.866044 0.499967 174.345 154)" fill="#76A8ED"/>
</g>
<g opacity="0.2">
<path d="M93.0704 81.4904C95.4528 80.1151 99.3153 80.1151 101.698 81.4904L121.686 93.0299C122.864 93.71 123.46 94.599 123.473 95.4903C123.473 95.5102 123.473 95.5301 123.473 95.5499C123.46 96.4413 122.864 97.3303 121.686 98.0104L101.698 109.55C99.3153 110.925 95.4528 110.925 93.0704 109.55L73.0817 98.0104C71.9036 97.3303 71.3081 96.4413 71.2951 95.55C71.2948 95.5301 71.2948 95.5102 71.2951 95.4903C71.3081 94.599 71.9036 93.71 73.0817 93.0299L93.0704 81.4904Z" fill="url(#paint10_linear_30_114)"/>
<path d="M121.686 98.0104L101.698 109.55C99.3153 110.925 95.4528 110.925 93.0704 109.55L73.0817 98.0104C71.9036 97.3303 71.3081 96.4413 71.2951 95.55V156.132L97.5397 170.514L123.473 156.132V95.5499C123.46 96.4413 122.864 97.3303 121.686 98.0104Z" fill="url(#paint11_linear_30_114)"/>
<rect width="33.0422" height="33.0422" rx="8" transform="matrix(0.866044 0.499967 -0.866044 0.499967 97.3839 79)" fill="#76A8ED"/>
</g>
<g opacity="0.1">
<path d="M33.3024 109.04C35.6847 107.665 39.5473 107.665 41.9296 109.04L61.9184 120.58C63.0964 121.26 63.6919 122.149 63.7049 123.04C63.7052 123.06 63.7052 123.08 63.7049 123.1C63.6919 123.991 63.0964 124.88 61.9184 125.56L41.9296 137.1C39.5473 138.475 35.6847 138.475 33.3024 137.1L13.3136 125.56C12.1356 124.88 11.5401 123.991 11.5271 123.1C11.5268 123.08 11.5268 123.06 11.5271 123.04C11.5401 122.149 12.1356 121.26 13.3136 120.58L33.3024 109.04Z" fill="url(#paint12_linear_30_114)"/>
<path d="M61.9184 125.56L41.9296 137.1C39.5473 138.475 35.6847 138.475 33.3024 137.1L13.3136 125.56C12.1356 124.88 11.5401 123.991 11.5271 123.1V251.448L37.7716 265.83L63.7049 251.448V123.1C63.6919 123.991 63.0964 124.88 61.9184 125.56Z" fill="url(#paint13_linear_30_114)"/>
<rect width="33.0422" height="33.0422" rx="8" transform="matrix(0.866044 0.499967 -0.866044 0.499967 37.6158 106.55)" fill="#76A8ED"/>
</g>
<g opacity="0.1">
<path d="M76.0841 134.145C78.4665 132.77 82.329 132.77 84.7113 134.145L104.7 145.685C105.878 146.365 106.474 147.254 106.487 148.145C106.487 148.165 106.487 148.185 106.487 148.205C106.474 149.096 105.878 149.985 104.7 150.665L84.7113 162.205C82.329 163.58 78.4665 163.58 76.0841 162.205L56.0953 150.665C54.9173 149.985 54.3218 149.096 54.3088 148.205C54.3085 148.185 54.3085 148.165 54.3088 148.145C54.3218 147.254 54.9173 146.365 56.0953 145.685L76.0841 134.145Z" fill="url(#paint14_linear_30_114)"/>
<path d="M104.7 150.665L84.7113 162.205C82.329 163.58 78.4665 163.58 76.0841 162.205L56.0953 150.665C54.9173 149.985 54.3218 149.096 54.3088 148.205V208.787L80.5534 223.169L106.487 208.787V148.205C106.474 149.096 105.878 149.985 104.7 150.665Z" fill="url(#paint15_linear_30_114)"/>
<rect width="33.0422" height="33.0422" rx="8" transform="matrix(0.866044 0.499967 -0.866044 0.499967 80.3976 131.655)" fill="#76A8ED"/>
</g>
<g opacity="0.2">
<path d="M218.929 87.4904C216.547 86.1151 212.684 86.1151 210.302 87.4904L190.313 99.0299C189.135 99.71 188.54 100.599 188.527 101.49C188.526 101.51 188.526 101.53 188.527 101.55C188.54 102.441 189.135 103.33 190.313 104.01L210.302 115.55C212.684 116.925 216.547 116.925 218.929 115.55L238.918 104.01C240.096 103.33 240.692 102.441 240.705 101.55C240.705 101.53 240.705 101.51 240.705 101.49C240.692 100.599 240.096 99.71 238.918 99.0299L218.929 87.4904Z" fill="url(#paint16_linear_30_114)"/>
<path d="M190.313 104.01L210.302 115.55C212.684 116.925 216.547 116.925 218.929 115.55L238.918 104.01C240.096 103.33 240.692 102.441 240.705 101.55V162.132L214.46 176.514L188.527 162.132V101.55C188.54 102.441 189.135 103.33 190.313 104.01Z" fill="url(#paint17_linear_30_114)"/>
<rect width="33.0422" height="33.0422" rx="8" transform="matrix(-0.866044 0.499967 0.866044 0.499967 214.616 85)" fill="#76A8ED"/>
</g>
<g opacity="0.1">
<path d="M278.697 115.04C276.315 113.665 272.452 113.665 270.07 115.04L250.081 126.58C248.903 127.26 248.308 128.149 248.295 129.04C248.294 129.06 248.294 129.08 248.295 129.1C248.308 129.991 248.903 130.88 250.081 131.56L270.07 143.1C272.452 144.475 276.315 144.475 278.697 143.1L298.686 131.56C299.864 130.88 300.46 129.991 300.473 129.1C300.473 129.08 300.473 129.06 300.473 129.04C300.46 128.149 299.864 127.26 298.686 126.58L278.697 115.04Z" fill="url(#paint18_linear_30_114)"/>
<path d="M250.081 131.56L270.07 143.1C272.452 144.475 276.315 144.475 278.697 143.1L298.686 131.56C299.864 130.88 300.46 129.991 300.473 129.1V257.448L274.228 271.83L248.295 257.448V129.1C248.308 129.991 248.903 130.88 250.081 131.56Z" fill="url(#paint19_linear_30_114)"/>
<rect width="33.0422" height="33.0422" rx="8" transform="matrix(-0.866044 0.499967 0.866044 0.499967 274.384 112.55)" fill="#76A8ED"/>
</g>
<g opacity="0.1">
<path d="M235.916 140.145C233.533 138.77 229.671 138.77 227.288 140.145L207.3 151.685C206.122 152.365 205.526 153.254 205.513 154.145C205.513 154.165 205.513 154.185 205.513 154.205C205.526 155.096 206.122 155.985 207.3 156.665L227.288 168.205C229.671 169.58 233.533 169.58 235.916 168.205L255.904 156.665C257.082 155.985 257.678 155.096 257.691 154.205C257.691 154.185 257.691 154.165 257.691 154.145C257.678 153.254 257.082 152.365 255.904 151.685L235.916 140.145Z" fill="url(#paint20_linear_30_114)"/>
<path d="M207.3 156.665L227.288 168.205C229.671 169.58 233.533 169.58 235.916 168.205L255.904 156.665C257.082 155.985 257.678 155.096 257.691 154.205V214.787L231.446 229.169L205.513 214.787V154.205C205.526 155.096 206.122 155.985 207.3 156.665Z" fill="url(#paint21_linear_30_114)"/>
<rect width="33.0422" height="33.0422" rx="8" transform="matrix(-0.866044 0.499967 0.866044 0.499967 231.602 137.655)" fill="#76A8ED"/>
</g>
<defs>
<linearGradient id="paint0_linear_30_114" x1="22.3448" y1="1.03418" x2="22.3448" y2="53.0012" gradientUnits="userSpaceOnUse">
<stop stop-color="#76A8ED"/>
<stop offset="1" stop-color="#5EA2E1" stop-opacity="0"/>
</linearGradient>
<linearGradient id="paint1_linear_30_114" x1="22.3448" y1="1.03418" x2="22.3448" y2="53.0012" gradientUnits="userSpaceOnUse">
<stop stop-color="#76A8ED"/>
<stop offset="1" stop-color="#5EA2E1" stop-opacity="0"/>
</linearGradient>
<linearGradient id="paint2_linear_30_114" x1="64.838" y1="20.6212" x2="64.838" y2="72.5882" gradientUnits="userSpaceOnUse">
<stop stop-color="#76A8ED"/>
<stop offset="1" stop-color="#5EA2E1" stop-opacity="0"/>
</linearGradient>
<linearGradient id="paint3_linear_30_114" x1="64.838" y1="20.6212" x2="64.838" y2="72.5882" gradientUnits="userSpaceOnUse">
<stop stop-color="#76A8ED"/>
<stop offset="1" stop-color="#5EA2E1" stop-opacity="0"/>
</linearGradient>
<linearGradient id="paint4_linear_30_114" x1="34.4216" y1="38.47" x2="34.4216" y2="90.437" gradientUnits="userSpaceOnUse">
<stop stop-color="#76A8ED"/>
<stop offset="1" stop-color="#5EA2E1" stop-opacity="0"/>
</linearGradient>
<linearGradient id="paint5_linear_30_114" x1="34.4216" y1="38.47" x2="34.4216" y2="90.437" gradientUnits="userSpaceOnUse">
<stop stop-color="#76A8ED"/>
<stop offset="1" stop-color="#5EA2E1" stop-opacity="0"/>
</linearGradient>
<linearGradient id="paint6_linear_30_114" x1="144.345" y1="120.034" x2="144.345" y2="172.001" gradientUnits="userSpaceOnUse">
<stop stop-color="#76A8ED"/>
<stop offset="1" stop-color="#5EA2E1" stop-opacity="0"/>
</linearGradient>
<linearGradient id="paint7_linear_30_114" x1="144.345" y1="120.034" x2="144.345" y2="172.001" gradientUnits="userSpaceOnUse">
<stop stop-color="#76A8ED"/>
<stop offset="1" stop-color="#5EA2E1" stop-opacity="0"/>
</linearGradient>
<linearGradient id="paint8_linear_30_114" x1="174.345" y1="155.034" x2="174.345" y2="207.001" gradientUnits="userSpaceOnUse">
<stop stop-color="#76A8ED"/>
<stop offset="1" stop-color="#5EA2E1" stop-opacity="0"/>
</linearGradient>
<linearGradient id="paint9_linear_30_114" x1="174.345" y1="155.034" x2="174.345" y2="207.001" gradientUnits="userSpaceOnUse">
<stop stop-color="#76A8ED"/>
<stop offset="1" stop-color="#5EA2E1" stop-opacity="0"/>
</linearGradient>
<linearGradient id="paint10_linear_30_114" x1="97.3841" y1="80.4545" x2="97.3841" y2="153.548" gradientUnits="userSpaceOnUse">
<stop stop-color="#76A8ED"/>
<stop offset="1" stop-color="#5EA2E1" stop-opacity="0"/>
</linearGradient>
<linearGradient id="paint11_linear_30_114" x1="97.3841" y1="80.4545" x2="97.3841" y2="153.548" gradientUnits="userSpaceOnUse">
<stop stop-color="#76A8ED"/>
<stop offset="1" stop-color="#5EA2E1" stop-opacity="0"/>
</linearGradient>
<linearGradient id="paint12_linear_30_114" x1="37.616" y1="108.004" x2="37.616" y2="181.098" gradientUnits="userSpaceOnUse">
<stop stop-color="#76A8ED"/>
<stop offset="1" stop-color="#5EA2E1" stop-opacity="0"/>
</linearGradient>
<linearGradient id="paint13_linear_30_114" x1="37.616" y1="108.004" x2="37.616" y2="181.098" gradientUnits="userSpaceOnUse">
<stop stop-color="#76A8ED"/>
<stop offset="1" stop-color="#5EA2E1" stop-opacity="0"/>
</linearGradient>
<linearGradient id="paint14_linear_30_114" x1="80.3977" y1="133.109" x2="80.3977" y2="206.203" gradientUnits="userSpaceOnUse">
<stop stop-color="#76A8ED"/>
<stop offset="1" stop-color="#5EA2E1" stop-opacity="0"/>
</linearGradient>
<linearGradient id="paint15_linear_30_114" x1="80.3977" y1="133.109" x2="80.3977" y2="206.203" gradientUnits="userSpaceOnUse">
<stop stop-color="#76A8ED"/>
<stop offset="1" stop-color="#5EA2E1" stop-opacity="0"/>
</linearGradient>
<linearGradient id="paint16_linear_30_114" x1="214.616" y1="86.4545" x2="214.616" y2="159.548" gradientUnits="userSpaceOnUse">
<stop stop-color="#76A8ED"/>
<stop offset="1" stop-color="#5EA2E1" stop-opacity="0"/>
</linearGradient>
<linearGradient id="paint17_linear_30_114" x1="214.616" y1="86.4545" x2="214.616" y2="159.548" gradientUnits="userSpaceOnUse">
<stop stop-color="#76A8ED"/>
<stop offset="1" stop-color="#5EA2E1" stop-opacity="0"/>
</linearGradient>
<linearGradient id="paint18_linear_30_114" x1="274.384" y1="114.004" x2="274.384" y2="187.098" gradientUnits="userSpaceOnUse">
<stop stop-color="#76A8ED"/>
<stop offset="1" stop-color="#5EA2E1" stop-opacity="0"/>
</linearGradient>
<linearGradient id="paint19_linear_30_114" x1="274.384" y1="114.004" x2="274.384" y2="187.098" gradientUnits="userSpaceOnUse">
<stop stop-color="#76A8ED"/>
<stop offset="1" stop-color="#5EA2E1" stop-opacity="0"/>
</linearGradient>
<linearGradient id="paint20_linear_30_114" x1="231.602" y1="139.109" x2="231.602" y2="212.203" gradientUnits="userSpaceOnUse">
<stop stop-color="#76A8ED"/>
<stop offset="1" stop-color="#5EA2E1" stop-opacity="0"/>
</linearGradient>
<linearGradient id="paint21_linear_30_114" x1="231.602" y1="139.109" x2="231.602" y2="212.203" gradientUnits="userSpaceOnUse">
<stop stop-color="#76A8ED"/>
<stop offset="1" stop-color="#5EA2E1" stop-opacity="0"/>
</linearGradient>
</defs>
</svg>
