<svg width="1429" height="711" viewBox="0 0 1429 711" fill="none" xmlns="http://www.w3.org/2000/svg">
<g filter="url(#filter0_f_140_25)">
<path d="M3 708.091C21 686.091 94.6 620.491 245 534.091C482 397.942 700.434 534.805 728 549.091C865 620.091 953.152 688.091 1137 688.091C1320 688.091 1441.5 574.091 1423.5 442.091C1414.19 373.836 1386.61 313.388 1362 274.091L1339.5 242.091" stroke="url(#paint0_linear_140_25)" stroke-width="2" stroke-dasharray="16 16"/>
</g>
<path d="M1178.89 91.3477L1349.89 180.742L1331.12 233.258L1178.89 91.3477Z" fill="url(#paint1_linear_140_25)"/>
<path d="M1178.89 91.6597L1349.93 180.467L1330.88 233.192L1178.89 91.6597Z" fill="url(#paint2_linear_140_25)"/>
<path d="M1178.89 91.7995L1349.76 180.521L1378.77 183.532L1396.73 168.236L1178.89 91.7995Z" fill="url(#paint3_linear_140_25)"/>
<path d="M1305.59 96.4699C1287.48 79.5832 1262.67 84.4048 1257.71 107.038C1253.8 125.475 1266.49 150.178 1278.65 167.675L1263.81 183.794L1297.04 185.445C1311.55 193.234 1324.82 186.797 1328.93 167.997C1334.19 145.294 1323.51 113.244 1305.59 96.4699Z" fill="#6769CB"/>
<path d="M1297.43 98.7026C1279.97 82.5012 1262.34 86.8355 1257.69 108.401C1254.03 125.968 1260.16 149.736 1271.92 166.489L1257.76 181.79L1289.65 183.534C1303.63 191.039 1316.33 184.967 1320.18 167.053C1325.02 145.597 1314.8 115.077 1297.43 98.7026Z" fill="#F7F7FA"/>
<path d="M1257 182.263L1271.36 166.619C1259.23 149.196 1253.47 125.647 1257.21 108.362C1259.45 97.753 1264.88 91.0839 1272.38 89.0659C1280.07 87.1562 1288.97 90.5445 1297.52 98.5361C1314.98 114.736 1325.48 145.643 1321 167.315C1318.98 176.671 1314.39 183.147 1308 185.815C1302.64 187.945 1296.3 187.437 1289.92 183.923L1257 182.263ZM1282.35 90.1C1278.91 89.2291 1275.84 89.029 1272.93 89.845C1265.52 91.6903 1260.37 98.2951 1258.33 108.558C1254.68 125.671 1260.36 148.939 1272.48 166.361L1272.57 166.643L1258.88 181.532L1290.12 183.124C1296.32 186.529 1302.37 187.102 1307.73 184.972C1313.84 182.368 1318.34 176.064 1320.27 166.881C1324.83 145.491 1314.42 114.865 1297.33 98.8816C1292.17 94.4843 1287.28 91.3844 1282.35 90.1Z" fill="#F7F7FA"/>
<path d="M1299.55 125.756L1294.29 150.575C1294.28 151.028 1294.09 151.373 1294.18 151.653C1294.17 152.106 1294.26 152.387 1294.35 152.668C1294.44 152.948 1294.71 153.337 1295.08 153.553C1295.82 153.986 1296.65 154.246 1297.59 153.881C1299.09 153.388 1300.41 152.334 1301.56 150.265C1302.62 148.369 1303.23 145.522 1303.57 141.834C1303.95 135.881 1303.21 130.185 1301.15 125.091C1299.09 119.996 1295.9 116.064 1291.85 113.231C1288.81 111.219 1286.12 110.33 1283.5 110.627C1280.89 110.924 1278.72 112.624 1277.09 115.555C1275.45 118.485 1274.45 122.474 1274.1 127.068C1273.41 134.444 1274.51 141.263 1276.92 147.48C1279.52 153.805 1283.07 158.406 1287.58 161.736C1289.88 163.315 1292.01 164.333 1294.05 164.617C1296.28 165.01 1298.34 164.841 1300.31 163.939L1305.28 167.313C1303.77 168.712 1302.36 169.486 1301.14 169.915C1299.26 170.645 1297.03 170.706 1294.8 170.314C1292.38 169.813 1289.79 168.751 1287.12 166.956C1283.44 164.339 1280.24 160.86 1277.51 156.519C1274.79 152.178 1272.74 147.084 1271.53 141.344C1270.22 135.776 1269.85 130.296 1270.22 124.796C1270.69 119.124 1271.98 114.618 1274.18 111.106C1276.38 107.594 1278.93 105.657 1281.92 105.123C1284.91 104.59 1288.43 105.739 1292.3 108.464C1297.27 111.839 1301.19 117.109 1303.87 123.715C1306.74 130.429 1307.74 137.42 1307.15 144.624C1306.71 148.937 1305.81 152.3 1304.28 155.059C1302.74 157.817 1300.66 159.345 1298.24 159.75C1296.37 160.027 1294.6 159.679 1292.76 158.597C1291.84 158.056 1291.11 157.17 1290.47 156.112C1289.84 155.054 1289.58 153.759 1289.51 152.119C1288.38 152.829 1287.17 153.258 1286.42 153.278C1285.49 153.19 1284.47 152.822 1283.55 152.281C1281.43 150.81 1279.7 148.197 1278.46 144.722C1277.04 140.685 1276.64 136.564 1276.81 131.862C1277.18 126.362 1278.66 121.964 1280.95 118.733C1283.24 115.501 1285.95 115.032 1288.8 116.935C1289.81 117.757 1290.91 118.859 1291.64 120.198C1292.36 121.537 1293.26 123.437 1293.87 125.854L1294.68 121.757L1299.55 125.756ZM1281.76 137.048C1281.53 139.658 1281.86 142.139 1282.48 144.103C1283.1 145.615 1283.74 146.673 1284.56 147.386C1285.67 148.035 1286.6 148.123 1287.45 147.478C1288.3 146.832 1289.36 144.936 1290.25 141.572C1291.15 138.209 1291.85 135.19 1291.99 132.3C1292.21 130.143 1292.06 128.223 1291.53 126.54C1291 124.856 1290.08 123.862 1289.26 123.149C1288.15 122.5 1287.22 122.412 1286.37 123.057C1285.24 123.767 1284.18 125.663 1283.3 128.574C1282.5 131.312 1282.08 134.266 1281.76 137.048Z" fill="#6769CB"/>
<path d="M1178.88 91.4901L1316.13 198.407L1331.04 233.176L1178.88 91.4901Z" fill="#6769CB"/>
<path d="M1178.89 91.3484L1316.11 198.539L1292.93 221.865L1265.36 230.681L1178.89 91.3484Z" fill="url(#paint4_linear_140_25)"/>
<g style="mix-blend-mode:multiply">
<path fill-rule="evenodd" clip-rule="evenodd" d="M1293.65 221.136L1292.93 221.865L1265.36 230.68L1180.06 93.2378L1293.65 221.136Z" fill="url(#paint5_linear_140_25)" fill-opacity="0.2"/>
</g>
<defs>
<filter id="filter0_f_140_25" x="0.226562" y="239.516" width="1428.04" height="471.208" filterUnits="userSpaceOnUse" color-interpolation-filters="sRGB">
<feFlood flood-opacity="0" result="BackgroundImageFix"/>
<feBlend mode="normal" in="SourceGraphic" in2="BackgroundImageFix" result="shape"/>
<feGaussianBlur stdDeviation="1" result="effect1_foregroundBlur_140_25"/>
</filter>
<linearGradient id="paint0_linear_140_25" x1="1567" y1="-59.9102" x2="-205" y2="818.09" gradientUnits="userSpaceOnUse">
<stop stop-color="white" stop-opacity="0.8"/>
<stop offset="0.826766" stop-color="white" stop-opacity="0"/>
</linearGradient>
<linearGradient id="paint1_linear_140_25" x1="1240.77" y1="207.145" x2="1270.38" y2="117.43" gradientUnits="userSpaceOnUse">
<stop stop-color="#D1CFD6"/>
<stop offset="0.9723" stop-color="#FEFEFE"/>
<stop offset="1" stop-color="white"/>
</linearGradient>
<linearGradient id="paint2_linear_140_25" x1="1273.23" y1="92.5765" x2="1243.47" y2="190.561" gradientUnits="userSpaceOnUse">
<stop stop-color="#D1D2EE"/>
<stop offset="1" stop-color="#585AC6"/>
</linearGradient>
<linearGradient id="paint3_linear_140_25" x1="1396.95" y1="178.257" x2="1179.56" y2="93.6704" gradientUnits="userSpaceOnUse">
<stop stop-color="#8D90D2"/>
<stop offset="0.722022" stop-color="#C2C3E7"/>
</linearGradient>
<linearGradient id="paint4_linear_140_25" x1="1195" y1="102.698" x2="1282" y2="213.698" gradientUnits="userSpaceOnUse">
<stop stop-color="#C2C3E7"/>
<stop offset="1" stop-color="#8D90D2"/>
</linearGradient>
<linearGradient id="paint5_linear_140_25" x1="1184.5" y1="101.59" x2="1269.5" y2="227.59" gradientUnits="userSpaceOnUse">
<stop stop-color="#D1D2EE" stop-opacity="0"/>
<stop offset="0.957383" stop-color="#D1D2EE"/>
</linearGradient>
</defs>
</svg>
