<svg width="20" height="25" viewBox="0 0 20 25" fill="none" xmlns="http://www.w3.org/2000/svg">
<path fill-rule="evenodd" clip-rule="evenodd" d="M0 2C0 0.89543 0.895431 0 2 0H12C13.9982 0 15.8254 0.732624 17.2274 1.94392C17.5349 2.18683 17.8132 2.46509 18.0561 2.77257C19.2674 4.17463 20 6.00176 20 8V22.3478C20 23.4524 19.1046 24.3478 18 24.3478H2C0.895431 24.3478 0 23.4524 0 22.3478V2ZM13.0435 1.73917V4.95652C13.0435 6.06109 13.9389 6.95652 15.0435 6.95652H18.2609V21.6087C18.2609 22.161 17.8132 22.6087 17.2609 22.6087H2.73913C2.18685 22.6087 1.73913 22.161 1.73913 21.6087V2.73917C1.73913 2.18688 2.18685 1.73917 2.73913 1.73917H13.0435Z" fill="#26E2E2"/>
<path d="M4.16908 19.174C4.12211 19.174 4.08219 19.1573 4.04931 19.1239C4.01644 19.0906 4 19.0501 4 19.0025V14.3525C4 14.3001 4.01644 14.2573 4.04931 14.224C4.08219 14.1906 4.12211 14.174 4.16908 14.174H6.05711C6.42345 14.174 6.74282 14.2335 7.01522 14.3525C7.28762 14.4668 7.49897 14.643 7.64926 14.8811C7.79955 15.1144 7.8747 15.4073 7.8747 15.7597C7.8747 16.1168 7.79955 16.412 7.64926 16.6454C7.49897 16.874 7.28762 17.0454 7.01522 17.1597C6.74282 17.274 6.42345 17.3311 6.05711 17.3311H5.00742V19.0025C5.00742 19.0501 4.99098 19.0906 4.95811 19.1239C4.92993 19.1573 4.89001 19.174 4.83834 19.174H4.16908ZM4.99333 16.5382H6.02189C6.29429 16.5382 6.50329 16.474 6.64889 16.3454C6.79448 16.212 6.86728 16.0168 6.86728 15.7597C6.86728 15.5216 6.79918 15.3311 6.66298 15.1882C6.52677 15.0406 6.31308 14.9668 6.02189 14.9668H4.99333V16.5382Z" fill="#26E2E2"/>
<path d="M8.81294 19.174C8.76597 19.174 8.72605 19.1573 8.69317 19.1239C8.6603 19.0906 8.64386 19.0501 8.64386 19.0025V14.3525C8.64386 14.3001 8.6603 14.2573 8.69317 14.224C8.72605 14.1906 8.76597 14.174 8.81294 14.174H10.5319C11.0063 14.174 11.3961 14.2478 11.7013 14.3954C12.0113 14.543 12.2438 14.762 12.3988 15.0525C12.5585 15.343 12.6407 15.6978 12.6454 16.1168C12.6548 16.3263 12.6595 16.512 12.6595 16.674C12.6595 16.8359 12.6548 17.0192 12.6454 17.224C12.636 17.6668 12.5561 18.0335 12.4058 18.324C12.2555 18.6097 12.0278 18.824 11.7225 18.9668C11.4219 19.1049 11.0368 19.174 10.5671 19.174H8.81294ZM9.6231 18.3525H10.5319C10.7949 18.3525 11.0086 18.3144 11.173 18.2382C11.3374 18.162 11.4571 18.0406 11.5323 17.8739C11.6121 17.7025 11.6544 17.4787 11.6591 17.2025C11.6638 17.0597 11.6661 16.9359 11.6661 16.8311C11.6708 16.7216 11.6708 16.6144 11.6661 16.5097C11.6661 16.4001 11.6638 16.2763 11.6591 16.1382C11.6497 15.7478 11.5534 15.4597 11.3702 15.274C11.1871 15.0882 10.8959 14.9954 10.4967 14.9954H9.6231V18.3525Z" fill="#26E2E2"/>
<path d="M13.7664 19.174C13.7194 19.174 13.6795 19.1573 13.6466 19.1239C13.6137 19.0906 13.5973 19.0501 13.5973 19.0025V14.3525C13.5973 14.3001 13.6137 14.2573 13.6466 14.224C13.6795 14.1906 13.7194 14.174 13.7664 14.174H16.8239C16.8755 14.174 16.9178 14.1906 16.9507 14.224C16.9836 14.2573 17 14.3001 17 14.3525V14.8525C17 14.9049 16.9836 14.9478 16.9507 14.9811C16.9178 15.0097 16.8755 15.024 16.8239 15.024H14.5625V16.3811H16.683C16.7346 16.3811 16.7769 16.3978 16.8098 16.4311C16.8427 16.4644 16.8591 16.5073 16.8591 16.5597V17.0597C16.8591 17.1073 16.8427 17.1478 16.8098 17.1811C16.7769 17.2144 16.7346 17.2311 16.683 17.2311H14.5625V19.0025C14.5625 19.0501 14.546 19.0906 14.5131 19.1239C14.4803 19.1573 14.438 19.174 14.3863 19.174H13.7664Z" fill="#26E2E2"/>
</svg>
