<svg width="48" height="65" viewBox="0 0 48 65" fill="none" xmlns="http://www.w3.org/2000/svg">
<path fill-rule="evenodd" clip-rule="evenodd" d="M17.7838 54.6978C9.77241 42.5973 8.28877 22.7468 14.4545 10.3598C17.4626 4.32588 21.72 1.16098 26.235 0.910167C26.4839 0.906158 26.7454 0.88655 26.9816 0.89816C31.5087 0.969112 36.2316 3.92943 40.1258 9.79737C44.1297 15.8331 46.5094 23.8387 47.1017 31.8612C47.694 39.8836 46.5317 47.9497 43.4425 54.151C40.494 60.0778 36.3364 63.2205 31.9235 63.581C31.504 63.6271 31.0771 63.6152 30.6502 63.6032C26.2281 63.4364 21.5923 60.4695 17.7838 54.6978Z" fill="#26E2E2"/>
<path d="M31.9033 63.543C27.4977 63.3802 22.8853 60.7339 19.0996 55.0128L21.8006 64.0353L31.9033 63.543Z" fill="#26E2E2"/>
<path d="M15.168 10.6034C18.203 4.5193 22.4985 1.32807 27.054 1.07516L15.9028 1.54329L15.168 10.6034Z" fill="#26E2E2"/>
<path d="M34.7006 32.3891C33.5579 16.238 25.4794 3.30803 16.6567 3.50916C7.83398 3.71029 1.60811 16.9664 2.75081 33.1174C3.89351 49.2685 11.9721 62.1984 20.7948 61.9973C29.6174 61.7962 35.8433 48.5401 34.7006 32.3891Z" fill="#29BECE"/>
<path d="M35.5953 32.284C34.5875 18.0392 27.4601 6.63523 19.6759 6.81269C11.8917 6.99014 6.39844 18.6818 7.40628 32.9267C8.41413 47.1715 15.5415 58.5754 23.3257 58.398C31.1098 58.2205 36.6032 46.5289 35.5953 32.284Z" fill="#7DEEEE"/>
<path fill-rule="evenodd" clip-rule="evenodd" d="M6.57286 14.4186C1.40982 24.7942 2.65281 41.4067 9.3527 51.5228C16.0526 61.6389 25.6632 61.4311 30.8262 51.0554C35.9893 40.6797 34.7463 24.0673 28.0464 13.9512C21.3629 3.84845 11.7359 4.04287 6.57286 14.4186ZM7.52225 55.1949C-0.48914 43.0945 -1.97279 23.244 4.19294 10.8571C10.3713 -1.54551 21.8565 -1.77671 29.8642 10.2947C37.8756 22.3951 39.3592 42.2456 33.1935 54.6325C27.0442 67.0329 15.5463 67.2797 7.52225 55.1949Z" fill="#26E2E2"/>
<path fill-rule="evenodd" clip-rule="evenodd" d="M19.2243 30.0431C19.1624 30.3531 19.2269 30.7409 19.3881 30.976L23.3236 36.9049C23.6098 37.3197 24.0008 37.305 24.2083 36.8822L25.0419 35.22C25.1904 34.9035 25.4823 34.9107 25.6798 35.2013L26.3284 36.1706C26.5096 36.4479 26.5364 36.8821 26.3969 37.1543L25.5078 38.9515C25.3254 39.3433 25.3619 39.9659 25.6156 40.3541C25.8693 40.7422 26.2315 40.7296 26.4427 40.3357L27.3317 38.5385C27.4713 38.2662 27.7181 38.2622 27.9119 38.524L28.5606 39.4933C28.758 39.7839 28.7922 40.2758 28.6438 40.5923L26.4005 45.0941C26.0874 45.7138 25.5198 45.7128 25.1249 45.1317L17.8263 34.1035C17.6651 33.8683 17.4559 33.8258 17.269 33.9562C15.6554 35.2115 13.275 34.2412 11.7241 31.9144C9.71824 28.8801 9.33975 23.906 10.8889 20.7941C12.4381 17.6822 15.3265 17.6255 17.3323 20.6598C18.8619 23.0464 19.7595 27.0799 19.2243 30.0431ZM12.123 25.1806L11.4075 26.6303L12.8498 28.7907L12.4813 29.5454L13.1336 30.5436L13.5021 29.7888L13.6071 29.9263L13.2387 30.6811L13.891 31.6792L14.2595 30.9245L15.1056 32.1843L15.7066 30.9759L13.2134 27.2074L15.1143 27.1666L14.8682 23.8985L17.3614 27.667L17.9751 26.4431L17.129 25.1832L17.4974 24.4284L16.8451 23.4303L16.4766 24.1851L16.3841 24.032L16.7526 23.2773L16.1003 22.2792L15.7318 23.0339L14.3021 20.858L13.5866 22.3077L13.8059 25.1416L12.123 25.1806Z" fill="#4C4EC1"/>
</svg>
