<svg width="102" height="64" viewBox="0 0 102 64" fill="none" xmlns="http://www.w3.org/2000/svg">
<path fill-rule="evenodd" clip-rule="evenodd" d="M45.3952 53.8033C37.3837 41.7028 35.9001 21.8522 42.0659 9.46524C45.0739 3.43135 49.3313 0.266452 53.8464 0.0156357C54.0952 0.0116269 54.3567 -0.00798096 54.5929 0.00362891C59.12 0.0745809 63.8429 3.0349 67.7372 8.90284C71.741 14.9385 74.1207 22.9442 74.7131 30.9666C75.3054 38.9891 74.143 47.0552 71.0538 53.2565C68.1053 59.1832 63.9477 62.326 59.5348 62.6864C59.1154 62.7326 58.6884 62.7206 58.2615 62.7087C53.8394 62.5418 49.2037 59.575 45.3952 53.8033Z" fill="#26E2E2"/>
<path d="M59.5146 62.6485C55.109 62.4856 50.4966 59.8394 46.7109 54.1182L49.4119 63.1408L59.5146 62.6485Z" fill="#26E2E2"/>
<path d="M42.7794 9.70889C45.8144 3.62477 50.1099 0.433536 54.6653 0.18063L43.5142 0.648763L42.7794 9.70889Z" fill="#26E2E2"/>
<path d="M62.3119 31.4945C61.1692 15.3435 53.0907 2.4135 44.268 2.61463C35.4453 2.81576 29.2194 16.0718 30.3621 32.2229C31.5048 48.3739 39.5834 61.3039 48.4061 61.1028C57.2288 60.9016 63.4546 47.6456 62.3119 31.4945Z" fill="#29BECE"/>
<path d="M63.2066 31.3895C62.1988 17.1446 55.0714 5.7407 47.2873 5.91816C39.5031 6.09561 34.0098 17.7872 35.0176 32.0321C36.0255 46.277 43.1528 57.6809 50.937 57.5034C58.7212 57.326 64.2145 45.6344 63.2066 31.3895Z" fill="#7DEEEE"/>
<path fill-rule="evenodd" clip-rule="evenodd" d="M34.1842 13.524C29.0211 23.8997 30.2641 40.5121 36.964 50.6283C43.6639 60.7444 53.2745 60.5366 58.4376 50.1609C63.6006 39.7852 62.3576 23.1728 55.6577 13.0566C48.9742 2.95392 39.3472 3.14834 34.1842 13.524ZM35.1336 54.3004C27.1222 42.2 25.6385 22.3495 31.8043 9.96254C37.9827 -2.44005 49.4679 -2.67124 57.4755 9.40014C65.4869 21.5006 66.9705 41.351 60.8048 53.738C54.6555 66.1384 43.1576 66.3852 35.1336 54.3004Z" fill="#26E2E2"/>
<path fill-rule="evenodd" clip-rule="evenodd" d="M46.8357 29.1486C46.7737 29.4586 46.8382 29.8464 46.9994 30.0815L50.9349 36.0104C51.2211 36.4252 51.6121 36.4105 51.8196 35.9877L52.6533 34.3255C52.8017 34.009 53.0936 34.0162 53.2911 34.3068L53.9397 35.2761C54.1209 35.5533 54.1478 35.9876 54.0082 36.2598L53.1192 38.057C52.9368 38.4488 52.9733 39.0714 53.227 39.4595C53.4806 39.8477 53.8428 39.8351 54.054 39.4411L54.943 37.6439C55.0826 37.3717 55.3295 37.3677 55.5232 37.6295L56.1719 38.5988C56.3694 38.8894 56.4036 39.3812 56.2552 39.6978L54.0119 44.1996C53.6988 44.8193 53.1311 44.8183 52.7362 44.2371L45.4377 33.2089C45.2764 32.9738 45.0673 32.9313 44.8803 33.0617C43.2667 34.317 40.8864 33.3467 39.3354 31.0199C37.3296 27.9856 36.9511 23.0115 38.5003 19.8996C40.0495 16.7877 42.9378 16.731 44.9437 19.7653C46.4732 22.1518 47.3709 26.1854 46.8357 29.1486ZM39.7344 24.286L39.0189 25.7357L40.4611 27.8962L40.0926 28.6509L40.745 29.649L41.1134 28.8943L41.2184 29.0318L40.85 29.7866L41.5023 30.7847L41.8708 30.0299L42.7169 31.2898L43.318 30.0814L40.8247 26.3129L42.7257 26.2721L42.4795 23.004L44.9728 26.7725L45.5864 25.5485L44.7403 24.2886L45.1087 23.5339L44.4564 22.5358L44.0879 23.2905L43.9955 23.1375L44.3639 22.3827L43.7116 21.3846L43.3431 22.1394L41.9135 19.9635L41.1979 21.4132L41.4173 24.247L39.7344 24.286Z" fill="#4C4EC1"/>
<path fill-rule="evenodd" clip-rule="evenodd" d="M60.5146 8.65039C60.5146 8.09811 60.9624 7.65039 61.5146 7.65039L66.5146 7.65039C67.0669 7.65039 67.5146 8.09811 67.5146 8.65039C67.5146 9.20268 67.0669 9.65039 66.5146 9.65039L61.5146 9.65039C60.9624 9.65039 60.5146 9.20268 60.5146 8.65039Z" fill="#33AACC"/>
<path fill-rule="evenodd" clip-rule="evenodd" d="M68.5146 30.6504C68.5146 30.0981 68.9624 29.6504 69.5146 29.6504H73.5146C74.0669 29.6504 74.5146 30.0981 74.5146 30.6504C74.5146 31.2027 74.0669 31.6504 73.5146 31.6504H69.5146C68.9624 31.6504 68.5146 31.2027 68.5146 30.6504Z" fill="#33AACC"/>
<path fill-rule="evenodd" clip-rule="evenodd" d="M64.5146 52.6504C64.5146 52.0981 64.9624 51.6504 65.5146 51.6504H70.5146C71.0669 51.6504 71.5146 52.0981 71.5146 52.6504C71.5146 53.2027 71.0669 53.6504 70.5146 53.6504H65.5146C64.9624 53.6504 64.5146 53.2027 64.5146 52.6504Z" fill="#33AACC"/>
</svg>
