<svg width="38" height="38" viewBox="0 0 38 38" fill="none" xmlns="http://www.w3.org/2000/svg">
<path fill-rule="evenodd" clip-rule="evenodd" d="M18.9638 37.9276C29.4373 37.9276 37.9276 29.4373 37.9276 18.9638C37.9276 8.49039 29.4373 0 18.9638 0C8.49039 0 0 8.49039 0 18.9638C0 29.4373 8.49039 37.9276 18.9638 37.9276ZM18.9763 28.9244C19.5648 28.0826 20.8976 26.1762 21.6627 23.1214H16.263C17.0266 26.174 18.3584 28.0789 18.9477 28.9219L18.9629 28.9436L18.9763 28.9244ZM21.0622 28.7215C24.1696 28.0561 26.7414 25.9418 28.0373 23.1214H23.372C22.927 25.0934 22.156 27.0015 21.0622 28.7215ZM14.5538 23.1214H9.88854C11.1844 25.9418 13.7562 28.0561 16.8636 28.7215C15.7765 27.0123 15.0021 25.1059 14.5538 23.1214ZM15.9353 21.4579H21.9905C22.2308 19.8069 22.2308 18.1192 21.9913 16.4674H15.9353C15.6941 18.1192 15.6941 19.8069 15.9353 21.4579ZM9.29717 21.4579H14.256C14.0373 19.8044 14.0373 18.1209 14.256 16.4674H9.29717C9.0909 17.265 8.98194 18.1009 8.98194 18.9626C8.98194 19.8243 9.0909 20.6611 9.29717 21.4579ZM23.6689 21.4579H28.6286C28.8341 20.6611 28.9439 19.8243 28.9439 18.9626C28.9439 18.1009 28.8341 17.265 28.6286 16.4674H23.6698C23.8893 18.1209 23.8893 19.8044 23.6689 21.4579ZM16.263 14.8039H21.6627C20.9957 12.1415 19.956 10.4023 18.9629 8.98168L18.9501 8.99998C18.3611 9.84126 17.0268 11.7471 16.263 14.8039ZM9.88771 14.8031H14.553C15.0221 12.727 15.8347 10.8165 16.8636 9.20292C13.7562 9.86915 11.1844 11.9835 9.88771 14.8031ZM23.372 14.8031H28.0373C26.7414 11.9835 24.1688 9.86915 21.0614 9.20292C22.1136 10.8523 22.9087 12.7553 23.372 14.8031Z" fill="#B3B4E1"/>
</svg>
