<svg width="39" height="38" viewBox="0 0 39 38" fill="none" xmlns="http://www.w3.org/2000/svg">
<path fill-rule="evenodd" clip-rule="evenodd" d="M19.6666 37.9276C30.14 37.9276 38.6304 29.4373 38.6304 18.9638C38.6304 8.49039 30.14 0 19.6666 0C9.19315 0 0.702759 8.49039 0.702759 18.9638C0.702759 29.4373 9.19315 37.9276 19.6666 37.9276ZM23.9056 26.8886C23.5979 27.0004 23.2527 26.9549 22.9849 26.7728C21.2998 25.6206 18.3289 23.5294 18.3289 23.5294L15.7539 25.8634C15.5751 26.0254 15.3189 26.0885 15.0793 26.0286C14.839 25.968 14.6568 25.7923 14.5778 25.5687C13.9482 23.7881 12.7405 20.2868 12.7405 20.2868C12.7405 20.2868 10.1563 19.5003 8.18765 18.935C7.90237 18.8527 7.70441 18.6076 7.69443 18.3249C7.68528 18.0431 7.8666 17.786 8.14523 17.6869C10.4829 16.8565 14.6215 15.3712 18.5066 13.9769C21.9171 12.7529 25.1323 11.599 26.7626 11.0197C26.9889 10.939 27.2425 10.9821 27.4255 11.1314C27.6085 11.2808 27.6917 11.5131 27.6418 11.7367C27.3188 13.1927 26.732 15.9225 26.1327 18.7106C25.511 21.6027 24.8758 24.5575 24.5078 26.2179C24.4396 26.5237 24.2134 26.776 23.9056 26.8886ZM15.2241 24.2664L13.8276 19.8444C13.8276 19.8444 20.1554 15.9646 23.7202 13.7792C23.8225 13.7169 23.9589 13.7385 24.0329 13.8303C24.1077 13.9221 24.0953 14.0531 24.0054 14.1313C20.9297 16.7942 15.5343 21.4661 15.5343 21.4661L15.2241 24.2664Z" fill="#B3B4E1"/>
</svg>
